<?xml version="1.0" encoding="UTF-8" standalone="no"?>
<!-- Created with Inkscape (http://www.inkscape.org/) -->

<svg
   width="1319.3462"
   height="968"
   viewBox="0 0 349.07701 256.11667"
   version="1.1"
   id="svg5"
   xml:space="preserve"
   inkscape:version="1.2.2 (b0a8486541, 2022-12-01)"
   sodipodi:docname="rustls.svg"
   inkscape:export-filename="../rustls-logo-web.png"
   inkscape:export-xdpi="74.509583"
   inkscape:export-ydpi="74.509583"
   xmlns:inkscape="http://www.inkscape.org/namespaces/inkscape"
   xmlns:sodipodi="http://sodipodi.sourceforge.net/DTD/sodipodi-0.dtd"
   xmlns:xlink="http://www.w3.org/1999/xlink"
   xmlns="http://www.w3.org/2000/svg"
   xmlns:svg="http://www.w3.org/2000/svg"
   xmlns:serif="http://www.serif.com/"><sodipodi:namedview
     id="namedview7"
     pagecolor="#ffffff"
     bordercolor="#000000"
     borderopacity="0.25"
     inkscape:showpageshadow="2"
     inkscape:pageopacity="0.0"
     inkscape:pagecheckerboard="0"
     inkscape:deskcolor="#d1d1d1"
     inkscape:document-units="mm"
     showgrid="false"
     inkscape:zoom="1.4142136"
     inkscape:cx="901.20757"
     inkscape:cy="577.35267"
     inkscape:window-width="3840"
     inkscape:window-height="2091"
     inkscape:window-x="0"
     inkscape:window-y="0"
     inkscape:window-maximized="1"
     inkscape:current-layer="layer1" /><defs
     id="defs2"><linearGradient
   inkscape:collect="always"
   id="linearGradient53066"><stop
     style="stop-color:#ffffff;stop-opacity:0;"
     offset="0.83286923"
     id="stop53062" /><stop
     style="stop-color:#ffffff;stop-opacity:1;"
     offset="1"
     id="stop53064" /></linearGradient><inkscape:path-effect
   effect="bspline"
   id="path-effect46298"
   is_visible="true"
   lpeversion="1"
   weight="33.5333"
   steps="3"
   helper_size="0"
   apply_no_weight="true"
   apply_with_weight="true"
   only_selected="false" /><inkscape:path-effect
   effect="simplify"
   id="path-effect46296"
   is_visible="true"
   lpeversion="1"
   steps="0"
   threshold="0.002"
   smooth_angles="280"
   helper_size="5"
   simplify_individual_paths="false"
   simplify_just_coalesce="false" /><linearGradient
   inkscape:collect="always"
   id="linearGradient39303"><stop
     style="stop-color:#ffffff;stop-opacity:1;"
     offset="0"
     id="stop39299" /><stop
     style="stop-color:#fded0a;stop-opacity:0;"
     offset="0.67450368"
     id="stop39301" /></linearGradient><linearGradient
   inkscape:collect="always"
   id="linearGradient32653"><stop
     style="stop-color:#eada02;stop-opacity:1;"
     offset="0"
     id="stop32649" /><stop
     style="stop-color:#f8d903;stop-opacity:1;"
     offset="1"
     id="stop32651" /></linearGradient><linearGradient
   inkscape:collect="always"
   id="linearGradient12053"><stop
     style="stop-color:#9cf2ea;stop-opacity:1;"
     offset="0"
     id="stop12049" /><stop
     style="stop-color:#00e0f8;stop-opacity:1;"
     offset="1"
     id="stop12051" /></linearGradient><linearGradient
   inkscape:collect="always"
   id="linearGradient4136"><stop
     style="stop-color:#fdee00;stop-opacity:1;"
     offset="0"
     id="stop4132" /><stop
     style="stop-color:#efab00;stop-opacity:1;"
     offset="1"
     id="stop4134" /></linearGradient><linearGradient
   inkscape:collect="always"
   id="linearGradient1013"><stop
     style="stop-color:#fd7800;stop-opacity:1;"
     offset="0"
     id="stop1009" /><stop
     style="stop-color:#ed1600;stop-opacity:1;"
     offset="1"
     id="stop1011" /></linearGradient><linearGradient
   inkscape:collect="always"
   xlink:href="#linearGradient4136"
   id="linearGradient1015"
   x1="49.759827"
   y1="141.4005"
   x2="47.292511"
   y2="203.00287"
   gradientUnits="userSpaceOnUse"
   gradientTransform="translate(112.62841,14.931697)" /><linearGradient
   inkscape:collect="always"
   xlink:href="#linearGradient1013"
   id="linearGradient3647"
   gradientUnits="userSpaceOnUse"
   x1="49.759827"
   y1="141.4005"
   x2="47.292511"
   y2="203.00287"
   gradientTransform="translate(5.0433483,14.843883)" /><linearGradient
   inkscape:collect="always"
   xlink:href="#linearGradient12053"
   id="linearGradient12055"
   x1="101.56739"
   y1="102.6026"
   x2="104.17897"
   y2="107.17107"
   gradientUnits="userSpaceOnUse"
   gradientTransform="matrix(3.7795277,0,0,3.7795277,168.22591,73.323657)" /><linearGradient
   inkscape:collect="always"
   xlink:href="#linearGradient12053"
   id="linearGradient23038"
   gradientUnits="userSpaceOnUse"
   x1="101.56739"
   y1="102.6026"
   x2="104.17897"
   y2="107.17107"
   gradientTransform="matrix(3.7795277,0,0,3.7795277,338.73212,69.507593)" /><linearGradient
   inkscape:collect="always"
   xlink:href="#linearGradient32653"
   id="linearGradient32655"
   x1="87.681046"
   y1="650.82184"
   x2="121.13787"
   y2="730.51538"
   gradientUnits="userSpaceOnUse" /><linearGradient
   inkscape:collect="always"
   xlink:href="#linearGradient39303"
   id="linearGradient39305"
   x1="38.039234"
   y1="149.61317"
   x2="38.010532"
   y2="154.73221"
   gradientUnits="userSpaceOnUse"
   gradientTransform="translate(0,-1.5875)" />
            
        
            
        
            
        
            
        
            
        
            
        
            
        
            
        
            
        
        
        
        
        
        
        
        
        
        
    
            
        
            
        
            
        
            
        
            
        
            
        
            
        
            
        <radialGradient
   inkscape:collect="always"
   xlink:href="#linearGradient53066"
   id="radialGradient53068"
   cx="413.29102"
   cy="598.42151"
   fx="413.29102"
   fy="598.42151"
   r="473.50723"
   gradientTransform="matrix(0.97655544,-0.71043454,0.6745736,0.92726134,-223.72117,386.04278)"
   gradientUnits="userSpaceOnUse" />
            
        <linearGradient
   inkscape:collect="always"
   xlink:href="#linearGradient39303"
   id="linearGradient55723"
   gradientUnits="userSpaceOnUse"
   gradientTransform="translate(1.2333333e-6,8.4666671)"
   x1="38.039234"
   y1="149.61317"
   x2="38.010532"
   y2="154.73221" /><linearGradient
   inkscape:collect="always"
   xlink:href="#linearGradient1013"
   id="linearGradient58813"
   gradientUnits="userSpaceOnUse"
   gradientTransform="translate(5.0433483,14.843883)"
   x1="49.759827"
   y1="141.4005"
   x2="47.292511"
   y2="203.00287" /><linearGradient
   inkscape:collect="always"
   xlink:href="#linearGradient1013"
   id="linearGradient58815"
   gradientUnits="userSpaceOnUse"
   gradientTransform="translate(5.0433483,14.843883)"
   x1="49.759827"
   y1="141.4005"
   x2="47.292511"
   y2="203.00287" /><linearGradient
   inkscape:collect="always"
   xlink:href="#linearGradient1013"
   id="linearGradient58817"
   gradientUnits="userSpaceOnUse"
   gradientTransform="translate(5.0433483,14.843883)"
   x1="49.759827"
   y1="141.4005"
   x2="47.292511"
   y2="203.00287" /><linearGradient
   inkscape:collect="always"
   xlink:href="#linearGradient4136"
   id="linearGradient58819"
   gradientUnits="userSpaceOnUse"
   gradientTransform="translate(112.62841,14.931697)"
   x1="49.759827"
   y1="141.4005"
   x2="47.292511"
   y2="203.00287" /><linearGradient
   inkscape:collect="always"
   xlink:href="#linearGradient4136"
   id="linearGradient58821"
   gradientUnits="userSpaceOnUse"
   gradientTransform="translate(112.62841,14.931697)"
   x1="49.759827"
   y1="141.4005"
   x2="47.292511"
   y2="203.00287" /><linearGradient
   inkscape:collect="always"
   xlink:href="#linearGradient4136"
   id="linearGradient58823"
   gradientUnits="userSpaceOnUse"
   gradientTransform="translate(112.62841,14.931697)"
   x1="49.759827"
   y1="141.4005"
   x2="47.292511"
   y2="203.00287" /><linearGradient
   inkscape:collect="always"
   xlink:href="#linearGradient39303"
   id="linearGradient58825"
   gradientUnits="userSpaceOnUse"
   gradientTransform="translate(1.2333333e-6,8.4666671)"
   x1="38.039234"
   y1="149.61317"
   x2="38.010532"
   y2="154.73221" /><linearGradient
   inkscape:collect="always"
   xlink:href="#linearGradient39303"
   id="linearGradient58827"
   gradientUnits="userSpaceOnUse"
   gradientTransform="translate(1.2333333e-6,8.4666671)"
   x1="38.039234"
   y1="149.61317"
   x2="38.010532"
   y2="154.73221" /><linearGradient
   inkscape:collect="always"
   xlink:href="#linearGradient39303"
   id="linearGradient58829"
   gradientUnits="userSpaceOnUse"
   gradientTransform="translate(1.2333333e-6,8.4666671)"
   x1="38.039234"
   y1="149.61317"
   x2="38.010532"
   y2="154.73221" /><linearGradient
   inkscape:collect="always"
   xlink:href="#linearGradient39303"
   id="linearGradient58831"
   gradientUnits="userSpaceOnUse"
   gradientTransform="translate(1.2333333e-6,8.4666671)"
   x1="38.039234"
   y1="149.61317"
   x2="38.010532"
   y2="154.73221" /><linearGradient
   inkscape:collect="always"
   xlink:href="#linearGradient39303"
   id="linearGradient58833"
   gradientUnits="userSpaceOnUse"
   gradientTransform="translate(1.2333333e-6,8.4666671)"
   x1="38.039234"
   y1="149.61317"
   x2="38.010532"
   y2="154.73221" /><linearGradient
   inkscape:collect="always"
   xlink:href="#linearGradient39303"
   id="linearGradient58835"
   gradientUnits="userSpaceOnUse"
   gradientTransform="translate(1.2333333e-6,8.4666671)"
   x1="38.039234"
   y1="149.61317"
   x2="38.010532"
   y2="154.73221" />
        
        
        
        
        
        
        
        
        
    </defs><g
     inkscape:label="Layer 1"
     inkscape:groupmode="layer"
     id="layer1"
     transform="translate(55.811762)"><path
       id="path1728"
       style="clip-rule:evenodd;fill:none;fill-rule:nonzero;stroke-width:6;stroke-linejoin:round;stroke-miterlimit:1.41421;stroke-dasharray:none;stroke:#000000;stroke-opacity:1"
       d="M 120.8219 13.975374 C 119.6236 13.975374 118.5065 14.622769 117.87996 15.685864 L 111.64778 26.183415 C 110.66856 26.268345 109.68778 26.370702 108.71411 26.482621 L 100.64484 17.455265 C 99.827281 16.542983 98.611501 16.135239 97.437282 16.375745 C 96.257241 16.621807 95.28674 17.481716 94.868963 18.657259 L 90.733815 30.189372 C 89.77576 30.476974 88.827677 30.779194 87.881793 31.090609 L 78.298398 23.898283 C 77.323938 23.16433 76.055268 23.008725 74.946665 23.491589 C 73.840443 23.969427 73.045075 25.016111 72.853253 26.24801 L 70.95156 38.408508 C 70.072616 38.884758 69.201729 39.374003 68.333632 39.873535 L 57.582867 34.761702 C 56.490933 34.241532 55.215882 34.348483 54.221315 35.045923 C 53.223043 35.739395 52.638961 36.926351 52.683941 38.175448 L 53.097353 50.51578 C 52.331649 51.153954 51.574716 51.804893 50.824623 52.464498 L 39.300779 49.631079 C 38.130528 49.346917 36.902959 49.710363 36.055499 50.593811 C 35.203278 51.480429 34.858197 52.758877 35.132041 53.979134 L 37.84557 65.999589 C 37.216392 66.778786 36.593557 67.56632 35.982635 68.364303 L 24.149249 67.934355 C 22.955185 67.898635 21.815677 68.495177 21.148398 69.536841 C 20.479797 70.573742 20.378382 71.901915 20.876064 73.04412 L 25.77809 84.25894 C 25.302104 85.159316 24.829401 86.06745 24.373524 86.989522 L 12.715321 88.968213 C 11.530255 89.167709 10.531942 89.9935 10.071038 91.149992 C 9.6138384 92.308602 9.7619152 93.629387 10.460679 94.645386 L 17.357415 104.63444 C 17.304235 104.81092 17.255303 104.98866 17.202386 105.16567 L 15.042828 107.45959 C 8.5113997 104.94338 2.1382094 101.55994 -0.49420829 97.349097 C -0.49420829 97.349097 25.759726 67.484887 -15.273668 48.396012 L -10.496182 81.43689 C -10.496182 81.43689 -23.145385 72.98326 -25.875088 54.621989 C -25.875088 54.621989 -56.678943 76.977876 -12.280052 98.403813 C -12.280052 98.403813 -10.049005 106.76831 6.9833715 116.02083 L -2.2966822 125.87862 C -2.2966822 125.87862 -5.2850309 128.22053 -0.93449149 133.72465 C 2.9019629 138.58001 22.600082 157.82717 33.003489 167.91016 C 37.397155 173.02932 40.407556 176.19929 40.721881 175.92518 C 41.218238 175.48994 38.612708 166.17622 29.958196 155.2484 C 23.286469 145.44401 14.627823 130.36431 16.658233 128.62626 C 16.658233 128.62626 17.559422 127.48339 19.363494 126.11117 C 19.582497 126.94333 19.998479 127.93691 20.752557 129.10892 C 23.132217 132.807 35.052544 147.28156 41.344065 154.86187 C 44.046516 158.7478 45.879313 161.14158 46.039385 160.91007 C 46.292062 160.54337 44.359073 153.24778 38.99227 144.92345 C 36.487727 140.45333 33.49722 134.52948 31.701759 130.15433 C 35.216895 132.37935 50.7725 140.33281 80.460023 144.86661 C 81.175059 146.65532 82.613395 148.14798 84.549696 148.855 L 93.724847 152.20518 C 96.637686 153.26878 99.834991 152.24841 101.65408 149.9185 L 102.42561 150.15673 C 102.27358 150.67366 102.15856 151.20834 102.08506 151.75715 L 101.56778 155.61737 L 99.976145 155.40447 C 98.080024 155.15053 96.296473 156.51281 96.042535 158.40894 L 93.649916 176.27503 C 93.395978 178.17116 94.758262 179.9547 96.654384 180.20864 L 117.96729 183.06324 C 119.86341 183.31718 121.64697 181.9549 121.9009 180.05878 L 124.29404 162.19217 C 124.54798 160.29604 123.1857 158.51249 121.28957 158.25856 L 119.95632 158.08027 L 120.4736 154.21953 C 120.52875 153.80771 120.55923 153.39743 120.56662 152.99066 L 122.45229 152.88162 C 123.93153 156.17834 127.7703 157.84756 131.21972 156.60026 L 140.4052 153.27902 C 142.99105 152.34398 144.69577 150.00908 144.97857 147.43234 C 193.21033 144.04839 215.21033 128.53458 217.88006 126.20263 C 216.83363 130.4066 213.25803 138.91154 210.40661 144.89245 C 205.72191 153.44668 204.02515 160.89369 204.24317 161.26199 C 204.38181 161.49429 205.97979 159.02865 208.33749 155.03291 C 213.82256 147.21634 224.21704 132.29497 226.29402 128.49397 C 226.61397 127.90826 226.86122 127.3691 227.05779 126.86823 C 228.14922 127.52709 228.73366 128.03973 228.73366 128.03973 C 230.89689 129.29386 225.29533 144.79943 220.68867 155.0634 C 214.42361 166.71829 213.50483 175.81236 214.03585 176.12775 C 214.37134 176.32804 216.6507 172.8594 219.90216 167.33914 C 227.92538 156.15971 243.09201 134.84799 245.86802 129.67115 C 249.01523 123.80218 245.86802 122.1574 245.86802 122.1574 L 233.7809 113.25355 C 242.41698 105.73945 247.51856 97.578023 247.51856 97.578023 C 288.42892 73.328192 268.81804 47.472038 268.81804 47.472038 C 264.87601 69.244842 251.4315 73.914351 251.4315 73.914351 C 250.28612 49.265793 254.18999 42.886271 254.18999 42.886271 C 209.59848 62.582628 238.28398 91.117436 238.28398 91.117436 L 235.66502 96.932585 C 231.82329 100.83718 228.17638 103.94892 224.80263 106.44363 C 224.62933 105.83913 224.45612 105.23432 224.27708 104.63444 L 231.17279 94.645386 C 231.87658 93.629387 232.01833 92.308602 231.56139 91.149992 C 231.50415 91.00586 231.43803 90.866827 231.36451 90.73348 C 230.84987 89.800049 229.95415 89.145318 228.91815 88.968213 L 217.25891 86.989522 C 216.80674 86.06745 216.33367 85.159316 215.85848 84.25894 L 220.75689 73.04412 C 221.26039 71.901915 221.15522 70.573742 220.48662 69.536841 C 219.82066 68.495177 218.69118 67.886995 217.4868 67.934355 L 205.65342 68.364303 C 205.04091 67.56632 204.41876 66.775875 203.78376 65.999589 L 206.50298 53.979134 C 206.77868 52.758877 206.43065 51.480429 205.58055 50.593811 C 204.73521 49.710368 203.50651 49.344535 202.33837 49.631079 L 190.81298 52.464498 C 190.06686 51.804893 189.30805 51.153954 188.54076 50.51578 L 188.95521 38.175448 C 188.99971 36.926351 188.41718 35.739395 187.41732 35.045923 C 186.41799 34.348483 185.14979 34.243649 184.0568 34.761702 L 173.305 39.873535 C 172.43902 39.376649 171.56785 38.884758 170.68759 38.408508 L 168.78745 26.24801 C 168.59457 25.016111 167.8024 23.969427 166.69249 23.491589 C 165.58521 23.010842 164.31747 23.166976 163.34592 23.898283 L 153.75943 31.090609 C 152.81514 30.777078 151.86678 30.476974 150.9074 30.189372 L 146.77536 18.657259 C 146.3552 17.481716 145.3866 16.618632 144.20497 16.375745 C 143.02757 16.135239 141.81598 16.542983 140.99948 17.455265 L 132.93021 26.482621 C 131.95522 26.370702 130.97832 26.268346 129.99964 26.183415 L 123.76901 15.685864 C 123.13825 14.622769 122.02364 13.975374 120.8219 13.975374 z M 88.18565 145.92443 C 90.119328 146.15954 92.105558 146.3786 94.143943 146.58123 A 2 2 0 0 0 95.491147 148.01525 L 97.062111 148.5005 C 96.451134 148.69629 95.76719 148.69256 95.096856 148.44779 L 88.18565 145.92443 z M 108.96939 147.67729 C 110.69093 147.76269 112.44205 147.8357 114.22489 147.89537 C 114.74041 148.26194 115.19167 148.72826 115.55659 149.27358 L 114.82485 149.31595 A 2 2 0 0 0 112.94435 151.42952 A 2 2 0 0 0 115.05739 153.31002 L 116.55446 153.22321 C 116.54388 153.3772 116.52996 153.5322 116.50899 153.68881 L 115.9917 157.54904 L 105.53239 156.14861 L 106.04968 152.28786 C 106.09376 151.95867 106.15917 151.64133 106.24346 151.33598 L 108.29192 151.9685 A 2 2 0 0 0 110.79357 150.64817 A 2 2 0 0 0 109.47169 148.146 L 108.63556 147.88761 C 108.74465 147.81317 108.85605 147.74296 108.96939 147.67729 z M 140.87649 147.68763 C 140.59551 148.50769 139.95234 149.18943 139.04508 149.51749 L 129.85959 152.83873 C 128.95062 153.16741 128.01795 153.05428 127.2768 152.60154 L 128.43022 152.53488 A 2 2 0 0 0 130.31124 150.42131 A 2 2 0 0 0 128.19975 148.5408 L 126.14147 148.66018 C 126.24439 148.45625 126.37446 148.26634 126.52388 148.09019 C 131.5402 148.07989 136.31173 147.93428 140.87649 147.68763 z M 119.42044 148.02817 C 120.3158 148.04445 121.21982 148.0564 122.12983 148.0659 C 122.04916 148.34061 121.98343 148.61987 121.93656 148.90357 L 119.87002 149.02346 C 119.73838 148.68181 119.58625 148.35063 119.42044 148.02817 z " /><g
       id="g10223"
       transform="translate(3.3128117,24.943561)"
       style="display:inline"
       inkscape:label="text"><g
         aria-label="RUSTLS"
         id="text3641-7"
         style="font-weight:bold;font-size:79.9999px;line-height:18px;font-family:'Atkinson Hyperlegible';-inkscape-font-specification:'Atkinson Hyperlegible Bold';letter-spacing:1.32292px;fill:none;fill-rule:evenodd;stroke:#000000;stroke-width:15;stroke-linecap:round;stroke-linejoin:round;stroke-miterlimit:1.9;paint-order:stroke markers fill;stop-color:#000000"
         inkscape:label="outer"><path
           d="m 20.510282,216.27229 4.159995,-20.79997 q 0.959999,-5.76 2.079998,-11.83999 1.119998,-6.07999 2.079997,-11.99998 1.039999,-5.92 1.599998,-11.11999 4.559994,-1.44 9.839988,-2.08 5.279993,-0.72 10.479987,-0.72 6.079992,0 8.23999,2.64 2.239997,2.64 2.239997,7.11999 0,4.08 -1.919998,8.23999 -1.919997,4.08 -5.039993,7.43999 -3.039997,3.28 -6.719992,5.2 1.439998,3.19999 3.039996,7.03999 1.679998,3.75999 3.119996,7.19999 0.799999,2 1.599998,3.99999 0.879999,2 1.679998,4 l -12.399984,4.31999 q -0.799999,-2.79999 -1.519999,-5.35999 -0.719999,-2.56 -1.359998,-5.03999 -0.799999,-2.96 -1.519998,-5.68 -0.719999,-2.79999 -1.279998,-4.95999 -0.48,-2.16 -0.56,-3.04 l -1.039998,0.32 q -0.48,2.56 -1.199999,6.23999 -0.639999,3.68 -1.199998,7.12 l -1.439999,8.39999 z m 18.799977,-34.71996 q 1.439998,-0.16 3.519996,-1.19999 2.159997,-1.12 4.239994,-2.72 2.159998,-1.6 3.599996,-3.28 1.439998,-1.67999 1.439998,-2.95999 0,-1.6 -1.919997,-2.08 -1.839998,-0.56 -4.879994,-0.56 h -1.759998 q -0.48,0.08 -0.879999,0.08 -0.4,0 -0.799999,0 z"
           style="font-family:Bangers;-inkscape-font-specification:'Bangers Bold';stroke-width:7.5;stroke-dasharray:none"
           id="path58080" /><path
           d="m 70.233162,217.63229 q -2.399997,0 -4.879994,-1.04 -2.479997,-1.04 -4.159995,-3.2 -1.679998,-2.15999 -1.679998,-5.51999 v -0.64 q 0,-0.4 0.08,-0.64 0.24,-2.07999 0.639999,-5.43999 0.48,-3.36 1.119999,-7.27999 0.639999,-4 1.279998,-7.91999 0.719999,-3.92 1.279999,-7.11999 1.199998,-6.39999 1.919997,-10.31999 0.72,-3.91999 1.119999,-5.99999 0.479999,-2.16 0.719999,-3.2 l 13.199984,-1.28 q -1.039999,4.88 -1.999998,9.27999 -0.879999,4.32 -1.679998,8.23999 l -3.679995,17.67998 q -0.48,2 -0.719999,3.36 -0.32,1.27999 -0.719999,3.27999 -0.32,1.92 -0.32,3.52 0,1.28 0.639999,2.15999 0.639999,0.8 1.599998,0.8 1.359999,0 2.239998,-1.04 0.879998,-1.03999 1.439998,-2.55999 0.559999,-1.52 0.879999,-3.04 0.319999,-1.6 0.559999,-2.56 0.799999,-3.67999 1.439998,-7.11999 0.719999,-3.51999 1.439998,-7.43999 0.799999,-3.91999 1.759998,-9.03999 0.639999,-3.51999 1.279999,-7.11999 0.719999,-3.67999 1.359998,-7.43999 l 12.159985,-0.8 -2.799997,15.43998 q -0.559999,2.96 -1.279998,6.64 -0.639999,3.67999 -1.439998,7.43999 -0.799999,3.75999 -1.519998,7.11999 -0.64,3.35999 -1.199999,5.75999 -1.599998,6.55999 -4.959994,10.31999 -3.359996,3.67999 -7.439991,5.19999 -3.999995,1.52 -7.67999,1.52 z"
           style="font-family:Bangers;-inkscape-font-specification:'Bangers Bold';stroke-width:7.5;stroke-dasharray:none"
           id="path58082" /><path
           d="m 105.55609,216.35229 q -3.2,0 -6.399995,-1.68 -3.199996,-1.75999 -6.159992,-5.51999 l 5.919993,-11.59999 q 0.879999,1.52 2.559994,2.88 1.76,1.36 3.68,2.16 1.92,0.8 3.27999,0.8 2.08,0 3.92,-1.28 1.92,-1.28 1.92,-3.44 0,-2.79999 -2.56,-5.11999 -2.56,-2.32 -5.75999,-4.56 -3.12,-2.23999 -5.76,-5.03999 -2.559993,-2.88 -2.559993,-6.55999 0,-4.16 2.399993,-7.67999 2.4,-3.6 6.24,-6.23999 3.83999,-2.72 8.15999,-4.16 4.39999,-1.52 8.31999,-1.52 2.79999,0 5.19999,0.96 2.4,0.88 3.83999,2.96 1.44,2.08 1.44,5.59999 0,0.56 -0.08,1.12 0,0.56 -0.08,1.12 -0.08,0.56 -0.24,1.2 -0.08,0.56 -0.16,1.2 l -11.59998,3.35999 q 0.16,-0.64 0.24,-1.28 0.16,-0.64 0.16,-1.27999 0,-2.4 -0.88,-3.44 -0.8,-1.12 -2.16,-1.12 -0.72,0 -2.08,0.8 -1.35999,0.72 -2.47999,2.08 -1.04,1.28 -1.04,2.87999 0,2.64 2.16,4.4 2.23999,1.68 5.11999,3.43999 1.36,0.8 3.04,2.56 1.67999,1.68 2.87999,4.63999 1.28,2.88 1.28,7.44 0,5.91999 -2.96,10.39998 -2.87999,4.48 -7.83999,7.03999 -4.95999,2.48 -10.95998,2.48 z"
           style="font-family:Bangers;-inkscape-font-specification:'Bangers Bold';stroke-width:7.5;stroke-dasharray:none"
           id="path58084" /><path
           d="m 134.799,216.27229 q 0.87999,-4.39999 1.75999,-8.71999 0.96,-4.39999 1.76,-8.63999 3.04,-15.19998 4.96,-29.11996 -0.88,-0.16 -1.84,-0.16 -0.96,-0.08 -1.84,0 -1.92,0.16 -3.76,-0.48 0.08,-0.64 0.08,-1.36 0,-0.8 0,-1.6 0,-0.88 0,-1.67999 0,-0.88 0.08,-1.68 0.08,-0.88 0.08,-1.84 0,-1.04 0.08,-2.08 2.08,0.16 4.16,0.24 2.08,0.08 4.15999,0.08 5.92,0 11.27999,-0.4 5.43999,-0.4 9.99999,-0.96 l -0.88,4.32 -0.72,3.75999 q -0.4,2.08 -0.72,3.28 -0.88,0.24 -1.76,0.4 -0.88,0.16 -1.76,0.24 -0.87999,0.08 -1.83999,0.24 -0.88,0.16 -1.76,0.32 -1.2,5.91999 -2,10.23999 -0.72,4.31999 -1.36,8.31998 -0.56,3.92 -1.36,8.63999 -1.35999,8.07999 -2.39999,16.39998 z"
           style="font-family:Bangers;-inkscape-font-specification:'Bangers Bold';stroke-width:7.5;stroke-dasharray:none"
           id="path58086" /><path
           d="m 158.84186,216.35229 q 0.87999,-6.31999 1.83999,-12.71998 1.04,-6.4 2.08,-12.31999 1.12,-5.99999 2.08,-10.79998 1.04,-5.2 2.08,-10.55999 1.03999,-5.35999 2.15999,-10.79999 l 13.99999,-1.84 -4.16,18.07998 q -1.12,4.72 -2.32,10.15999 -1.11999,5.35999 -2.07999,10.39999 -0.96,5.03999 -1.52,8.95999 2,-0.16 4.23999,-0.16 2.32,-0.08 4.08,-0.08 0.08,1.83999 0.32,3.91999 0.24,2 0.48,3.52 0.32,1.43999 0.32,1.59999 -0.32,0 -0.64,0 -0.24,0 -0.56,-0.08 h -1.28 q -3.12,0 -6.95999,0.32 -3.76,0.24 -7.51999,0.88 -3.68,0.56 -6.63999,1.52 z"
           style="font-family:Bangers;-inkscape-font-specification:'Bangers Bold';stroke-width:7.5;stroke-dasharray:none"
           id="path58088" /><path
           d="m 196.48474,216.35229 q -3.2,0 -6.39999,-1.68 -3.2,-1.75999 -6.16,-5.51999 l 5.92,-11.59999 q 0.87999,1.52 2.55999,2.88 1.76,1.36 3.68,2.16 1.92,0.8 3.27999,0.8 2.08,0 3.92,-1.28 1.92,-1.28 1.92,-3.44 0,-2.79999 -2.56,-5.11999 -2.56,-2.32 -5.75999,-4.56 -3.12,-2.23999 -5.76,-5.03999 -2.55999,-2.88 -2.55999,-6.55999 0,-4.16 2.39999,-7.67999 2.4,-3.6 6.24,-6.23999 3.83999,-2.72 8.15999,-4.16 4.39999,-1.52 8.31999,-1.52 2.79999,0 5.19999,0.96 2.4,0.88 3.83999,2.96 1.44,2.08 1.44,5.59999 0,0.56 -0.08,1.12 0,0.56 -0.08,1.12 -0.08,0.56 -0.24,1.2 -0.08,0.56 -0.16,1.2 l -11.59998,3.35999 q 0.16,-0.64 0.24,-1.28 0.16,-0.64 0.16,-1.27999 0,-2.4 -0.88,-3.44 -0.8,-1.12 -2.16,-1.12 -0.72,0 -2.08,0.8 -1.35999,0.72 -2.47999,2.08 -1.04,1.28 -1.04,2.87999 0,2.64 2.16,4.4 2.23999,1.68 5.11999,3.43999 1.36,0.8 3.04,2.56 1.67999,1.68 2.87999,4.63999 1.28,2.88 1.28,7.44 0,5.91999 -2.96,10.39998 -2.87999,4.48 -7.83999,7.03999 -4.95999,2.48 -10.95998,2.48 z"
           style="font-family:Bangers;-inkscape-font-specification:'Bangers Bold';stroke-width:7.5;stroke-dasharray:none"
           id="path58090" /></g><g
         aria-label="RUS"
         id="text3641"
         style="font-weight:bold;font-size:79.9999px;line-height:18px;font-family:'Atkinson Hyperlegible';-inkscape-font-specification:'Atkinson Hyperlegible Bold';letter-spacing:1.32292px;fill:url(#linearGradient3647);fill-rule:evenodd;stroke-width:6.5;stroke-linecap:round;stroke-miterlimit:2;paint-order:stroke markers fill;stop-color:#000000"
         inkscape:label="rus"><path
           d="m 20.479292,214.59828 4.159995,-20.79997 q 0.959998,-5.76 2.079997,-11.83999 1.119999,-6.07999 2.079998,-11.99998 1.039998,-5.92 1.599998,-11.11999 4.559994,-1.44 9.839987,-2.08 5.279994,-0.72 10.479987,-0.72 6.079993,0 8.23999,2.64 2.239997,2.64 2.239997,7.11999 0,4.08 -1.919997,8.23999 -1.919998,4.08 -5.039994,7.43999 -3.039996,3.28 -6.719992,5.19999 1.439999,3.2 3.039997,7.04 1.679997,3.75999 3.119996,7.19999 0.799999,1.99999 1.599998,3.99999 0.879999,2 1.679998,4 l -12.399985,4.31999 q -0.799999,-2.79999 -1.519998,-5.35999 -0.719999,-2.56 -1.359998,-5.04 -0.799999,-2.95999 -1.519999,-5.67999 -0.719999,-2.79999 -1.279998,-4.95999 -0.479999,-2.16 -0.559999,-3.04 l -1.039999,0.32 q -0.479999,2.56 -1.199999,6.23999 -0.639999,3.68 -1.199998,7.11999 l -1.439998,8.39999 z m 18.799977,-34.71996 q 1.439998,-0.16 3.519995,-1.2 2.159997,-1.11999 4.239995,-2.71999 2.159997,-1.6 3.599995,-3.28 1.439999,-1.68 1.439999,-2.95999 0,-1.6 -1.919998,-2.08 -1.839998,-0.56 -4.879994,-0.56 h -1.759998 q -0.479999,0.08 -0.879999,0.08 -0.399999,0 -0.799999,0 z"
           style="font-family:Bangers;-inkscape-font-specification:'Bangers Bold';fill:url(#linearGradient58813)"
           id="path58093" /><path
           d="m 70.202171,215.95828 q -2.399997,0 -4.879994,-1.04 -2.479997,-1.04 -4.159994,-3.2 -1.679998,-2.15999 -1.679998,-5.51999 v -0.64 q 0,-0.4 0.08,-0.64 0.239999,-2.08 0.639999,-5.43999 0.479999,-3.36 1.119998,-7.27999 0.64,-4 1.279999,-7.91999 0.719999,-3.92 1.279998,-7.11999 1.199999,-6.4 1.919998,-10.31999 0.719999,-3.92 1.119998,-5.99999 0.48,-2.16 0.72,-3.2 l 13.199983,-1.28 q -1.039999,4.88 -1.999997,9.27999 -0.879999,4.32 -1.679998,8.23999 l -3.679996,17.67998 q -0.479999,2 -0.719999,3.35999 -0.319999,1.28 -0.719999,3.28 -0.32,1.92 -0.32,3.52 0,1.27999 0.64,2.15999 0.639999,0.8 1.599998,0.8 1.359998,0 2.239997,-1.04 0.879999,-1.04 1.439998,-2.55999 0.559999,-1.52 0.879999,-3.04 0.32,-1.6 0.559999,-2.56 0.799999,-3.67999 1.439999,-7.11999 0.719999,-3.51999 1.439998,-7.43999 0.799999,-3.91999 1.759998,-9.03999 0.639999,-3.51999 1.279998,-7.11999 0.719999,-3.67999 1.359998,-7.43999 l 12.159985,-0.8 -2.799996,15.43998 q -0.56,2.96 -1.279999,6.63999 -0.639999,3.68 -1.439998,7.44 -0.799999,3.75999 -1.519998,7.11999 -0.639999,3.35999 -1.199999,5.75999 -1.599998,6.55999 -4.959993,10.31999 -3.359996,3.67999 -7.439991,5.19999 -3.999995,1.52 -7.679991,1.52 z"
           style="font-family:Bangers;-inkscape-font-specification:'Bangers Bold';fill:url(#linearGradient58815)"
           id="path58095" /><path
           d="m 105.5251,214.67828 q -3.2,0 -6.399995,-1.68 -3.199996,-1.76 -6.159993,-5.51999 l 5.919993,-11.59999 q 0.879999,1.52 2.559995,2.88 1.76,1.36 3.68,2.16 1.91999,0.8 3.27999,0.8 2.08,0 3.92,-1.28 1.92,-1.28 1.92,-3.44 0,-2.79999 -2.56,-5.11999 -2.56,-2.32 -5.75999,-4.56 -3.12,-2.23999 -5.76,-5.03999 -2.559993,-2.88 -2.559993,-6.55999 0,-4.16 2.399993,-7.67999 2.4,-3.6 6.24,-6.23999 3.83999,-2.72 8.15999,-4.16 4.39999,-1.52 8.31999,-1.52 2.79999,0 5.19999,0.96 2.4,0.88 3.83999,2.96 1.44,2.07999 1.44,5.59999 0,0.56 -0.08,1.12 0,0.56 -0.08,1.12 -0.08,0.56 -0.24,1.2 -0.08,0.56 -0.16,1.19999 l -11.59998,3.36 q 0.16,-0.64 0.24,-1.28 0.16,-0.64 0.16,-1.28 0,-2.39999 -0.88,-3.43999 -0.8,-1.12 -2.16,-1.12 -0.72,0 -2.08,0.8 -1.35999,0.72 -2.47999,2.08 -1.04,1.27999 -1.04,2.87999 0,2.64 2.16,4.4 2.23999,1.67999 5.11999,3.43999 1.36,0.8 3.03999,2.56 1.68,1.68 2.88,4.63999 1.28,2.88 1.28,7.43999 0,5.92 -2.96,10.39999 -2.87999,4.48 -7.83999,7.03999 -4.95999,2.48 -10.95998,2.48 z"
           style="font-family:Bangers;-inkscape-font-specification:'Bangers Bold';fill:url(#linearGradient58817)"
           id="path58097" /></g><g
         aria-label="TLS"
         id="text314"
         style="font-weight:bold;font-size:79.9999px;line-height:18px;font-family:'Atkinson Hyperlegible';-inkscape-font-specification:'Atkinson Hyperlegible Bold';letter-spacing:1.32292px;fill:url(#linearGradient1015);fill-rule:evenodd;stroke-width:6.5;stroke-linecap:round;stroke-miterlimit:2;paint-order:stroke markers fill;stop-color:#000000"
         inkscape:label="tls"><path
           d="m 134.94431,214.68605 q 0.88,-4.4 1.76,-8.71999 0.96,-4.4 1.76,-8.63999 3.04,-15.19998 4.95999,-29.11996 -0.87999,-0.16 -1.83999,-0.16 -0.96,-0.08 -1.84,0 -1.92,0.16 -3.76,-0.48 0.08,-0.64 0.08,-1.36 0,-0.8 0,-1.6 0,-0.88 0,-1.68 0,-0.88 0.08,-1.68 0.08,-0.87999 0.08,-1.83999 0,-1.04 0.08,-2.08 2.08,0.16 4.16,0.24 2.08,0.08 4.15999,0.08 5.92,0 11.27999,-0.4 5.43999,-0.4 9.99999,-0.96 l -0.88,4.32 -0.72,3.75999 q -0.4,2.08 -0.72,3.28 -0.88,0.24 -1.76,0.4 -0.88,0.16 -1.76,0.24 -0.88,0.08 -1.83999,0.24 -0.88,0.16 -1.76,0.32 -1.2,5.91999 -2,10.23998 -0.72,4.32 -1.36,8.31999 -0.56,3.92 -1.36,8.63999 -1.35999,8.07999 -2.39999,16.39998 z"
           style="font-family:Bangers;-inkscape-font-specification:'Bangers Bold';fill:url(#linearGradient58819)"
           id="path58100" /><path
           d="m 158.98717,214.76605 q 0.88,-6.31999 1.83999,-12.71999 1.04,-6.39999 2.08,-12.31998 1.12,-5.99999 2.08,-10.79999 1.04,-5.19999 2.08,-10.55998 1.04,-5.36 2.15999,-10.79999 l 13.99999,-1.84 -4.16,18.07998 q -1.12,4.71999 -2.31999,10.15999 -1.12,5.35999 -2.08,10.39998 -0.96,5.04 -1.52,8.95999 2,-0.16 4.23999,-0.16 2.32,-0.08 4.08,-0.08 0.08,1.84 0.32,3.92 0.24,2 0.48,3.51999 0.32,1.44 0.32,1.6 -0.32,0 -0.64,0 -0.24,0 -0.56,-0.08 h -1.28 q -3.12,0 -6.95999,0.32 -3.76,0.24 -7.51999,0.88 -3.68,0.56 -6.63999,1.52 z"
           style="font-family:Bangers;-inkscape-font-specification:'Bangers Bold';fill:url(#linearGradient58821)"
           id="path58102" /><path
           d="m 196.63005,214.76605 q -3.2,0 -6.39999,-1.68 -3.2,-1.76 -6.16,-5.51999 l 5.92,-11.59999 q 0.88,1.52 2.55999,2.88 1.76,1.36 3.68,2.16 1.92,0.79999 3.28,0.79999 2.07999,0 3.91999,-1.27999 1.92,-1.28 1.92,-3.44 0,-2.8 -2.56,-5.11999 -2.56,-2.32 -5.75999,-4.56 -3.12,-2.23999 -5.75999,-5.03999 -2.56,-2.88 -2.56,-6.55999 0,-4.16 2.4,-7.67999 2.39999,-3.6 6.23999,-6.24 3.83999,-2.71999 8.15999,-4.15999 4.39999,-1.52 8.31999,-1.52 2.79999,0 5.19999,0.96 2.4,0.88 3.84,2.96 1.43999,2.07999 1.43999,5.59999 0,0.56 -0.08,1.12 0,0.56 -0.08,1.12 -0.08,0.56 -0.24,1.19999 -0.08,0.56 -0.15999,1.2 l -11.59999,3.36 q 0.16,-0.64 0.24,-1.28 0.16,-0.64 0.16,-1.28 0,-2.39999 -0.88,-3.43999 -0.8,-1.12 -2.16,-1.12 -0.72,0 -2.07999,0.8 -1.36,0.72 -2.48,2.07999 -1.04,1.28 -1.04,2.88 0,2.64 2.16,4.4 2.23999,1.67999 5.11999,3.43999 1.36,0.8 3.04,2.56 1.67999,1.68 2.87999,4.63999 1.28,2.88 1.28,7.43999 0,5.92 -2.95999,10.39999 -2.88,4.47999 -7.83999,7.03999 -4.96,2.48 -10.95999,2.48 z"
           style="font-family:Bangers;-inkscape-font-specification:'Bangers Bold';fill:url(#linearGradient58823)"
           id="path58104" /></g><g
         aria-label="RUSTLS"
         id="text54263"
         style="font-weight:bold;font-size:79.9999px;line-height:18px;font-family:'Atkinson Hyperlegible';-inkscape-font-specification:'Atkinson Hyperlegible Bold';letter-spacing:1.32292px;display:inline;opacity:0.274125;fill:url(#linearGradient55723);fill-rule:evenodd;stroke-width:15;stroke-linecap:round;stroke-miterlimit:2.2;paint-order:stroke markers fill;stop-color:#000000"
         inkscape:label="highlight"><path
           d="m 20.510284,214.68481 4.159995,-20.79997 q 0.959999,-5.75999 2.079998,-11.83999 1.119998,-6.07999 2.079997,-11.99998 1.039999,-5.91999 1.599998,-11.11999 4.559994,-1.44 9.839988,-2.08 5.279993,-0.71999 10.479987,-0.71999 6.079992,0 8.23999,2.63999 2.239997,2.64 2.239997,7.11999 0,4.08 -1.919998,8.23999 -1.919997,4.08 -5.039994,7.43999 -3.039996,3.28 -6.719991,5.2 1.439998,3.19999 3.039996,7.03999 1.679998,3.75999 3.119996,7.19999 0.799999,2 1.599998,3.99999 0.879999,2 1.679998,4 l -12.399985,4.31999 q -0.799999,-2.79999 -1.519998,-5.35999 -0.719999,-2.56 -1.359998,-5.03999 -0.799999,-2.96 -1.519998,-5.68 -0.719999,-2.79999 -1.279998,-4.95999 -0.48,-2.16 -0.56,-3.04 l -1.039998,0.32 q -0.48,2.56 -1.199999,6.24 -0.639999,3.67999 -1.199999,7.11999 l -1.439998,8.39999 z m 18.799977,-34.71995 q 1.439998,-0.16 3.519996,-1.2 2.159997,-1.12 4.239994,-2.72 2.159998,-1.6 3.599996,-3.28 1.439998,-1.67999 1.439998,-2.95999 0,-1.6 -1.919997,-2.08 -1.839998,-0.56 -4.879994,-0.56 h -1.759998 q -0.48,0.08 -0.879999,0.08 -0.4,0 -0.799999,0 z"
           style="font-family:Bangers;-inkscape-font-specification:'Bangers Bold';fill:url(#linearGradient58825)"
           id="path58107" /><path
           d="m 70.233164,216.04481 q -2.399997,0 -4.879994,-1.04 -2.479997,-1.04 -4.159995,-3.19999 -1.679998,-2.16 -1.679998,-5.52 v -0.64 q 0,-0.4 0.08,-0.64 0.24,-2.07999 0.639999,-5.43999 0.48,-3.35999 1.119999,-7.27999 0.639999,-3.99999 1.279998,-7.91999 0.719999,-3.92 1.279999,-7.11999 1.199998,-6.39999 1.919997,-10.31999 0.719999,-3.91999 1.119999,-5.99999 0.479999,-2.16 0.719999,-3.2 l 13.199984,-1.28 q -1.039999,4.88 -1.999998,9.27999 -0.879999,4.32 -1.679998,8.23999 l -3.679995,17.67998 q -0.48,2 -0.719999,3.36 -0.32,1.28 -0.719999,3.27999 -0.32,1.92 -0.32,3.52 0,1.28 0.639999,2.16 0.639999,0.79999 1.599998,0.79999 1.359999,0 2.239997,-1.03999 0.879999,-1.04 1.439999,-2.56 0.559999,-1.52 0.879999,-3.04 0.319999,-1.59999 0.559999,-2.55999 0.799999,-3.68 1.439998,-7.11999 0.719999,-3.52 1.439998,-7.44 0.799999,-3.91999 1.759998,-9.03998 0.639999,-3.52 1.279999,-7.12 0.719999,-3.67999 1.359998,-7.43999 l 12.159985,-0.8 -2.799997,15.43999 q -0.559999,2.95999 -1.279998,6.63999 -0.639999,3.67999 -1.439998,7.43999 -0.799999,3.75999 -1.519999,7.11999 -0.639999,3.35999 -1.199998,5.75999 -1.599998,6.55999 -4.959994,10.31999 -3.359996,3.67999 -7.439991,5.19999 -3.999995,1.52 -7.67999,1.52 z"
           style="font-family:Bangers;-inkscape-font-specification:'Bangers Bold';fill:url(#linearGradient58827)"
           id="path58109" /><path
           d="m 105.55609,214.76481 q -3.2,0 -6.399993,-1.68 -3.199996,-1.75999 -6.159992,-5.51999 l 5.919993,-11.59998 q 0.879998,1.51999 2.559992,2.87999 1.76,1.36 3.68,2.16 1.92,0.8 3.28,0.8 2.07999,0 3.91999,-1.28 1.92,-1.28 1.92,-3.44 0,-2.79999 -2.56,-5.11999 -2.56,-2.32 -5.75999,-4.55999 -3.12,-2.24 -5.75999,-5.04 -2.560001,-2.87999 -2.560001,-6.55999 0,-4.15999 2.400001,-7.67999 2.39999,-3.6 6.23999,-6.23999 3.83999,-2.72 8.15999,-4.16 4.39999,-1.51999 8.31999,-1.51999 2.79999,0 5.19999,0.95999 2.4,0.88 3.84,2.96 1.43999,2.08 1.43999,5.59999 0,0.56 -0.08,1.12 0,0.56 -0.08,1.12 -0.08,0.56 -0.24,1.2 -0.08,0.56 -0.16,1.2 l -11.59999,3.35999 q 0.16,-0.64 0.24,-1.28 0.16,-0.63999 0.16,-1.27999 0,-2.4 -0.88,-3.44 -0.8,-1.12 -2.16,-1.12 -0.72,0 -2.07999,0.8 -1.36,0.72 -2.48,2.08 -1.04,1.28 -1.04,2.87999 0,2.64 2.16,4.4 2.23999,1.68 5.11999,3.44 1.36,0.79999 3.04,2.55999 1.68,1.68 2.87999,4.64 1.28,2.87999 1.28,7.43999 0,5.91999 -2.95999,10.39998 -2.88,4.48 -7.83999,7.04 -4.96,2.47999 -10.95999,2.47999 z"
           style="font-family:Bangers;-inkscape-font-specification:'Bangers Bold';fill:url(#linearGradient58829)"
           id="path58111" /><path
           d="m 134.799,214.68481 q 0.88,-4.39999 1.76,-8.71999 0.95999,-4.39999 1.75999,-8.63999 3.04,-15.19998 4.96,-29.11996 -0.88,-0.16 -1.84,-0.16 -0.96,-0.08 -1.84,0 -1.92,0.16 -3.75999,-0.48 0.08,-0.64 0.08,-1.36 0,-0.8 0,-1.6 0,-0.87999 0,-1.67999 0,-0.88 0.08,-1.68 0.08,-0.88 0.08,-1.84 0,-1.04 0.08,-2.08 2.07999,0.16 4.15999,0.24 2.08,0.08 4.16,0.08 5.91999,0 11.27998,-0.4 5.43999,-0.4 9.99999,-0.96 l -0.88,4.32 -0.72,3.75999 q -0.4,2.08 -0.72,3.28 -0.88,0.24 -1.76,0.4 -0.87999,0.16 -1.75999,0.24 -0.88,0.08 -1.84,0.24 -0.88,0.16 -1.76,0.32 -1.2,5.91999 -2,10.23999 -0.72,4.31999 -1.35999,8.31999 -0.56,3.91999 -1.36,8.63999 -1.36,8.07999 -2.4,16.39998 z"
           style="font-family:Bangers;-inkscape-font-specification:'Bangers Bold';fill:url(#linearGradient58831)"
           id="path58113" /><path
           d="m 158.84186,214.76481 q 0.88,-6.31999 1.84,-12.71998 1.03999,-6.39999 2.07999,-12.31999 1.12,-5.99999 2.08,-10.79998 1.04,-5.2 2.08,-10.55999 1.04,-5.35999 2.15999,-10.79999 l 13.99999,-1.83999 -4.16,18.07997 q -1.12,4.72 -2.31999,10.15999 -1.12,5.35999 -2.08,10.39999 -0.96,5.03999 -1.52,8.95999 2,-0.16 4.23999,-0.16 2.32,-0.08 4.08,-0.08 0.08,1.83999 0.32,3.91999 0.24,2 0.48,3.52 0.32,1.44 0.32,1.6 -0.32,0 -0.64,0 -0.24,0 -0.56,-0.08 h -1.28 q -3.11999,0 -6.95999,0.32 -3.76,0.24 -7.51999,0.87999 -3.68,0.56 -6.63999,1.52 z"
           style="font-family:Bangers;-inkscape-font-specification:'Bangers Bold';fill:url(#linearGradient58833)"
           id="path58115" /><path
           d="m 196.48474,214.76481 q -3.2,0 -6.39999,-1.68 -3.2,-1.75999 -6.16,-5.51999 l 5.92,-11.59998 q 0.88,1.51999 2.55999,2.87999 1.76,1.36 3.68,2.16 1.92,0.8 3.28,0.8 2.07999,0 3.91999,-1.28 1.92,-1.28 1.92,-3.44 0,-2.79999 -2.56,-5.11999 -2.56,-2.32 -5.75999,-4.55999 -3.12,-2.24 -5.75999,-5.04 -2.56,-2.87999 -2.56,-6.55999 0,-4.15999 2.4,-7.67999 2.39999,-3.6 6.23999,-6.23999 3.83999,-2.72 8.15999,-4.16 4.39999,-1.51999 8.31999,-1.51999 2.79999,0 5.19999,0.95999 2.4,0.88 3.84,2.96 1.43999,2.08 1.43999,5.59999 0,0.56 -0.08,1.12 0,0.56 -0.08,1.12 -0.08,0.56 -0.24,1.2 -0.08,0.56 -0.16,1.2 l -11.59999,3.35999 q 0.16,-0.64 0.24,-1.28 0.16,-0.63999 0.16,-1.27999 0,-2.4 -0.88,-3.44 -0.8,-1.12 -2.16,-1.12 -0.72,0 -2.07999,0.8 -1.36,0.72 -2.48,2.08 -1.04,1.28 -1.04,2.87999 0,2.64 2.16,4.4 2.23999,1.68 5.11999,3.44 1.36,0.79999 3.04,2.55999 1.68,1.68 2.87999,4.64 1.28,2.87999 1.28,7.43999 0,5.91999 -2.95999,10.39998 -2.88,4.48 -7.83999,7.04 -4.96,2.47999 -10.95999,2.47999 z"
           style="font-family:Bangers;-inkscape-font-specification:'Bangers Bold';fill:url(#linearGradient58835)"
           id="path58117" /></g><g
         aria-label="RUSTLS"
         id="text39297"
         style="font-weight:bold;font-size:79.9999px;line-height:18px;font-family:'Atkinson Hyperlegible';-inkscape-font-specification:'Atkinson Hyperlegible Bold';letter-spacing:1.32292px;opacity:0.378129;mix-blend-mode:screen;fill:none;fill-rule:evenodd;stroke:#ffffff;stroke-width:0.5;stroke-linecap:square;stroke-linejoin:round;stroke-miterlimit:2.2;paint-order:stroke markers fill;stop-color:#000000"
         inkscape:label="highlight"><path
           d="m 20.510282,214.88325 4.159995,-20.79997 q 0.959999,-5.75999 2.079998,-11.83999 1.119998,-6.07999 2.079997,-11.99998 1.039999,-5.91999 1.599998,-11.11999 4.559994,-1.44 9.839988,-2.08 5.279993,-0.71999 10.479987,-0.71999 6.079992,0 8.23999,2.63999 2.239997,2.64 2.239997,7.11999 0,4.08 -1.919998,8.23999 -1.919997,4.08 -5.039993,7.43999 -3.039997,3.28 -6.719992,5.2 1.439998,3.19999 3.039996,7.03999 1.679998,3.75999 3.119996,7.19999 0.799999,2 1.599998,4 0.879999,1.99999 1.679998,3.99999 l -12.399984,4.31999 q -0.799999,-2.79999 -1.519999,-5.35999 -0.719999,-2.56 -1.359998,-5.03999 -0.799999,-2.96 -1.519998,-5.68 -0.719999,-2.79999 -1.279998,-4.95999 -0.48,-2.16 -0.56,-3.04 l -1.039998,0.32 q -0.48,2.56 -1.199999,6.24 -0.639999,3.67999 -1.199998,7.11999 l -1.439999,8.39999 z M 39.310259,180.1633 q 1.439998,-0.16 3.519996,-1.2 2.159997,-1.12 4.239994,-2.72 2.159998,-1.6 3.599996,-3.27999 1.439998,-1.68 1.439998,-2.96 0,-1.6 -1.919997,-2.08 -1.839998,-0.56 -4.879994,-0.56 h -1.759998 q -0.48,0.08 -0.879999,0.08 -0.4,0 -0.799999,0 z"
           style="font-family:Bangers;-inkscape-font-specification:'Bangers Bold'"
           id="path58120" /><path
           d="m 70.233162,216.24325 q -2.399997,0 -4.879994,-1.04 -2.479997,-1.04 -4.159995,-3.19999 -1.679998,-2.16 -1.679998,-5.52 v -0.64 q 0,-0.4 0.08,-0.63999 0.24,-2.08 0.639999,-5.44 0.48,-3.35999 1.119999,-7.27999 0.639999,-3.99999 1.279998,-7.91999 0.719999,-3.91999 1.279999,-7.11999 1.199998,-6.39999 1.919997,-10.31999 0.72,-3.91999 1.119999,-5.99999 0.479999,-2.16 0.719999,-3.2 l 13.199984,-1.27999 q -1.039999,4.87999 -1.999998,9.27998 -0.879999,4.32 -1.679998,8.23999 l -3.679995,17.67998 q -0.48,2 -0.719999,3.36 -0.32,1.28 -0.719999,3.27999 -0.32,1.92 -0.32,3.52 0,1.28 0.639999,2.16 0.639999,0.8 1.599998,0.8 1.359999,0 2.239998,-1.04 0.879998,-1.04 1.439998,-2.56 0.559999,-1.52 0.879999,-3.04 0.319999,-1.59999 0.559999,-2.55999 0.799999,-3.68 1.439998,-7.11999 0.719999,-3.52 1.439998,-7.44 0.799999,-3.91999 1.759998,-9.03998 0.639999,-3.52 1.279999,-7.12 0.719999,-3.67999 1.359998,-7.43999 l 12.159985,-0.79999 -2.799997,15.43998 q -0.559999,2.95999 -1.279998,6.63999 -0.639999,3.67999 -1.439998,7.43999 -0.799999,3.75999 -1.519998,7.11999 -0.64,3.36 -1.199999,5.75999 -1.599998,6.55999 -4.959994,10.31999 -3.359996,3.68 -7.439991,5.19999 -3.999995,1.52 -7.67999,1.52 z"
           style="font-family:Bangers;-inkscape-font-specification:'Bangers Bold'"
           id="path58122" /><path
           d="m 105.55609,214.96325 q -3.2,0 -6.399995,-1.67999 -3.199996,-1.76 -6.159992,-5.52 l 5.919993,-11.59998 q 0.879999,1.51999 2.559994,2.87999 1.76,1.36 3.68,2.16 1.92,0.8 3.27999,0.8 2.08,0 3.92,-1.28 1.92,-1.28 1.92,-3.44 0,-2.79999 -2.56,-5.11999 -2.56,-2.32 -5.75999,-4.55999 -3.12,-2.24 -5.76,-5.04 -2.559993,-2.87999 -2.559993,-6.55999 0,-4.15999 2.399993,-7.67999 2.4,-3.59999 6.24,-6.23999 3.83999,-2.72 8.15999,-4.16 4.39999,-1.51999 8.31999,-1.51999 2.79999,0 5.19999,0.95999 2.4,0.88 3.83999,2.96 1.44,2.08 1.44,5.59999 0,0.56 -0.08,1.12 0,0.56 -0.08,1.12 -0.08,0.56 -0.24,1.2 -0.08,0.56 -0.16,1.2 l -11.59998,3.35999 q 0.16,-0.64 0.24,-1.27999 0.16,-0.64 0.16,-1.28 0,-2.4 -0.88,-3.44 -0.8,-1.12 -2.16,-1.12 -0.72,0 -2.08,0.8 -1.35999,0.72 -2.47999,2.08 -1.04,1.28 -1.04,2.88 0,2.63999 2.16,4.39999 2.23999,1.68 5.11999,3.44 1.36,0.79999 3.04,2.55999 1.67999,1.68 2.87999,4.64 1.28,2.87999 1.28,7.43999 0,5.91999 -2.96,10.39998 -2.87999,4.48 -7.83999,7.04 -4.95999,2.47999 -10.95998,2.47999 z"
           style="font-family:Bangers;-inkscape-font-specification:'Bangers Bold'"
           id="path58124" /><path
           d="m 134.799,214.88325 q 0.87999,-4.39999 1.75999,-8.71999 0.96,-4.39999 1.76,-8.63999 3.04,-15.19998 4.96,-29.11996 -0.88,-0.16 -1.84,-0.16 -0.96,-0.08 -1.84,0 -1.92,0.16 -3.76,-0.48 0.08,-0.64 0.08,-1.36 0,-0.8 0,-1.59999 0,-0.88 0,-1.68 0,-0.88 0.08,-1.68 0.08,-0.88 0.08,-1.84 0,-1.04 0.08,-2.08 2.08,0.16 4.16,0.24 2.08,0.08 4.15999,0.08 5.92,0 11.27999,-0.4 5.43999,-0.4 9.99999,-0.95999 l -0.88,4.31999 -0.72,3.76 q -0.4,2.07999 -0.72,3.27999 -0.88,0.24 -1.76,0.4 -0.88,0.16 -1.76,0.24 -0.87999,0.08 -1.83999,0.24 -0.88,0.16 -1.76,0.32 -1.2,5.91999 -2,10.23999 -0.72,4.31999 -1.36,8.31999 -0.56,3.91999 -1.36,8.63999 -1.35999,8.07999 -2.39999,16.39998 z"
           style="font-family:Bangers;-inkscape-font-specification:'Bangers Bold'"
           id="path58126" /><path
           d="m 158.84186,214.96325 q 0.87999,-6.31999 1.83999,-12.71998 1.04,-6.39999 2.08,-12.31999 1.12,-5.99999 2.08,-10.79998 1.04,-5.2 2.08,-10.55999 1.03999,-5.35999 2.15999,-10.79999 l 13.99999,-1.83999 -4.16,18.07997 q -1.12,4.72 -2.32,10.15999 -1.11999,5.35999 -2.07999,10.39999 -0.96,5.03999 -1.52,8.95999 2,-0.16 4.23999,-0.16 2.32,-0.08 4.08,-0.08 0.08,1.84 0.32,3.91999 0.24,2 0.48,3.52 0.32,1.44 0.32,1.6 -0.32,0 -0.64,0 -0.24,0 -0.56,-0.08 h -1.28 q -3.12,0 -6.95999,0.32 -3.76,0.24 -7.51999,0.87999 -3.68,0.56 -6.63999,1.52 z"
           style="font-family:Bangers;-inkscape-font-specification:'Bangers Bold'"
           id="path58128" /><path
           d="m 196.48474,214.96325 q -3.2,0 -6.39999,-1.67999 -3.2,-1.76 -6.16,-5.52 l 5.92,-11.59998 q 0.87999,1.51999 2.55999,2.87999 1.76,1.36 3.68,2.16 1.92,0.8 3.27999,0.8 2.08,0 3.92,-1.28 1.92,-1.28 1.92,-3.44 0,-2.79999 -2.56,-5.11999 -2.56,-2.32 -5.75999,-4.55999 -3.12,-2.24 -5.76,-5.04 -2.55999,-2.87999 -2.55999,-6.55999 0,-4.15999 2.39999,-7.67999 2.4,-3.59999 6.24,-6.23999 3.83999,-2.72 8.15999,-4.16 4.39999,-1.51999 8.31999,-1.51999 2.79999,0 5.19999,0.95999 2.4,0.88 3.83999,2.96 1.44,2.08 1.44,5.59999 0,0.56 -0.08,1.12 0,0.56 -0.08,1.12 -0.08,0.56 -0.24,1.2 -0.08,0.56 -0.16,1.2 l -11.59998,3.35999 q 0.16,-0.64 0.24,-1.27999 0.16,-0.64 0.16,-1.28 0,-2.4 -0.88,-3.44 -0.8,-1.12 -2.16,-1.12 -0.72,0 -2.08,0.8 -1.35999,0.72 -2.47999,2.08 -1.04,1.28 -1.04,2.88 0,2.63999 2.16,4.39999 2.23999,1.68 5.11999,3.44 1.36,0.79999 3.04,2.55999 1.67999,1.68 2.87999,4.64 1.28,2.87999 1.28,7.43999 0,5.91999 -2.96,10.39998 -2.87999,4.48 -7.83999,7.04 -4.95999,2.47999 -10.95998,2.47999 z"
           style="font-family:Bangers;-inkscape-font-specification:'Bangers Bold'"
           id="path58130" /></g></g><g
       id="Layer-1"
       serif:id="Layer 1"
       transform="matrix(0.26458333,0,0,0.26458333,-39.747269,-9.8752113)"
       style="clip-rule:evenodd;fill-rule:evenodd;stroke-linejoin:round;stroke-miterlimit:1.41421">
        <path
   d="m 1009.4,499.159 -12.072,-25.006 c 0.063,-0.947 0.111,-1.898 0.111,-2.853 0,-28.346 -29.478,-54.471 -79.069,-75.389 v 17.393 c -4.836,-1.919 -9.871,-3.787 -15.117,-5.593 v -8.108 c -70.874,-25.56 -176.383,-41.778 -294.241,-41.778 -102.973,0 -196.529,12.38 -265.791,32.554 v 28.246 h -0.002 v -34.188 c -70.96,22.55 -114.954,53.877 -114.954,88.515 0,5.46 1.101,10.838 3.217,16.113 l -7.228,12.867 c 0,0 -5.792,7.512 4.406,23.362 8.994,13.977 54.048,68.685 77.827,97.335 10.214,14.687 17.141,23.734 17.746,22.859 0.955,-1.386 -6.351,-28.961 -26.635,-60.423 -9.466,-16.895 -20.768,-39.283 -27.554,-55.819 18.942,11.99 130.23,68.029 357.232,67.801 231.994,-0.232 335.115,-72.851 346.433,-82.737 -3.955,15.889 -17.468,48.033 -28.245,70.638 -17.706,32.331 -24.12,60.478 -23.296,61.87 0.524,0.878 6.565,-8.441 15.476,-23.543 20.731,-29.543 60.017,-85.939 67.867,-100.305 8.896,-16.285 3.889,-23.811 3.889,-23.811"
   style="fill:#a52b00;fill-rule:nonzero"
   id="path207" />
        <path
   d="m 1079.49,499.02 -79.343,-58.446 c -0.745,-2.6 -1.49,-5.201 -2.26,-7.781 l 26.062,-37.754 c 2.66,-3.84 3.196,-8.832 1.469,-13.211 -1.731,-4.358 -5.515,-7.482 -9.99,-8.247 l -44.066,-7.479 c -1.709,-3.485 -3.498,-6.916 -5.294,-10.319 l 18.515,-42.388 c 1.903,-4.317 1.505,-9.335 -1.022,-13.254 -2.517,-3.937 -6.786,-6.237 -11.338,-6.058 l -44.724,1.625 c -2.315,-3.016 -4.667,-6.003 -7.067,-8.937 l 10.278,-45.432 c 1.042,-4.612 -0.274,-9.443 -3.487,-12.794 -3.195,-3.339 -7.838,-4.722 -12.253,-3.639 l -43.562,10.709 c -2.82,-2.493 -5.688,-4.953 -8.588,-7.365 l 1.567,-46.641 c 0.168,-4.721 -2.033,-9.208 -5.812,-11.829 -3.777,-2.636 -8.57,-3.032 -12.701,-1.074 l -40.638,19.321 c -3.273,-1.878 -6.565,-3.737 -9.892,-5.537 l -7.181,-45.961 c -0.729,-4.656 -3.724,-8.612 -7.919,-10.418 -4.185,-1.817 -8.976,-1.228 -12.648,1.536 l -36.232,27.185 c -3.569,-1.185 -7.153,-2.32 -10.779,-3.407 L 704.968,107.84 c -1.588,-4.443 -5.25,-7.706 -9.716,-8.624 -4.45,-0.909 -9.028,0.632 -12.114,4.08 l -30.499,34.119 c -3.685,-0.423 -7.377,-0.81 -11.076,-1.131 L 618.014,96.608 c -2.384,-4.018 -6.597,-6.464 -11.139,-6.464 -4.529,0 -8.75,2.446 -11.118,6.464 l -23.555,39.676 c -3.701,0.321 -7.408,0.708 -11.088,1.131 l -30.499,-34.119 c -3.09,-3.448 -7.684,-4.989 -12.122,-4.08 -4.46,0.93 -8.128,4.181 -9.707,8.624 l -15.629,43.585 c -3.621,1.087 -7.205,2.23 -10.78,3.407 l -36.22,-27.185 c -3.683,-2.774 -8.478,-3.361 -12.668,-1.536 -4.181,1.806 -7.188,5.762 -7.913,10.418 l -7.186,45.961 c -3.322,1.8 -6.614,3.649 -9.895,5.537 l -40.634,-19.321 c -4.127,-1.966 -8.945,-1.562 -12.704,1.074 -3.773,2.621 -5.98,7.108 -5.81,11.829 l 1.562,46.641 c -2.894,2.412 -5.756,4.872 -8.591,7.365 l -43.554,-10.709 c -4.423,-1.074 -9.062,0.3 -12.265,3.639 -3.221,3.351 -4.526,8.182 -3.491,12.794 l 10.257,45.432 c -2.378,2.945 -4.733,5.921 -7.042,8.937 l -44.724,-1.625 c -4.513,-0.135 -8.821,2.121 -11.343,6.058 -2.527,3.919 -2.91,8.937 -1.029,13.254 l 18.528,42.388 c -1.799,3.403 -3.586,6.834 -5.309,10.319 l -44.063,7.479 c -4.479,0.754 -8.252,3.876 -9.994,8.247 -1.728,4.379 -1.167,9.371 1.474,13.211 l 26.066,37.754 c -0.201,0.667 -0.387,1.339 -0.587,2.008 l -73.696,78.285 c 0,0 -11.296,8.851 5.147,29.654 14.5,18.351 88.951,91.096 128.271,129.205 16.606,19.348 27.984,31.329 29.172,30.293 1.876,-1.645 -7.972,-36.847 -40.682,-78.149 -25.216,-37.056 -57.941,-94.049 -50.267,-100.618 0,0 8.729,-11.081 26.242,-19.057 0.641,0.512 -0.662,-0.507 0,0 0,0 369.595,170.491 712.429,2.884 39.164,-7.025 62.873,13.955 62.873,13.955 8.176,4.74 -12.996,63.344 -30.407,102.137 -23.679,44.05 -27.151,78.422 -25.144,79.614 1.268,0.757 9.883,-12.353 22.172,-33.217 30.324,-42.253 87.646,-122.802 98.138,-142.368 11.895,-22.182 0,-28.399 0,-28.399"
   style="fill:#f74c00;fill-rule:nonzero"
   id="path211" />
        <path
   d="m 917.896,477.145 c 0,0 53.179,-2.466 123.032,-73.462 l 9.898,-21.979 c 0,0 -108.417,-107.848 60.118,-182.291 0,0 -14.755,24.112 -10.426,117.272 0,0 50.815,-17.649 65.714,-99.94 0,0 74.12,97.724 -80.502,189.377 0,0 -72.54,116.289 -174.805,105.15 z"
   style="fill:#f74c00;fill-rule:nonzero"
   id="path215" />
        <path
   d="m 676.997,410.169 c 0,0 36.935,-40.443 73.871,0 0,0 29.022,53.927 0,80.887 0,0 -47.487,37.748 -73.871,0 0,0 -31.658,-29.659 0,-80.887"
   style="fill-rule:nonzero"
   id="path219" />
        
        
        <path
   d="m 579.69644,410.169 c 0,0 -36.935,-40.443 -73.871,0 0,0 -29.022,53.927 0,80.887 0,0 47.487,37.748 73.871,0 0,0 31.658,-29.659 0,-80.887"
   style="fill-rule:nonzero"
   id="path43391" /><path
   d="m 547.99099,424.55497 c 0,11.1607 -7.87362,20.21214 -17.58731,20.21214 -9.70959,0 -17.58567,-9.05144 -17.58567,-20.21214 0,-11.16413 7.87608,-20.21351 17.58567,-20.21351 9.71369,0 17.58731,9.04938 17.58731,20.21351"
   style="fill:#ffffff;fill-rule:nonzero;stroke-width:0.751886"
   id="path231" />
        <path
   d="m 593.317,536.303 80.796,-6.484 c 0,0 -2.738,13.006 -13.279,22.769 0,0 -27.79,30.47 -59.673,-2.533 0,0 -5.217,-5.629 -7.844,-13.752"
   style="fill-rule:nonzero"
   id="path235" />
        <path
   d="m 269.796,461.519 c -0.667,0 -1.321,0.049 -1.973,0.101 -26.234,-5.971 -99.973,-25.185 -119.464,-56.363 0,0 99.227,-112.872 -55.86,-185.019 l 18.057,124.878 c 0,0 -47.809,-31.949 -58.126,-101.346 0,0 -116.423,84.494 51.384,165.474 0,0 15.22,57.187 161.349,102.815 l 0.107,-0.435 c 1.471,0.272 2.977,0.435 4.526,0.435 13.808,0 25.003,-11.312 25.003,-25.271 0,-13.956 -11.195,-25.269 -25.003,-25.269"
   style="fill:#f74c00;fill-rule:nonzero"
   id="path239" />
    <path
   d="m 720.17612,426.73565 c 0,11.1607 -7.87362,20.21214 -17.58731,20.21214 -9.70959,0 -17.58567,-9.05144 -17.58567,-20.21214 0,-11.16413 7.87608,-20.21351 17.58567,-20.21351 9.71369,0 17.58731,9.04938 17.58731,20.21351"
   style="fill:#ffffff;fill-rule:nonzero;stroke-width:0.751886"
   id="path23032" /><path
   style="fill:none;fill-opacity:1;fill-rule:evenodd;stroke:url(#linearGradient23038);stroke-width:11.3386;stroke-linecap:round;stroke-linejoin:miter;stroke-miterlimit:2.2;stroke-dasharray:none;stroke-opacity:1;paint-order:stroke markers fill;stop-color:#000000"
   d="m 724.95801,459.89258 c 2.66139,3.65767 6.07911,8.82852 6.66618,12.15662"
   id="path23036"
   sodipodi:nodetypes="cc" /><path
   style="fill:none;fill-opacity:1;fill-rule:evenodd;stroke:url(#linearGradient12055);stroke-width:11.3386;stroke-linecap:round;stroke-linejoin:miter;stroke-miterlimit:2.2;stroke-dasharray:none;stroke-opacity:1;paint-order:stroke markers fill;stop-color:#000000"
   d="m 554.62162,464.51248 c 2.41383,3.07197 4.65792,7.159 6.49636,11.3528"
   id="path11928"
   sodipodi:nodetypes="cc" /><path
   d="m 1079.49,499.02 -79.343,-58.446 c -0.745,-2.6 -1.49,-5.201 -2.26,-7.781 l 26.062,-37.754 c 2.66,-3.84 3.196,-8.832 1.469,-13.211 -1.731,-4.358 -5.515,-7.482 -9.99,-8.247 l -44.066,-7.479 c -1.709,-3.485 -3.498,-6.916 -5.294,-10.319 l 18.515,-42.388 c 1.903,-4.317 1.505,-9.335 -1.022,-13.254 -2.517,-3.937 -6.786,-6.237 -11.338,-6.058 l -44.724,1.625 c -2.315,-3.016 -4.667,-6.003 -7.067,-8.937 l 10.278,-45.432 c 1.042,-4.612 -0.274,-9.443 -3.487,-12.794 -3.195,-3.339 -7.838,-4.722 -12.253,-3.639 l -43.562,10.709 c -2.82,-2.493 -5.688,-4.953 -8.588,-7.365 l 1.567,-46.641 c 0.168,-4.721 -2.033,-9.208 -5.812,-11.829 -3.777,-2.636 -8.57,-3.032 -12.701,-1.074 l -40.638,19.321 c -3.273,-1.878 -6.565,-3.737 -9.892,-5.537 l -7.181,-45.961 c -0.729,-4.656 -3.724,-8.612 -7.919,-10.418 -4.185,-1.817 -8.976,-1.228 -12.648,1.536 l -36.232,27.185 c -3.569,-1.185 -7.153,-2.32 -10.779,-3.407 L 704.968,107.84 c -1.588,-4.443 -5.25,-7.706 -9.716,-8.624 -4.45,-0.909 -9.028,0.632 -12.114,4.08 l -30.499,34.119 c -3.685,-0.423 -7.377,-0.81 -11.076,-1.131 L 618.014,96.608 c -2.384,-4.018 -6.597,-6.464 -11.139,-6.464 -4.529,0 -8.75,2.446 -11.118,6.464 l -23.555,39.676 c -3.701,0.321 -7.408,0.708 -11.088,1.131 l -30.499,-34.119 c -3.09,-3.448 -7.684,-4.989 -12.122,-4.08 -4.46,0.93 -8.128,4.181 -9.707,8.624 l -15.629,43.585 c -3.621,1.087 -7.205,2.23 -10.78,3.407 l -36.22,-27.185 c -3.683,-2.774 -8.478,-3.361 -12.668,-1.536 -4.181,1.806 -7.188,5.762 -7.913,10.418 l -7.186,45.961 c -3.322,1.8 -6.614,3.649 -9.895,5.537 l -40.634,-19.321 c -4.127,-1.966 -8.945,-1.562 -12.704,1.074 -3.773,2.621 -5.98,7.108 -5.81,11.829 l 1.562,46.641 c -2.894,2.412 -5.756,4.872 -8.591,7.365 l -43.554,-10.709 c -4.423,-1.074 -9.062,0.3 -12.265,3.639 -3.221,3.351 -4.526,8.182 -3.491,12.794 l 10.257,45.432 c -2.378,2.945 -4.733,5.921 -7.042,8.937 l -44.724,-1.625 c -4.513,-0.135 -8.821,2.121 -11.343,6.058 -2.527,3.919 -2.91,8.937 -1.029,13.254 l 18.528,42.388 c -1.799,3.403 -3.586,6.834 -5.309,10.319 l -44.063,7.479 c -4.479,0.754 -8.252,3.876 -9.994,8.247 -1.728,4.379 -1.167,9.371 1.474,13.211 l 26.066,37.754 c -0.201,0.667 -0.387,1.339 -0.587,2.008 l -73.696,78.285 c 0,0 -11.296,8.851 5.147,29.654 14.5,18.351 88.951,91.096 128.271,129.205 16.606,19.348 27.984,31.329 29.172,30.293 1.876,-1.645 -7.972,-36.847 -40.682,-78.149 -25.216,-37.056 -57.941,-94.049 -50.267,-100.618 0,0 8.729,-11.081 26.242,-19.057 0.641,0.512 -0.662,-0.507 0,0 0,0 369.595,170.491 712.429,2.884 39.164,-7.025 62.873,13.955 62.873,13.955 8.176,4.74 -12.996,63.344 -30.407,102.137 -23.679,44.05 -27.151,78.422 -25.144,79.614 1.268,0.757 9.883,-12.353 22.172,-33.217 30.324,-42.253 87.646,-122.802 98.138,-142.368 11.895,-22.182 0,-28.399 0,-28.399"
   style="display:inline;opacity:0.239921;fill:url(#radialGradient53068);fill-opacity:1;fill-rule:nonzero;stroke:none"
   id="path53057" /></g><g
       id="g53907"
       inkscape:label="chain"
       transform="translate(4.7625002,9.5250003)"><rect
         style="opacity:1;fill:none;fill-opacity:1;fill-rule:evenodd;stroke:#edda02;stroke-width:4;stroke-linecap:round;stroke-linejoin:miter;stroke-miterlimit:2.2;stroke-dasharray:none;stroke-opacity:1;paint-order:stroke markers fill;stop-color:#000000"
         id="rect40250"
         width="19.767269"
         height="10"
         x="79.75499"
         y="22.49818"
         rx="5"
         ry="5"
         transform="rotate(54.409521)" /><path
         style="opacity:1;fill:none;fill-opacity:1;fill-rule:evenodd;stroke:#fded0a;stroke-width:4;stroke-linecap:round;stroke-linejoin:miter;stroke-miterlimit:2.2;stroke-dasharray:none;stroke-opacity:1;paint-order:stroke markers fill;stop-color:#000000"
         d="m 18.355598,73.640722 c 8.23608,10.565776 8.23608,10.565776 8.23608,10.565776"
         id="path43395" /><rect
         style="opacity:1;fill:none;fill-opacity:1;fill-rule:evenodd;stroke:#edda02;stroke-width:4;stroke-linecap:round;stroke-linejoin:miter;stroke-miterlimit:2.2;stroke-dasharray:none;stroke-opacity:1;paint-order:stroke markers fill;stop-color:#000000"
         id="rect43505"
         width="19.767269"
         height="10"
         x="99.208931"
         y="36.893112"
         rx="5"
         ry="5"
         transform="rotate(46.361966)" /><path
         style="color:#000000;clip-rule:evenodd;fill:#98989a;fill-rule:evenodd;stroke-linecap:round;stroke-miterlimit:2.2;-inkscape-stroke:none;paint-order:stroke markers fill"
         d="m 43.625,136.16211 c -5.211209,0 -9.275391,4.59171 -9.275391,10 v 11.15625 c 0,5.40829 4.064182,10 9.275391,10 5.211209,0 9.277344,-4.59171 9.277344,-10 v -11.15625 c 0,-5.40829 -4.066135,-10 -9.277344,-10 z m 0,4 c 2.85086,0 5.277344,2.5443 5.277344,6 v 11.15625 c 0,3.4557 -2.426484,6 -5.277344,6 -2.85086,0 -5.275391,-2.5443 -5.275391,-6 v -11.15625 c 0,-3.4557 2.424531,-6 5.275391,-6 z"
         id="rect23146"
         transform="rotate(7.627907,95.313567,616.50826)" /><rect
         style="clip-rule:evenodd;fill:url(#linearGradient32655);fill-opacity:1;fill-rule:evenodd;stroke:#fded0a;stroke-width:11.3386;stroke-linecap:round;stroke-linejoin:miter;stroke-miterlimit:2.2;stroke-dasharray:none;stroke-opacity:1;paint-order:stroke markers fill;stop-color:#000000"
         id="rect23092"
         width="96.391838"
         height="83.246948"
         x="73.480545"
         y="646.13782"
         rx="7.5590553"
         ry="7.5590553"
         transform="matrix(0.26224204,0.03512057,-0.03512057,0.26224204,96.455367,-24.924701)" /><g
         aria-label="10"
         transform="rotate(7.627907,95.313567,616.50826)"
         id="text23360"
         style="font-weight:bold;font-size:20px;line-height:4.5px;font-family:FreeMono;-inkscape-font-specification:'FreeMono Bold';letter-spacing:-1.32292px;fill:#fff781;fill-rule:evenodd;stroke-width:3;stroke-linecap:round;stroke-miterlimit:2.2;paint-order:stroke markers fill;stop-color:#000000"><path
           d="m 34.205582,168.22324 q 0,-0.58 0.34,-0.78 0.34,-0.22 0.98,-0.22 h 2.02 v -8.56 l -1.64,1.16 q -0.3,0.26 -0.82,0.26 -0.34,0 -0.6,-0.22 -0.24,-0.22 -0.24,-0.58 0,-0.32 0.14,-0.52 0.14,-0.22 0.48,-0.46 l 2.7,-1.84 h 1.98 v 10.76 h 2.02 q 1.32,0 1.32,1 0,1 -1.32,1 h -6.04 q -1.32,0 -1.32,-1 z"
           id="path58075" /><path
           d="m 49.22267,156.46324 q 2.12,0 3.22,1.62 1.12,1.62 1.12,3.96 v 1.9 q 0,1.5 -0.46,2.74 -0.44,1.22 -1.46,2.04 -1,0.8 -2.42,0.8 -2.12,0 -3.24,-1.62 -1.1,-1.62 -1.1,-3.96 v -1.9 q 0,-1.5 0.44,-2.72 0.46,-1.24 1.46,-2.04 1.02,-0.82 2.44,-0.82 z m -2.34,5.44 v 2.18 q 0,1.56 0.64,2.5 0.64,0.94 1.7,0.94 1.06,0 1.7,-0.94 0.64,-0.94 0.64,-2.5 v -2.18 q 0,-1.56 -0.64,-2.5 -0.64,-0.94 -1.7,-0.94 -1.06,0 -1.7,0.94 -0.64,0.94 -0.64,2.5 z"
           id="path58077" /></g><path
         style="opacity:1;fill:none;fill-opacity:1;fill-rule:evenodd;stroke:#fded0a;stroke-width:4;stroke-linecap:round;stroke-linejoin:miter;stroke-miterlimit:2.2;stroke-dasharray:none;stroke-opacity:1;paint-order:stroke markers fill;stop-color:#000000"
         d="m 32.599431,92.872882 c 8.23608,10.565778 8.23608,10.565778 8.23608,10.565778"
         id="path43397" /><rect
         style="opacity:1;fill:none;fill-opacity:1;fill-rule:evenodd;stroke:#edda02;stroke-width:4;stroke-linecap:round;stroke-linejoin:miter;stroke-miterlimit:2.2;stroke-dasharray:none;stroke-opacity:1;paint-order:stroke markers fill;stop-color:#000000"
         id="rect43509"
         width="19.767269"
         height="10"
         x="108.61226"
         y="67.774384"
         rx="5"
         ry="5"
         transform="rotate(30.912488)" /><path
         style="opacity:1;fill:none;fill-opacity:1;fill-rule:evenodd;stroke:#fded0a;stroke-width:4;stroke-linecap:round;stroke-linejoin:miter;stroke-miterlimit:2.2;stroke-dasharray:none;stroke-opacity:1;paint-order:stroke markers fill;stop-color:#000000"
         d="m 48.355356,112.02751 c 10.420882,8.41866 10.420882,8.41866 10.420882,8.41866"
         id="path43507" /><path
         style="color:#000000;fill:#edda02;fill-rule:evenodd;stroke-linecap:round;stroke-miterlimit:2.2;-inkscape-stroke:none;paint-order:stroke markers fill"
         d="m 122.73633,89.511719 c -3.8434,0 -7,3.156598 -7,7 0,3.843401 3.1566,7.000001 7,7.000001 h 9.76758 c 3.8434,0 7,-3.1566 7,-7.000001 0,-3.843402 -3.1566,-7 -7,-7 z m 0,4 h 9.76758 c 1.69659,0 3,1.303407 3,3 0,1.696593 -1.30341,3 -3,3 h -9.76758 c -1.69659,0 -3,-1.303407 -3,-3 0,-1.696593 1.30341,-3 3,-3 z"
         id="rect43513"
         transform="rotate(20.059223)" /><path
         style="opacity:1;fill:none;fill-opacity:1;fill-rule:evenodd;stroke:#fded0a;stroke-width:4;stroke-linecap:round;stroke-linejoin:miter;stroke-miterlimit:2.2;stroke-dasharray:none;stroke-opacity:1;paint-order:stroke markers fill;stop-color:#000000"
         d="m 68.911544,126.54883 c 12.20408,5.5253 12.20408,5.5253 12.20408,5.5253"
         id="path43511" /><path
         style="color:#000000;fill:#fded0a;fill-rule:evenodd;stroke-linecap:round;stroke-miterlimit:2.2;-inkscape-stroke:none;paint-order:stroke markers fill"
         d="m 91.910156,134.66992 a 2,2 0 0 0 -2.501953,1.32031 2,2 0 0 0 1.320313,2.5 l 12.800784,3.95313 a 2,2 0 0 0 2.50195,-1.32031 2,2 0 0 0 -1.32227,-2.50196 z"
         id="path43515" /><path
         style="color:#000000;fill:#edda02;fill-rule:evenodd;stroke-linecap:round;stroke-miterlimit:2.2;-inkscape-stroke:none;paint-order:stroke markers fill"
         d="m 68.908203,167.3125 c -3.843402,0 -7,3.1566 -7,7 0,3.8434 3.156598,7 7,7 h 9.767578 c 3.843402,0 7,-3.1566 7,-7 0,-3.8434 -3.156598,-7 -7,-7 z m 0,4 h 9.767578 c 1.696593,0 3,1.30341 3,3 0,1.69659 -1.303407,3 -3,3 h -9.767578 c -1.696593,0 -3,-1.30341 -3,-3 0,-1.69659 1.303407,-3 3,-3 z"
         id="rect43519"
         transform="rotate(-19.879926)" /><path
         style="color:#000000;fill:#fded0a;fill-rule:evenodd;stroke-linecap:round;stroke-miterlimit:2.2;-inkscape-stroke:none;paint-order:stroke markers fill"
         d="m 123.4375,139.01562 -13.375,0.7754 a 2,2 0 0 0 -1.88086,2.11328 2,2 0 0 0 2.11328,1.88086 l 13.37305,-0.77539 a 2,2 0 0 0 1.88086,-2.11329 2,2 0 0 0 -2.11133,-1.88086 z"
         id="path43517" /><rect
         style="opacity:1;fill:none;fill-opacity:1;fill-rule:evenodd;stroke:#edda02;stroke-width:4;stroke-linecap:round;stroke-linejoin:miter;stroke-miterlimit:2.2;stroke-dasharray:none;stroke-opacity:1;paint-order:stroke markers fill;stop-color:#000000"
         id="rect43523"
         width="19.767269"
         height="10"
         x="56.805069"
         y="182.25893"
         rx="5"
         ry="5"
         transform="rotate(-29.750009)" /><path
         style="opacity:1;fill:none;fill-opacity:1;fill-rule:evenodd;stroke:#fded0a;stroke-width:4;stroke-linecap:round;stroke-linejoin:miter;stroke-miterlimit:2.2;stroke-dasharray:none;stroke-opacity:1;paint-order:stroke markers fill;stop-color:#000000"
         d="m 133.6296,137.217 c 12.29302,-5.32448 12.29302,-5.32448 12.29302,-5.32448"
         id="path43521" /><rect
         style="opacity:1;fill:none;fill-opacity:1;fill-rule:evenodd;stroke:#edda02;stroke-width:4;stroke-linecap:round;stroke-linejoin:miter;stroke-miterlimit:2.2;stroke-dasharray:none;stroke-opacity:1;paint-order:stroke markers fill;stop-color:#000000"
         id="rect43527"
         width="19.767269"
         height="10"
         x="57.424091"
         y="190.14417"
         rx="5"
         ry="5"
         transform="rotate(-36.779647)" /><path
         style="opacity:1;fill:none;fill-opacity:1;fill-rule:evenodd;stroke:#fded0a;stroke-width:4;stroke-linecap:round;stroke-linejoin:miter;stroke-miterlimit:2.2;stroke-dasharray:none;stroke-opacity:1;paint-order:stroke markers fill;stop-color:#000000"
         d="m 155.52801,127.10724 c 10.99928,-7.6475 10.99928,-7.6475 10.99928,-7.6475"
         id="path43525" /><rect
         style="opacity:1;fill:none;fill-opacity:1;fill-rule:evenodd;stroke:#edda02;stroke-width:4;stroke-linecap:round;stroke-linejoin:miter;stroke-miterlimit:2.2;stroke-dasharray:none;stroke-opacity:1;paint-order:stroke markers fill;stop-color:#000000"
         id="rect43531"
         width="19.767269"
         height="10"
         x="43.339806"
         y="201.68048"
         rx="5"
         ry="5"
         transform="rotate(-47.704161)" /><path
         style="opacity:1;fill:none;fill-opacity:1;fill-rule:evenodd;stroke:#fded0a;stroke-width:4;stroke-linecap:round;stroke-linejoin:miter;stroke-miterlimit:2.2;stroke-dasharray:none;stroke-opacity:1;paint-order:stroke markers fill;stop-color:#000000"
         d="m 175.15163,112.72097 c 9.85026,-9.0797 9.85026,-9.0797 9.85026,-9.0797"
         id="path43529" /><rect
         style="opacity:1;fill:none;fill-opacity:1;fill-rule:evenodd;stroke:#edda02;stroke-width:4;stroke-linecap:round;stroke-linejoin:miter;stroke-miterlimit:2.2;stroke-dasharray:none;stroke-opacity:1;paint-order:stroke markers fill;stop-color:#000000"
         id="rect43535"
         width="19.767269"
         height="10"
         x="53.315361"
         y="205.81033"
         rx="5"
         ry="5"
         transform="rotate(-51.490756)" /><path
         style="opacity:1;fill:none;fill-opacity:1;fill-rule:evenodd;stroke:#fded0a;stroke-width:4;stroke-linecap:round;stroke-linejoin:miter;stroke-miterlimit:2.2;stroke-dasharray:none;stroke-opacity:1;paint-order:stroke markers fill;stop-color:#000000"
         d="m 192.22683,95.968069 c 8.329,-10.492684 8.329,-10.492684 8.329,-10.492684"
         id="path43533" /><path
         style="opacity:1;fill:none;fill-opacity:1;fill-rule:evenodd;stroke:#fded0a;stroke-width:4;stroke-linecap:round;stroke-linejoin:miter;stroke-miterlimit:2.2;stroke-dasharray:none;stroke-opacity:1;paint-order:stroke markers fill;stop-color:#000000"
         d="m 207.28929,78.755454 c 8.329,-10.492684 8.329,-10.492684 8.329,-10.492684"
         id="path43537" /></g></g></svg>
