<?xml version="1.0" encoding="utf-8" standalone="no"?>
<!DOCTYPE svg PUBLIC "-//W3C//DTD SVG 1.1//EN"
  "http://www.w3.org/Graphics/SVG/1.1/DTD/svg11.dtd">
<svg xmlns:xlink="http://www.w3.org/1999/xlink" width="648pt" height="216pt" viewBox="0 0 648 216" xmlns="http://www.w3.org/2000/svg" version="1.1">
 <metadata>
  <rdf:RDF xmlns:dc="http://purl.org/dc/elements/1.1/" xmlns:cc="http://creativecommons.org/ns#" xmlns:rdf="http://www.w3.org/1999/02/22-rdf-syntax-ns#">
   <cc:Work>
    <dc:type rdf:resource="http://purl.org/dc/dcmitype/StillImage"/>
    <dc:date>2024-12-17T11:20:24.656331</dc:date>
    <dc:format>image/svg+xml</dc:format>
    <dc:creator>
     <cc:Agent>
      <dc:title>Matplotlib v3.6.3, https://matplotlib.org/</dc:title>
     </cc:Agent>
    </dc:creator>
   </cc:Work>
  </rdf:RDF>
 </metadata>
 <defs>
  <style type="text/css">*{stroke-linejoin: round; stroke-linecap: butt}</style>
 </defs>
 <g id="figure_1">
  <g id="patch_1">
   <path d="M 0 216 
L 648 216 
L 648 0 
L 0 0 
z
" style="fill: #ffffff"/>
  </g>
  <g id="axes_1">
   <g id="patch_2">
    <path d="M 168.48 183.6 
L 615.6 183.6 
L 615.6 25.92 
L 168.48 25.92 
z
" style="fill: #ffffff"/>
   </g>
   <g id="PolyCollection_1">
    <path d="M 574.597543 141.309556 
L 574.597543 141.794444 
L 574.606658 141.687604 
L 574.615773 141.575728 
L 574.624888 141.553299 
L 574.634003 141.552022 
L 574.643118 141.552 
L 574.652233 141.552012 
L 574.661348 141.55283 
L 574.670463 141.570047 
L 574.679578 141.674719 
L 574.688693 141.813083 
L 574.697808 141.726685 
L 574.706923 141.60537 
L 574.716038 141.653213 
L 574.725153 141.738813 
L 574.734268 141.733475 
L 574.743384 141.826502 
L 574.752499 142.159935 
L 574.761614 142.608369 
L 574.770729 142.291996 
L 574.779844 141.794556 
L 574.788959 141.704499 
L 574.798074 141.91658 
L 574.807189 142.060613 
L 574.816304 142.131209 
L 574.825419 142.759111 
L 574.834534 142.953662 
L 574.843649 143.543109 
L 574.852764 146.384562 
L 574.861879 148.045335 
L 574.870994 146.749887 
L 574.880109 149.227504 
L 574.889224 157.289592 
L 574.898339 162.576 
L 574.907455 160.479423 
L 574.91657 161.966094 
L 574.925685 162.406853 
L 574.9348 157.137913 
L 574.943915 154.040259 
L 574.95303 151.99419 
L 574.962145 150.028188 
L 574.97126 150.594966 
L 574.980375 152.195114 
L 574.98949 153.043099 
L 574.998605 150.857873 
L 575.00772 149.163933 
L 575.016835 147.939118 
L 575.02595 145.621916 
L 575.035065 145.844235 
L 575.04418 145.754651 
L 575.053295 143.553515 
L 575.06241 142.642664 
L 575.071526 142.455085 
L 575.080641 142.487412 
L 575.089756 142.199809 
L 575.098871 141.948874 
L 575.107986 142.37303 
L 575.117101 142.83988 
L 575.126216 142.623153 
L 575.135331 141.941261 
L 575.144446 141.601653 
L 575.153561 141.554041 
L 575.162676 141.552026 
L 575.171791 141.552 
L 575.180906 141.552 
L 575.190021 141.552001 
L 575.199136 141.552142 
L 575.208251 141.559542 
L 575.217366 141.677408 
L 575.226481 142.205819 
L 575.235597 142.623686 
L 575.244712 142.107449 
L 575.253827 141.644108 
L 575.262942 141.556998 
L 575.272057 141.552092 
L 575.281172 141.552001 
L 575.290287 141.552 
L 575.299402 141.552 
L 575.308517 141.552 
L 575.317632 141.552 
L 575.326747 141.552 
L 575.335862 141.552 
L 575.344977 141.552 
L 575.354092 141.552 
L 575.363207 141.552 
L 575.372322 141.552 
L 575.381437 141.552 
L 575.390552 141.552 
L 575.399668 141.552 
L 575.408783 141.552 
L 575.417898 141.552 
L 575.427013 141.552 
L 575.436128 141.552 
L 575.445243 141.552 
L 575.454358 141.552 
L 575.463473 141.552028 
L 575.472588 141.553653 
L 575.481703 141.582199 
L 575.490818 141.724587 
L 575.499933 141.860565 
L 575.499933 141.243435 
L 575.499933 141.243435 
L 575.490818 141.379413 
L 575.481703 141.521801 
L 575.472588 141.550347 
L 575.463473 141.551972 
L 575.454358 141.552 
L 575.445243 141.552 
L 575.436128 141.552 
L 575.427013 141.552 
L 575.417898 141.552 
L 575.408783 141.552 
L 575.399668 141.552 
L 575.390552 141.552 
L 575.381437 141.552 
L 575.372322 141.552 
L 575.363207 141.552 
L 575.354092 141.552 
L 575.344977 141.552 
L 575.335862 141.552 
L 575.326747 141.552 
L 575.317632 141.552 
L 575.308517 141.552 
L 575.299402 141.552 
L 575.290287 141.552 
L 575.281172 141.551999 
L 575.272057 141.551908 
L 575.262942 141.547002 
L 575.253827 141.459892 
L 575.244712 140.996551 
L 575.235597 140.480314 
L 575.226481 140.898181 
L 575.217366 141.426592 
L 575.208251 141.544458 
L 575.199136 141.551858 
L 575.190021 141.551999 
L 575.180906 141.552 
L 575.171791 141.552 
L 575.162676 141.551974 
L 575.153561 141.549959 
L 575.144446 141.502347 
L 575.135331 141.162739 
L 575.126216 140.480847 
L 575.117101 140.26412 
L 575.107986 140.73097 
L 575.098871 141.155126 
L 575.089756 140.904191 
L 575.080641 140.616588 
L 575.071526 140.648915 
L 575.06241 140.461336 
L 575.053295 139.550485 
L 575.04418 137.349349 
L 575.035065 137.259765 
L 575.02595 137.482084 
L 575.016835 135.164882 
L 575.00772 133.940067 
L 574.998605 132.246127 
L 574.98949 130.060901 
L 574.980375 130.908886 
L 574.97126 132.509034 
L 574.962145 133.075812 
L 574.95303 131.10981 
L 574.943915 129.063741 
L 574.9348 125.966087 
L 574.925685 120.697147 
L 574.91657 121.137906 
L 574.907455 122.624577 
L 574.898339 120.528 
L 574.889224 125.814408 
L 574.880109 133.876496 
L 574.870994 136.354113 
L 574.861879 135.058665 
L 574.852764 136.719438 
L 574.843649 139.560891 
L 574.834534 140.150338 
L 574.825419 140.344889 
L 574.816304 140.972791 
L 574.807189 141.043387 
L 574.798074 141.18742 
L 574.788959 141.399501 
L 574.779844 141.309444 
L 574.770729 140.812004 
L 574.761614 140.495631 
L 574.752499 140.944065 
L 574.743384 141.277498 
L 574.734268 141.370525 
L 574.725153 141.365187 
L 574.716038 141.450787 
L 574.706923 141.49863 
L 574.697808 141.377315 
L 574.688693 141.290917 
L 574.679578 141.429281 
L 574.670463 141.533953 
L 574.661348 141.55117 
L 574.652233 141.551988 
L 574.643118 141.552 
L 574.634003 141.551978 
L 574.624888 141.550701 
L 574.615773 141.528272 
L 574.606658 141.416396 
L 574.597543 141.309556 
z
" clip-path="url(#pc065ea170e)" style="fill: #1f77b4; fill-opacity: 0.3"/>
   </g>
   <g id="PolyCollection_2">
    <path d="M 502.907098 99.37442 
L 502.907098 99.63358 
L 502.911639 99.597981 
L 502.91618 99.539855 
L 502.920721 99.511196 
L 502.925261 99.50476 
L 502.929802 99.504042 
L 502.934343 99.504001 
L 502.938884 99.504 
L 502.943425 99.504 
L 502.947965 99.504 
L 502.952506 99.504 
L 502.957047 99.504 
L 502.961588 99.504001 
L 502.966129 99.504025 
L 502.97067 99.504597 
L 502.97521 99.511636 
L 502.979751 99.555365 
L 502.984292 99.685745 
L 502.988833 99.842328 
L 502.993374 99.836343 
L 502.997914 99.686899 
L 503.002455 99.62245 
L 503.006996 99.755598 
L 503.011537 100.034181 
L 503.016078 100.32449 
L 503.020618 100.529772 
L 503.025159 100.689785 
L 503.0297 100.785043 
L 503.034241 100.616914 
L 503.038782 100.221155 
L 503.043322 99.895613 
L 503.047863 99.916229 
L 503.052404 100.365023 
L 503.056945 100.819425 
L 503.061486 100.915382 
L 503.066027 101.351042 
L 503.070567 102.724783 
L 503.075108 103.981614 
L 503.079649 103.870879 
L 503.08419 102.771084 
L 503.088731 102.465754 
L 503.093271 103.460249 
L 503.097812 103.86604 
L 503.102353 102.784138 
L 503.106894 101.481433 
L 503.111435 101.154484 
L 503.115975 102.64849 
L 503.120516 106.18589 
L 503.125057 110.159538 
L 503.129598 112.614539 
L 503.134139 114.071207 
L 503.13868 115.809979 
L 503.14322 116.381557 
L 503.147761 115.652199 
L 503.152302 114.823061 
L 503.156843 113.47145 
L 503.161384 112.681762 
L 503.165924 113.232295 
L 503.170465 113.382883 
L 503.175006 112.924569 
L 503.179547 112.785994 
L 503.184088 112.190502 
L 503.188628 112.760975 
L 503.193169 116.648371 
L 503.19771 120.528 
L 503.202251 120.00094 
L 503.206792 115.986804 
L 503.211333 111.979574 
L 503.215873 109.07108 
L 503.220414 106.279932 
L 503.224955 103.56885 
L 503.229496 102.67306 
L 503.234037 103.467792 
L 503.238577 103.39848 
L 503.243118 101.948125 
L 503.247659 100.647891 
L 503.2522 100.056152 
L 503.256741 100.107644 
L 503.261281 100.585663 
L 503.265822 100.883243 
L 503.270363 100.841132 
L 503.274904 100.735531 
L 503.279445 100.670761 
L 503.283985 100.872661 
L 503.288526 100.978853 
L 503.293067 100.484359 
L 503.297608 99.954216 
L 503.302149 100.104149 
L 503.30669 100.939744 
L 503.31123 101.526871 
L 503.315771 101.029357 
L 503.320312 100.122226 
L 503.324853 99.6403 
L 503.329394 99.520605 
L 503.333934 99.505153 
L 503.338475 99.504348 
L 503.343016 99.506879 
L 503.347557 99.518342 
L 503.352098 99.541593 
L 503.356638 99.555832 
L 503.356638 99.452168 
L 503.356638 99.452168 
L 503.352098 99.466407 
L 503.347557 99.489658 
L 503.343016 99.501121 
L 503.338475 99.503652 
L 503.333934 99.502847 
L 503.329394 99.487395 
L 503.324853 99.3677 
L 503.320312 98.885774 
L 503.315771 97.978643 
L 503.31123 97.481129 
L 503.30669 98.068256 
L 503.302149 98.903851 
L 503.297608 99.053784 
L 503.293067 98.523641 
L 503.288526 98.029147 
L 503.283985 98.135339 
L 503.279445 98.337239 
L 503.274904 98.272469 
L 503.270363 98.166868 
L 503.265822 98.124757 
L 503.261281 98.422337 
L 503.256741 98.900356 
L 503.2522 98.951848 
L 503.247659 98.360109 
L 503.243118 97.059875 
L 503.238577 95.60952 
L 503.234037 95.540208 
L 503.229496 96.33494 
L 503.224955 95.43915 
L 503.220414 92.728068 
L 503.215873 89.93692 
L 503.211333 87.028426 
L 503.206792 83.021196 
L 503.202251 79.00706 
L 503.19771 78.48 
L 503.193169 82.359629 
L 503.188628 86.247025 
L 503.184088 86.817498 
L 503.179547 86.222006 
L 503.175006 86.083431 
L 503.170465 85.625117 
L 503.165924 85.775705 
L 503.161384 86.326238 
L 503.156843 85.53655 
L 503.152302 84.184939 
L 503.147761 83.355801 
L 503.14322 82.626443 
L 503.13868 83.198021 
L 503.134139 84.936793 
L 503.129598 86.393461 
L 503.125057 88.848462 
L 503.120516 92.82211 
L 503.115975 96.35951 
L 503.111435 97.853516 
L 503.106894 97.526567 
L 503.102353 96.223862 
L 503.097812 95.14196 
L 503.093271 95.547751 
L 503.088731 96.542246 
L 503.08419 96.236916 
L 503.079649 95.137121 
L 503.075108 95.026386 
L 503.070567 96.283217 
L 503.066027 97.656958 
L 503.061486 98.092618 
L 503.056945 98.188575 
L 503.052404 98.642977 
L 503.047863 99.091771 
L 503.043322 99.112387 
L 503.038782 98.786845 
L 503.034241 98.391086 
L 503.0297 98.222957 
L 503.025159 98.318215 
L 503.020618 98.478228 
L 503.016078 98.68351 
L 503.011537 98.973819 
L 503.006996 99.252402 
L 503.002455 99.38555 
L 502.997914 99.321101 
L 502.993374 99.171657 
L 502.988833 99.165672 
L 502.984292 99.322255 
L 502.979751 99.452635 
L 502.97521 99.496364 
L 502.97067 99.503403 
L 502.966129 99.503975 
L 502.961588 99.503999 
L 502.957047 99.504 
L 502.952506 99.504 
L 502.947965 99.504 
L 502.943425 99.504 
L 502.938884 99.504 
L 502.934343 99.503999 
L 502.929802 99.503958 
L 502.925261 99.50324 
L 502.920721 99.496804 
L 502.91618 99.468145 
L 502.911639 99.410019 
L 502.907098 99.37442 
z
" clip-path="url(#pc065ea170e)" style="fill: #1f77b4; fill-opacity: 0.3"/>
   </g>
   <g id="PolyCollection_3">
    <path d="M 254.582081 56.288228 
L 254.582081 58.623772 
L 254.584695 58.250031 
L 254.587309 57.705673 
L 254.589922 57.494267 
L 254.592536 57.491093 
L 254.595149 57.712634 
L 254.597763 58.448354 
L 254.600377 59.425509 
L 254.60299 59.551027 
L 254.605604 58.814742 
L 254.608218 58.742959 
L 254.610831 59.907697 
L 254.613445 60.632474 
L 254.616059 59.984967 
L 254.618672 59.66762 
L 254.621286 59.748192 
L 254.623899 58.918477 
L 254.626513 58.185476 
L 254.629127 58.728456 
L 254.63174 59.862556 
L 254.634354 60.223213 
L 254.636968 60.382328 
L 254.639581 61.559575 
L 254.642195 63.09801 
L 254.644809 63.638048 
L 254.647422 62.425158 
L 254.650036 60.958829 
L 254.652649 61.231098 
L 254.655263 62.395353 
L 254.657877 63.194372 
L 254.66049 64.282875 
L 254.663104 66.395952 
L 254.665718 67.929789 
L 254.668331 68.400674 
L 254.670945 71.547087 
L 254.673559 77.597462 
L 254.676172 78.48 
L 254.678786 71.73727 
L 254.681399 65.728525 
L 254.684013 64.265618 
L 254.686627 63.491641 
L 254.68924 62.300489 
L 254.691854 63.535055 
L 254.694468 66.454926 
L 254.697081 67.39738 
L 254.699695 66.374761 
L 254.702309 65.985097 
L 254.704922 67.179024 
L 254.707536 68.511018 
L 254.710149 69.129039 
L 254.712763 67.534631 
L 254.715377 64.701645 
L 254.71799 63.877331 
L 254.720604 64.7831 
L 254.723218 65.91765 
L 254.725831 67.783041 
L 254.728445 68.831912 
L 254.731059 67.171837 
L 254.733672 65.211854 
L 254.736286 63.707808 
L 254.738899 62.093838 
L 254.741513 60.860056 
L 254.744127 59.56532 
L 254.74674 58.406372 
L 254.749354 57.855762 
L 254.751968 57.907671 
L 254.754581 58.119006 
L 254.757195 57.961188 
L 254.759809 57.635392 
L 254.762422 57.486662 
L 254.765036 57.477005 
L 254.767649 57.591008 
L 254.770263 57.904481 
L 254.772877 58.145185 
L 254.77549 57.945651 
L 254.778104 57.61684 
L 254.780718 57.480426 
L 254.783331 57.457715 
L 254.785945 57.456056 
L 254.788559 57.456001 
L 254.791172 57.456 
L 254.793786 57.456 
L 254.796399 57.456 
L 254.799013 57.456 
L 254.801627 57.456 
L 254.80424 57.456 
L 254.806854 57.456 
L 254.809468 57.456 
L 254.812081 57.456 
L 254.814695 57.456001 
L 254.817309 57.456032 
L 254.819922 57.456647 
L 254.822536 57.461971 
L 254.825149 57.481463 
L 254.827763 57.506207 
L 254.830377 57.501821 
L 254.83299 57.476113 
L 254.835604 57.465431 
L 254.838218 57.474385 
L 254.840831 57.482554 
L 254.840831 57.429446 
L 254.840831 57.429446 
L 254.838218 57.437615 
L 254.835604 57.446569 
L 254.83299 57.435887 
L 254.830377 57.410179 
L 254.827763 57.405793 
L 254.825149 57.430537 
L 254.822536 57.450029 
L 254.819922 57.455353 
L 254.817309 57.455968 
L 254.814695 57.455999 
L 254.812081 57.456 
L 254.809468 57.456 
L 254.806854 57.456 
L 254.80424 57.456 
L 254.801627 57.456 
L 254.799013 57.456 
L 254.796399 57.456 
L 254.793786 57.456 
L 254.791172 57.456 
L 254.788559 57.455999 
L 254.785945 57.455944 
L 254.783331 57.454285 
L 254.780718 57.431574 
L 254.778104 57.29516 
L 254.77549 56.966349 
L 254.772877 56.766815 
L 254.770263 57.007519 
L 254.767649 57.320992 
L 254.765036 57.434995 
L 254.762422 57.425338 
L 254.759809 57.276608 
L 254.757195 56.950812 
L 254.754581 56.792994 
L 254.751968 57.004329 
L 254.749354 57.056238 
L 254.74674 56.505628 
L 254.744127 55.34668 
L 254.741513 54.051944 
L 254.738899 52.818162 
L 254.736286 51.204192 
L 254.733672 49.700146 
L 254.731059 47.740163 
L 254.728445 46.080088 
L 254.725831 47.128959 
L 254.723218 48.99435 
L 254.720604 50.1289 
L 254.71799 51.034669 
L 254.715377 50.210355 
L 254.712763 47.377369 
L 254.710149 45.782961 
L 254.707536 46.400982 
L 254.704922 47.732976 
L 254.702309 48.926903 
L 254.699695 48.537239 
L 254.697081 47.51462 
L 254.694468 48.457074 
L 254.691854 51.376945 
L 254.68924 52.611511 
L 254.686627 51.420359 
L 254.684013 50.646382 
L 254.681399 49.183475 
L 254.678786 43.17473 
L 254.676172 36.432 
L 254.673559 37.314538 
L 254.670945 43.364913 
L 254.668331 46.511326 
L 254.665718 46.982211 
L 254.663104 48.516048 
L 254.66049 50.629125 
L 254.657877 51.717628 
L 254.655263 52.516647 
L 254.652649 53.680902 
L 254.650036 53.953171 
L 254.647422 52.486842 
L 254.644809 51.273952 
L 254.642195 51.81399 
L 254.639581 53.352425 
L 254.636968 54.529672 
L 254.634354 54.688787 
L 254.63174 55.049444 
L 254.629127 56.183544 
L 254.626513 56.726524 
L 254.623899 55.993523 
L 254.621286 55.163808 
L 254.618672 55.24438 
L 254.616059 54.927033 
L 254.613445 54.279526 
L 254.610831 55.004303 
L 254.608218 56.169041 
L 254.605604 56.097258 
L 254.60299 55.360973 
L 254.600377 55.486491 
L 254.597763 56.463646 
L 254.595149 57.199366 
L 254.592536 57.420907 
L 254.589922 57.417733 
L 254.587309 57.206327 
L 254.584695 56.661969 
L 254.582081 56.288228 
z
" clip-path="url(#pc065ea170e)" style="fill: #1f77b4; fill-opacity: 0.3"/>
   </g>
   <g id="matplotlib.axis_1">
    <g id="xtick_1">
     <g id="line2d_1">
      <path d="M 168.48 183.6 
L 168.48 25.92 
" clip-path="url(#pc065ea170e)" style="fill: none; stroke: #b0b0b0; stroke-width: 0.1; stroke-linecap: square"/>
     </g>
     <g id="line2d_2">
      <defs>
       <path id="m69376c600d" d="M 0 0 
L 0 3.5 
" style="stroke: #000000; stroke-width: 0.8"/>
      </defs>
      <g>
       <use xlink:href="#m69376c600d" x="168.48" y="183.6" style="stroke: #000000; stroke-width: 0.8"/>
      </g>
     </g>
     <g id="text_1">
      <text style="font: 8px 'Arial', 'DejaVu Sans', sans-serif; text-anchor: middle" x="168.48" y="196.67875" transform="rotate(-0 168.48 196.67875)">0</text>
     </g>
    </g>
    <g id="xtick_2">
     <g id="line2d_3">
      <path d="M 209.88 183.6 
L 209.88 25.92 
" clip-path="url(#pc065ea170e)" style="fill: none; stroke: #b0b0b0; stroke-width: 0.1; stroke-linecap: square"/>
     </g>
     <g id="line2d_4">
      <g>
       <use xlink:href="#m69376c600d" x="209.88" y="183.6" style="stroke: #000000; stroke-width: 0.8"/>
      </g>
     </g>
     <g id="text_2">
      <text style="font: 8px 'Arial', 'DejaVu Sans', sans-serif; text-anchor: middle" x="209.88" y="196.67875" transform="rotate(-0 209.88 196.67875)">10</text>
     </g>
    </g>
    <g id="xtick_3">
     <g id="line2d_5">
      <path d="M 251.28 183.6 
L 251.28 25.92 
" clip-path="url(#pc065ea170e)" style="fill: none; stroke: #b0b0b0; stroke-width: 0.1; stroke-linecap: square"/>
     </g>
     <g id="line2d_6">
      <g>
       <use xlink:href="#m69376c600d" x="251.28" y="183.6" style="stroke: #000000; stroke-width: 0.8"/>
      </g>
     </g>
     <g id="text_3">
      <text style="font: 8px 'Arial', 'DejaVu Sans', sans-serif; text-anchor: middle" x="251.28" y="196.67875" transform="rotate(-0 251.28 196.67875)">20</text>
     </g>
    </g>
    <g id="xtick_4">
     <g id="line2d_7">
      <path d="M 292.68 183.6 
L 292.68 25.92 
" clip-path="url(#pc065ea170e)" style="fill: none; stroke: #b0b0b0; stroke-width: 0.1; stroke-linecap: square"/>
     </g>
     <g id="line2d_8">
      <g>
       <use xlink:href="#m69376c600d" x="292.68" y="183.6" style="stroke: #000000; stroke-width: 0.8"/>
      </g>
     </g>
     <g id="text_4">
      <text style="font: 8px 'Arial', 'DejaVu Sans', sans-serif; text-anchor: middle" x="292.68" y="196.67875" transform="rotate(-0 292.68 196.67875)">30</text>
     </g>
    </g>
    <g id="xtick_5">
     <g id="line2d_9">
      <path d="M 334.08 183.6 
L 334.08 25.92 
" clip-path="url(#pc065ea170e)" style="fill: none; stroke: #b0b0b0; stroke-width: 0.1; stroke-linecap: square"/>
     </g>
     <g id="line2d_10">
      <g>
       <use xlink:href="#m69376c600d" x="334.08" y="183.6" style="stroke: #000000; stroke-width: 0.8"/>
      </g>
     </g>
     <g id="text_5">
      <text style="font: 8px 'Arial', 'DejaVu Sans', sans-serif; text-anchor: middle" x="334.08" y="196.67875" transform="rotate(-0 334.08 196.67875)">40</text>
     </g>
    </g>
    <g id="xtick_6">
     <g id="line2d_11">
      <path d="M 375.48 183.6 
L 375.48 25.92 
" clip-path="url(#pc065ea170e)" style="fill: none; stroke: #b0b0b0; stroke-width: 0.1; stroke-linecap: square"/>
     </g>
     <g id="line2d_12">
      <g>
       <use xlink:href="#m69376c600d" x="375.48" y="183.6" style="stroke: #000000; stroke-width: 0.8"/>
      </g>
     </g>
     <g id="text_6">
      <text style="font: 8px 'Arial', 'DejaVu Sans', sans-serif; text-anchor: middle" x="375.48" y="196.67875" transform="rotate(-0 375.48 196.67875)">50</text>
     </g>
    </g>
    <g id="xtick_7">
     <g id="line2d_13">
      <path d="M 416.88 183.6 
L 416.88 25.92 
" clip-path="url(#pc065ea170e)" style="fill: none; stroke: #b0b0b0; stroke-width: 0.1; stroke-linecap: square"/>
     </g>
     <g id="line2d_14">
      <g>
       <use xlink:href="#m69376c600d" x="416.88" y="183.6" style="stroke: #000000; stroke-width: 0.8"/>
      </g>
     </g>
     <g id="text_7">
      <text style="font: 8px 'Arial', 'DejaVu Sans', sans-serif; text-anchor: middle" x="416.88" y="196.67875" transform="rotate(-0 416.88 196.67875)">60</text>
     </g>
    </g>
    <g id="xtick_8">
     <g id="line2d_15">
      <path d="M 458.28 183.6 
L 458.28 25.92 
" clip-path="url(#pc065ea170e)" style="fill: none; stroke: #b0b0b0; stroke-width: 0.1; stroke-linecap: square"/>
     </g>
     <g id="line2d_16">
      <g>
       <use xlink:href="#m69376c600d" x="458.28" y="183.6" style="stroke: #000000; stroke-width: 0.8"/>
      </g>
     </g>
     <g id="text_8">
      <text style="font: 8px 'Arial', 'DejaVu Sans', sans-serif; text-anchor: middle" x="458.28" y="196.67875" transform="rotate(-0 458.28 196.67875)">70</text>
     </g>
    </g>
    <g id="xtick_9">
     <g id="line2d_17">
      <path d="M 499.68 183.6 
L 499.68 25.92 
" clip-path="url(#pc065ea170e)" style="fill: none; stroke: #b0b0b0; stroke-width: 0.1; stroke-linecap: square"/>
     </g>
     <g id="line2d_18">
      <g>
       <use xlink:href="#m69376c600d" x="499.68" y="183.6" style="stroke: #000000; stroke-width: 0.8"/>
      </g>
     </g>
     <g id="text_9">
      <text style="font: 8px 'Arial', 'DejaVu Sans', sans-serif; text-anchor: middle" x="499.68" y="196.67875" transform="rotate(-0 499.68 196.67875)">80</text>
     </g>
    </g>
    <g id="xtick_10">
     <g id="line2d_19">
      <path d="M 541.08 183.6 
L 541.08 25.92 
" clip-path="url(#pc065ea170e)" style="fill: none; stroke: #b0b0b0; stroke-width: 0.1; stroke-linecap: square"/>
     </g>
     <g id="line2d_20">
      <g>
       <use xlink:href="#m69376c600d" x="541.08" y="183.6" style="stroke: #000000; stroke-width: 0.8"/>
      </g>
     </g>
     <g id="text_10">
      <text style="font: 8px 'Arial', 'DejaVu Sans', sans-serif; text-anchor: middle" x="541.08" y="196.67875" transform="rotate(-0 541.08 196.67875)">90</text>
     </g>
    </g>
    <g id="xtick_11">
     <g id="line2d_21">
      <path d="M 582.48 183.6 
L 582.48 25.92 
" clip-path="url(#pc065ea170e)" style="fill: none; stroke: #b0b0b0; stroke-width: 0.1; stroke-linecap: square"/>
     </g>
     <g id="line2d_22">
      <g>
       <use xlink:href="#m69376c600d" x="582.48" y="183.6" style="stroke: #000000; stroke-width: 0.8"/>
      </g>
     </g>
     <g id="text_11">
      <text style="font: 8px 'Arial', 'DejaVu Sans', sans-serif; text-anchor: middle" x="582.48" y="196.67875" transform="rotate(-0 582.48 196.67875)">100</text>
     </g>
    </g>
    <g id="xtick_12">
     <g id="line2d_23">
      <defs>
       <path id="m4a59c8b927" d="M 0 0 
L 0 2 
" style="stroke: #000000; stroke-width: 0.6"/>
      </defs>
      <g>
       <use xlink:href="#m4a59c8b927" x="189.18" y="183.6" style="stroke: #000000; stroke-width: 0.6"/>
      </g>
     </g>
    </g>
    <g id="xtick_13">
     <g id="line2d_24">
      <g>
       <use xlink:href="#m4a59c8b927" x="230.58" y="183.6" style="stroke: #000000; stroke-width: 0.6"/>
      </g>
     </g>
    </g>
    <g id="xtick_14">
     <g id="line2d_25">
      <g>
       <use xlink:href="#m4a59c8b927" x="271.98" y="183.6" style="stroke: #000000; stroke-width: 0.6"/>
      </g>
     </g>
    </g>
    <g id="xtick_15">
     <g id="line2d_26">
      <g>
       <use xlink:href="#m4a59c8b927" x="313.38" y="183.6" style="stroke: #000000; stroke-width: 0.6"/>
      </g>
     </g>
    </g>
    <g id="xtick_16">
     <g id="line2d_27">
      <g>
       <use xlink:href="#m4a59c8b927" x="354.78" y="183.6" style="stroke: #000000; stroke-width: 0.6"/>
      </g>
     </g>
    </g>
    <g id="xtick_17">
     <g id="line2d_28">
      <g>
       <use xlink:href="#m4a59c8b927" x="396.18" y="183.6" style="stroke: #000000; stroke-width: 0.6"/>
      </g>
     </g>
    </g>
    <g id="xtick_18">
     <g id="line2d_29">
      <g>
       <use xlink:href="#m4a59c8b927" x="437.58" y="183.6" style="stroke: #000000; stroke-width: 0.6"/>
      </g>
     </g>
    </g>
    <g id="xtick_19">
     <g id="line2d_30">
      <g>
       <use xlink:href="#m4a59c8b927" x="478.98" y="183.6" style="stroke: #000000; stroke-width: 0.6"/>
      </g>
     </g>
    </g>
    <g id="xtick_20">
     <g id="line2d_31">
      <g>
       <use xlink:href="#m4a59c8b927" x="520.38" y="183.6" style="stroke: #000000; stroke-width: 0.6"/>
      </g>
     </g>
    </g>
    <g id="xtick_21">
     <g id="line2d_32">
      <g>
       <use xlink:href="#m4a59c8b927" x="561.78" y="183.6" style="stroke: #000000; stroke-width: 0.6"/>
      </g>
     </g>
    </g>
    <g id="xtick_22">
     <g id="line2d_33">
      <g>
       <use xlink:href="#m4a59c8b927" x="603.18" y="183.6" style="stroke: #000000; stroke-width: 0.6"/>
      </g>
     </g>
    </g>
    <g id="text_12">
     <text style="font: 8px 'Arial', 'DejaVu Sans', sans-serif; text-anchor: middle" x="392.04" y="208.42125" transform="rotate(-0 392.04 208.42125)">microseconds</text>
    </g>
   </g>
   <g id="matplotlib.axis_2">
    <g id="ytick_1">
     <g id="line2d_34">
      <path d="M 168.48 141.552 
L 615.6 141.552 
" clip-path="url(#pc065ea170e)" style="fill: none; stroke: #b0b0b0; stroke-width: 0.1; stroke-linecap: square"/>
     </g>
     <g id="line2d_35">
      <defs>
       <path id="ma0ec08ad91" d="M 0 0 
L -3.5 0 
" style="stroke: #000000; stroke-width: 0.8"/>
      </defs>
      <g>
       <use xlink:href="#ma0ec08ad91" x="168.48" y="141.552" style="stroke: #000000; stroke-width: 0.8"/>
      </g>
     </g>
     <g id="text_13">
      <text style="font: 8px 'Arial', 'DejaVu Sans', sans-serif; text-anchor: end" x="161.48" y="144.591375" transform="rotate(-0 161.48 144.591375)">X25519MLKEM768, X25519</text>
     </g>
    </g>
    <g id="ytick_2">
     <g id="line2d_36">
      <path d="M 168.48 99.504 
L 615.6 99.504 
" clip-path="url(#pc065ea170e)" style="fill: none; stroke: #b0b0b0; stroke-width: 0.1; stroke-linecap: square"/>
     </g>
     <g id="line2d_37">
      <g>
       <use xlink:href="#ma0ec08ad91" x="168.48" y="99.504" style="stroke: #000000; stroke-width: 0.8"/>
      </g>
     </g>
     <g id="text_14">
      <text style="font: 8px 'Arial', 'DejaVu Sans', sans-serif; text-anchor: end" x="161.48" y="102.543375" transform="rotate(-0 161.48 102.543375)">X25519MLKEM768, X25519 optimized</text>
     </g>
    </g>
    <g id="ytick_3">
     <g id="line2d_38">
      <path d="M 168.48 57.456 
L 615.6 57.456 
" clip-path="url(#pc065ea170e)" style="fill: none; stroke: #b0b0b0; stroke-width: 0.1; stroke-linecap: square"/>
     </g>
     <g id="line2d_39">
      <g>
       <use xlink:href="#ma0ec08ad91" x="168.48" y="57.456" style="stroke: #000000; stroke-width: 0.8"/>
      </g>
     </g>
     <g id="text_15">
      <text style="font: 8px 'Arial', 'DejaVu Sans', sans-serif; text-anchor: end" x="161.48" y="60.495375" transform="rotate(-0 161.48 60.495375)">X25519 alone</text>
     </g>
    </g>
   </g>
   <g id="LineCollection_1">
    <path d="M 574.926711 152.064 
L 574.926711 131.04 
" clip-path="url(#pc065ea170e)" style="fill: none; stroke: #1f77b4; stroke-width: 1.5"/>
    <path d="M 503.169597 110.016 
L 503.169597 88.992 
" clip-path="url(#pc065ea170e)" style="fill: none; stroke: #1f77b4; stroke-width: 1.5"/>
    <path d="M 254.684628 67.968 
L 254.684628 46.944 
" clip-path="url(#pc065ea170e)" style="fill: none; stroke: #1f77b4; stroke-width: 1.5"/>
   </g>
   <g id="patch_3">
    <path d="M 168.48 183.6 
L 168.48 25.92 
" style="fill: none; stroke: #000000; stroke-width: 0.8; stroke-linejoin: miter; stroke-linecap: square"/>
   </g>
   <g id="patch_4">
    <path d="M 615.6 183.6 
L 615.6 25.92 
" style="fill: none; stroke: #000000; stroke-width: 0.8; stroke-linejoin: miter; stroke-linecap: square"/>
   </g>
   <g id="patch_5">
    <path d="M 168.48 183.6 
L 615.6 183.6 
" style="fill: none; stroke: #000000; stroke-width: 0.8; stroke-linejoin: miter; stroke-linecap: square"/>
   </g>
   <g id="patch_6">
    <path d="M 168.48 25.92 
L 615.6 25.92 
" style="fill: none; stroke: #000000; stroke-width: 0.8; stroke-linejoin: miter; stroke-linecap: square"/>
   </g>
  </g>
  <g id="text_16">
   <text style="font: 9.6px 'Arial', 'DejaVu Sans', sans-serif; text-anchor: middle" x="324" y="11.6145" transform="rotate(-0 324 11.6145)">Micro benchmark of ClientHello production (arm64)</text>
  </g>
 </g>
 <defs>
  <clipPath id="pc065ea170e">
   <rect x="168.48" y="25.92" width="447.12" height="157.68"/>
  </clipPath>
 </defs>
</svg>
