<?xml version="1.0" encoding="utf-8" standalone="no"?>
<!DOCTYPE svg PUBLIC "-//W3C//DTD SVG 1.1//EN"
  "http://www.w3.org/Graphics/SVG/1.1/DTD/svg11.dtd">
<svg xmlns:xlink="http://www.w3.org/1999/xlink" width="648pt" height="216pt" viewBox="0 0 648 216" xmlns="http://www.w3.org/2000/svg" version="1.1">
 <metadata>
  <rdf:RDF xmlns:dc="http://purl.org/dc/elements/1.1/" xmlns:cc="http://creativecommons.org/ns#" xmlns:rdf="http://www.w3.org/1999/02/22-rdf-syntax-ns#">
   <cc:Work>
    <dc:type rdf:resource="http://purl.org/dc/dcmitype/StillImage"/>
    <dc:date>2024-12-17T11:20:24.452260</dc:date>
    <dc:format>image/svg+xml</dc:format>
    <dc:creator>
     <cc:Agent>
      <dc:title>Matplotlib v3.6.3, https://matplotlib.org/</dc:title>
     </cc:Agent>
    </dc:creator>
   </cc:Work>
  </rdf:RDF>
 </metadata>
 <defs>
  <style type="text/css">*{stroke-linejoin: round; stroke-linecap: butt}</style>
 </defs>
 <g id="figure_1">
  <g id="patch_1">
   <path d="M 0 216 
L 648 216 
L 648 0 
L 0 0 
z
" style="fill: #ffffff"/>
  </g>
  <g id="axes_1">
   <g id="patch_2">
    <path d="M 168.48 183.6 
L 615.6 183.6 
L 615.6 25.92 
L 168.48 25.92 
z
" style="fill: #ffffff"/>
   </g>
   <g id="PolyCollection_1">
    <path d="M 541.70778 135.012979 
L 541.70778 148.091021 
L 542.000376 152.769286 
L 542.292972 157.782927 
L 542.585567 161.503837 
L 542.878163 162.576 
L 543.170759 160.647733 
L 543.463355 156.457204 
L 543.755951 151.468258 
L 544.048547 147.166224 
L 544.341143 144.322255 
L 544.633739 142.855092 
L 544.926335 142.266736 
L 545.218931 142.065549 
L 545.511527 141.943776 
L 545.804123 141.803732 
L 546.096719 141.675683 
L 546.389315 141.597103 
L 546.68191 141.5641 
L 546.974506 141.554382 
L 547.267102 141.552344 
L 547.559698 141.552036 
L 547.852294 141.552003 
L 548.14489 141.552 
L 548.437486 141.552 
L 548.730082 141.552 
L 549.022678 141.552 
L 549.315274 141.552 
L 549.60787 141.552 
L 549.900466 141.552 
L 550.193062 141.552 
L 550.485657 141.552 
L 550.778253 141.552 
L 551.070849 141.552 
L 551.363445 141.552 
L 551.656041 141.552 
L 551.948637 141.552 
L 552.241233 141.552 
L 552.533829 141.552 
L 552.826425 141.552 
L 553.119021 141.552 
L 553.411617 141.552 
L 553.704213 141.552 
L 553.996809 141.552 
L 554.289405 141.552 
L 554.582 141.552 
L 554.874596 141.552 
L 555.167192 141.552 
L 555.459788 141.552 
L 555.752384 141.552 
L 556.04498 141.552 
L 556.337576 141.552 
L 556.630172 141.552 
L 556.922768 141.552 
L 557.215364 141.552 
L 557.50796 141.552 
L 557.800556 141.552 
L 558.093152 141.552 
L 558.385748 141.552 
L 558.678343 141.552 
L 558.970939 141.552 
L 559.263535 141.552 
L 559.556131 141.552 
L 559.848727 141.552 
L 560.141323 141.552 
L 560.433919 141.552 
L 560.726515 141.552 
L 561.019111 141.552 
L 561.311707 141.552 
L 561.604303 141.552 
L 561.896899 141.552 
L 562.189495 141.552 
L 562.48209 141.552 
L 562.774686 141.552 
L 563.067282 141.552 
L 563.359878 141.552 
L 563.652474 141.552 
L 563.94507 141.552 
L 564.237666 141.552 
L 564.530262 141.552 
L 564.822858 141.552 
L 565.115454 141.552 
L 565.40805 141.552001 
L 565.700646 141.552008 
L 565.993242 141.552097 
L 566.285838 141.552838 
L 566.578433 141.557317 
L 566.871029 141.576721 
L 567.163625 141.63622 
L 567.456221 141.76227 
L 567.748817 141.936718 
L 568.041413 142.067837 
L 568.334009 142.05888 
L 568.626605 141.917229 
L 568.919201 141.746524 
L 569.211797 141.637146 
L 569.504393 141.616318 
L 569.796989 141.684642 
L 570.089585 141.831649 
L 570.382181 141.996778 
L 570.674776 142.071486 
L 570.674776 141.032514 
L 570.674776 141.032514 
L 570.382181 141.107222 
L 570.089585 141.272351 
L 569.796989 141.419358 
L 569.504393 141.487682 
L 569.211797 141.466854 
L 568.919201 141.357476 
L 568.626605 141.186771 
L 568.334009 141.04512 
L 568.041413 141.036163 
L 567.748817 141.167282 
L 567.456221 141.34173 
L 567.163625 141.46778 
L 566.871029 141.527279 
L 566.578433 141.546683 
L 566.285838 141.551162 
L 565.993242 141.551903 
L 565.700646 141.551992 
L 565.40805 141.551999 
L 565.115454 141.552 
L 564.822858 141.552 
L 564.530262 141.552 
L 564.237666 141.552 
L 563.94507 141.552 
L 563.652474 141.552 
L 563.359878 141.552 
L 563.067282 141.552 
L 562.774686 141.552 
L 562.48209 141.552 
L 562.189495 141.552 
L 561.896899 141.552 
L 561.604303 141.552 
L 561.311707 141.552 
L 561.019111 141.552 
L 560.726515 141.552 
L 560.433919 141.552 
L 560.141323 141.552 
L 559.848727 141.552 
L 559.556131 141.552 
L 559.263535 141.552 
L 558.970939 141.552 
L 558.678343 141.552 
L 558.385748 141.552 
L 558.093152 141.552 
L 557.800556 141.552 
L 557.50796 141.552 
L 557.215364 141.552 
L 556.922768 141.552 
L 556.630172 141.552 
L 556.337576 141.552 
L 556.04498 141.552 
L 555.752384 141.552 
L 555.459788 141.552 
L 555.167192 141.552 
L 554.874596 141.552 
L 554.582 141.552 
L 554.289405 141.552 
L 553.996809 141.552 
L 553.704213 141.552 
L 553.411617 141.552 
L 553.119021 141.552 
L 552.826425 141.552 
L 552.533829 141.552 
L 552.241233 141.552 
L 551.948637 141.552 
L 551.656041 141.552 
L 551.363445 141.552 
L 551.070849 141.552 
L 550.778253 141.552 
L 550.485657 141.552 
L 550.193062 141.552 
L 549.900466 141.552 
L 549.60787 141.552 
L 549.315274 141.552 
L 549.022678 141.552 
L 548.730082 141.552 
L 548.437486 141.552 
L 548.14489 141.552 
L 547.852294 141.551997 
L 547.559698 141.551964 
L 547.267102 141.551656 
L 546.974506 141.549618 
L 546.68191 141.5399 
L 546.389315 141.506897 
L 546.096719 141.428317 
L 545.804123 141.300268 
L 545.511527 141.160224 
L 545.218931 141.038451 
L 544.926335 140.837264 
L 544.633739 140.248908 
L 544.341143 138.781745 
L 544.048547 135.937776 
L 543.755951 131.635742 
L 543.463355 126.646796 
L 543.170759 122.456267 
L 542.878163 120.528 
L 542.585567 121.600163 
L 542.292972 125.321073 
L 542.000376 130.334714 
L 541.70778 135.012979 
z
" clip-path="url(#pbbac173122)" style="fill: #1f77b4; fill-opacity: 0.3"/>
   </g>
   <g id="PolyCollection_2">
    <path d="M 497.414343 97.923717 
L 497.414343 101.084283 
L 497.470981 100.581959 
L 497.527619 100.303022 
L 497.584257 100.902811 
L 497.640896 101.15713 
L 497.697534 100.953329 
L 497.754172 101.335287 
L 497.81081 102.686644 
L 497.867448 104.968344 
L 497.924087 103.104863 
L 497.980725 100.54178 
L 498.037363 100.441865 
L 498.094001 102.470435 
L 498.15064 106.119379 
L 498.207278 108.295298 
L 498.263916 111.133207 
L 498.320554 117.009161 
L 498.377192 120.528 
L 498.433831 118.800409 
L 498.490469 116.761356 
L 498.547107 111.91317 
L 498.603745 107.971105 
L 498.660383 107.27854 
L 498.717022 106.655426 
L 498.77366 108.937999 
L 498.830298 110.099694 
L 498.886936 105.351387 
L 498.943575 101.912664 
L 499.000213 100.219783 
L 499.056851 100.295612 
L 499.113489 101.6583 
L 499.170127 101.105242 
L 499.226766 99.812467 
L 499.283404 99.618972 
L 499.340042 99.675395 
L 499.39668 99.571431 
L 499.453318 99.510218 
L 499.509957 99.504134 
L 499.566595 99.504001 
L 499.623233 99.504001 
L 499.679871 99.504124 
L 499.73651 99.507553 
L 499.793148 99.527898 
L 499.849786 99.541653 
L 499.906424 99.517894 
L 499.963062 99.505201 
L 500.019701 99.504024 
L 500.076339 99.504 
L 500.132977 99.504 
L 500.189615 99.504 
L 500.246254 99.504 
L 500.302892 99.504 
L 500.35953 99.504 
L 500.416168 99.504 
L 500.472806 99.504 
L 500.529445 99.504 
L 500.586083 99.504 
L 500.642721 99.504037 
L 500.699359 99.50851 
L 500.755997 99.63167 
L 500.812636 100.350385 
L 500.869274 100.818154 
L 500.925912 99.981886 
L 500.98255 99.544701 
L 501.039189 99.504812 
L 501.095827 99.504004 
L 501.152465 99.504 
L 501.209103 99.504 
L 501.265741 99.504 
L 501.32238 99.504 
L 501.379018 99.504 
L 501.435656 99.504 
L 501.492294 99.504 
L 501.548932 99.504 
L 501.605571 99.504 
L 501.662209 99.504 
L 501.718847 99.504 
L 501.775485 99.504 
L 501.832124 99.504 
L 501.888762 99.504 
L 501.9454 99.504 
L 502.002038 99.504 
L 502.058676 99.504 
L 502.115315 99.504 
L 502.171953 99.504 
L 502.228591 99.504 
L 502.285229 99.504 
L 502.341868 99.504 
L 502.398506 99.504 
L 502.455144 99.504 
L 502.511782 99.504 
L 502.56842 99.504 
L 502.625059 99.504 
L 502.681697 99.504 
L 502.738335 99.504 
L 502.794973 99.504 
L 502.851611 99.504028 
L 502.90825 99.505059 
L 502.964888 99.513345 
L 503.021526 99.523309 
L 503.021526 99.484691 
L 503.021526 99.484691 
L 502.964888 99.494655 
L 502.90825 99.502941 
L 502.851611 99.503972 
L 502.794973 99.504 
L 502.738335 99.504 
L 502.681697 99.504 
L 502.625059 99.504 
L 502.56842 99.504 
L 502.511782 99.504 
L 502.455144 99.504 
L 502.398506 99.504 
L 502.341868 99.504 
L 502.285229 99.504 
L 502.228591 99.504 
L 502.171953 99.504 
L 502.115315 99.504 
L 502.058676 99.504 
L 502.002038 99.504 
L 501.9454 99.504 
L 501.888762 99.504 
L 501.832124 99.504 
L 501.775485 99.504 
L 501.718847 99.504 
L 501.662209 99.504 
L 501.605571 99.504 
L 501.548932 99.504 
L 501.492294 99.504 
L 501.435656 99.504 
L 501.379018 99.504 
L 501.32238 99.504 
L 501.265741 99.504 
L 501.209103 99.504 
L 501.152465 99.504 
L 501.095827 99.503996 
L 501.039189 99.503188 
L 500.98255 99.463299 
L 500.925912 99.026114 
L 500.869274 98.189846 
L 500.812636 98.657615 
L 500.755997 99.37633 
L 500.699359 99.49949 
L 500.642721 99.503963 
L 500.586083 99.504 
L 500.529445 99.504 
L 500.472806 99.504 
L 500.416168 99.504 
L 500.35953 99.504 
L 500.302892 99.504 
L 500.246254 99.504 
L 500.189615 99.504 
L 500.132977 99.504 
L 500.076339 99.504 
L 500.019701 99.503976 
L 499.963062 99.502799 
L 499.906424 99.490106 
L 499.849786 99.466347 
L 499.793148 99.480102 
L 499.73651 99.500447 
L 499.679871 99.503876 
L 499.623233 99.503999 
L 499.566595 99.503999 
L 499.509957 99.503866 
L 499.453318 99.497782 
L 499.39668 99.436569 
L 499.340042 99.332605 
L 499.283404 99.389028 
L 499.226766 99.195533 
L 499.170127 97.902758 
L 499.113489 97.3497 
L 499.056851 98.712388 
L 499.000213 98.788217 
L 498.943575 97.095336 
L 498.886936 93.656613 
L 498.830298 88.908306 
L 498.77366 90.070001 
L 498.717022 92.352574 
L 498.660383 91.72946 
L 498.603745 91.036895 
L 498.547107 87.09483 
L 498.490469 82.246644 
L 498.433831 80.207591 
L 498.377192 78.48 
L 498.320554 81.998839 
L 498.263916 87.874793 
L 498.207278 90.712702 
L 498.15064 92.888621 
L 498.094001 96.537565 
L 498.037363 98.566135 
L 497.980725 98.46622 
L 497.924087 95.903137 
L 497.867448 94.039656 
L 497.81081 96.321356 
L 497.754172 97.672713 
L 497.697534 98.054671 
L 497.640896 97.85087 
L 497.584257 98.105189 
L 497.527619 98.704978 
L 497.470981 98.426041 
L 497.414343 97.923717 
z
" clip-path="url(#pbbac173122)" style="fill: #1f77b4; fill-opacity: 0.3"/>
   </g>
   <g id="PolyCollection_3">
    <path d="M 244.671481 56.910735 
L 244.671481 58.001265 
L 244.678048 58.298213 
L 244.684615 58.734737 
L 244.691182 59.29423 
L 244.697749 59.913779 
L 244.704316 60.578102 
L 244.710883 61.402343 
L 244.71745 62.589835 
L 244.724017 64.295916 
L 244.730584 66.527353 
L 244.737151 69.134871 
L 244.743718 71.863702 
L 244.750285 74.423979 
L 244.756852 76.543503 
L 244.763419 77.968686 
L 244.769986 78.48 
L 244.776553 78.036251 
L 244.78312 76.959332 
L 244.789687 75.88091 
L 244.796254 75.360025 
L 244.802821 75.455816 
L 244.809388 75.658636 
L 244.815955 75.304753 
L 244.822522 74.126988 
L 244.829089 72.403159 
L 244.835656 70.58201 
L 244.842223 68.847061 
L 244.84879 67.079668 
L 244.855357 65.158756 
L 244.861924 63.204301 
L 244.868491 61.538092 
L 244.875057 60.45074 
L 244.881624 59.996823 
L 244.888191 59.973477 
L 244.894758 60.069868 
L 244.901325 60.043456 
L 244.907892 59.802473 
L 244.914459 59.389276 
L 244.921026 58.916321 
L 244.927593 58.496798 
L 244.93416 58.200481 
L 244.940727 58.045392 
L 244.947294 58.006754 
L 244.953861 58.030044 
L 244.960428 58.057173 
L 244.966995 58.059049 
L 244.973562 58.040805 
L 244.980129 58.011618 
L 244.986696 57.961481 
L 244.993263 57.879203 
L 244.99983 57.787469 
L 245.006397 57.750975 
L 245.012964 57.848792 
L 245.019531 58.125125 
L 245.026098 58.533537 
L 245.032665 58.916688 
L 245.039232 59.07886 
L 245.045799 58.925867 
L 245.052366 58.540521 
L 245.058933 58.109803 
L 245.0655 57.787386 
L 245.072066 57.631343 
L 245.078633 57.643342 
L 245.0852 57.824586 
L 245.091767 58.17052 
L 245.098334 58.610719 
L 245.104901 58.979566 
L 245.111468 59.094317 
L 245.118035 58.893769 
L 245.124602 58.490839 
L 245.131169 58.075846 
L 245.137736 57.777522 
L 245.144303 57.613726 
L 245.15087 57.538243 
L 245.157437 57.50348 
L 245.164004 57.487544 
L 245.170571 57.494915 
L 245.177138 57.560381 
L 245.183705 57.766978 
L 245.190272 58.252461 
L 245.196839 59.151301 
L 245.203406 60.452942 
L 245.209973 61.875617 
L 245.21654 62.935041 
L 245.223107 63.247111 
L 245.229674 62.826632 
L 245.236241 62.085842 
L 245.242808 61.523527 
L 245.249375 61.389785 
L 245.255942 61.579486 
L 245.262509 61.761447 
L 245.269075 61.60959 
L 245.275642 61.016771 
L 245.282209 60.183667 
L 245.288776 59.5031 
L 245.295343 59.300733 
L 245.30191 59.616216 
L 245.308477 60.170307 
L 245.315044 60.537721 
L 245.321611 60.421047 
L 245.321611 54.490953 
L 245.321611 54.490953 
L 245.315044 54.374279 
L 245.308477 54.741693 
L 245.30191 55.295784 
L 245.295343 55.611267 
L 245.288776 55.4089 
L 245.282209 54.728333 
L 245.275642 53.895229 
L 245.269075 53.30241 
L 245.262509 53.150553 
L 245.255942 53.332514 
L 245.249375 53.522215 
L 245.242808 53.388473 
L 245.236241 52.826158 
L 245.229674 52.085368 
L 245.223107 51.664889 
L 245.21654 51.976959 
L 245.209973 53.036383 
L 245.203406 54.459058 
L 245.196839 55.760699 
L 245.190272 56.659539 
L 245.183705 57.145022 
L 245.177138 57.351619 
L 245.170571 57.417085 
L 245.164004 57.424456 
L 245.157437 57.40852 
L 245.15087 57.373757 
L 245.144303 57.298274 
L 245.137736 57.134478 
L 245.131169 56.836154 
L 245.124602 56.421161 
L 245.118035 56.018231 
L 245.111468 55.817683 
L 245.104901 55.932434 
L 245.098334 56.301281 
L 245.091767 56.74148 
L 245.0852 57.087414 
L 245.078633 57.268658 
L 245.072066 57.280657 
L 245.0655 57.124614 
L 245.058933 56.802197 
L 245.052366 56.371479 
L 245.045799 55.986133 
L 245.039232 55.83314 
L 245.032665 55.995312 
L 245.026098 56.378463 
L 245.019531 56.786875 
L 245.012964 57.063208 
L 245.006397 57.161025 
L 244.99983 57.124531 
L 244.993263 57.032797 
L 244.986696 56.950519 
L 244.980129 56.900382 
L 244.973562 56.871195 
L 244.966995 56.852951 
L 244.960428 56.854827 
L 244.953861 56.881956 
L 244.947294 56.905246 
L 244.940727 56.866608 
L 244.93416 56.711519 
L 244.927593 56.415202 
L 244.921026 55.995679 
L 244.914459 55.522724 
L 244.907892 55.109527 
L 244.901325 54.868544 
L 244.894758 54.842132 
L 244.888191 54.938523 
L 244.881624 54.915177 
L 244.875057 54.46126 
L 244.868491 53.373908 
L 244.861924 51.707699 
L 244.855357 49.753244 
L 244.84879 47.832332 
L 244.842223 46.064939 
L 244.835656 44.32999 
L 244.829089 42.508841 
L 244.822522 40.785012 
L 244.815955 39.607247 
L 244.809388 39.253364 
L 244.802821 39.456184 
L 244.796254 39.551975 
L 244.789687 39.03109 
L 244.78312 37.952668 
L 244.776553 36.875749 
L 244.769986 36.432 
L 244.763419 36.943314 
L 244.756852 38.368497 
L 244.750285 40.488021 
L 244.743718 43.048298 
L 244.737151 45.777129 
L 244.730584 48.384647 
L 244.724017 50.616084 
L 244.71745 52.322165 
L 244.710883 53.509657 
L 244.704316 54.333898 
L 244.697749 54.998221 
L 244.691182 55.61777 
L 244.684615 56.177263 
L 244.678048 56.613787 
L 244.671481 56.910735 
z
" clip-path="url(#pbbac173122)" style="fill: #1f77b4; fill-opacity: 0.3"/>
   </g>
   <g id="matplotlib.axis_1">
    <g id="xtick_1">
     <g id="line2d_1">
      <path d="M 168.48 183.6 
L 168.48 25.92 
" clip-path="url(#pbbac173122)" style="fill: none; stroke: #b0b0b0; stroke-width: 0.1; stroke-linecap: square"/>
     </g>
     <g id="line2d_2">
      <defs>
       <path id="me1788775a0" d="M 0 0 
L 0 3.5 
" style="stroke: #000000; stroke-width: 0.8"/>
      </defs>
      <g>
       <use xlink:href="#me1788775a0" x="168.48" y="183.6" style="stroke: #000000; stroke-width: 0.8"/>
      </g>
     </g>
     <g id="text_1">
      <text style="font: 8px 'Arial', 'DejaVu Sans', sans-serif; text-anchor: middle" x="168.48" y="196.67875" transform="rotate(-0 168.48 196.67875)">0</text>
     </g>
    </g>
    <g id="xtick_2">
     <g id="line2d_3">
      <path d="M 216.045957 183.6 
L 216.045957 25.92 
" clip-path="url(#pbbac173122)" style="fill: none; stroke: #b0b0b0; stroke-width: 0.1; stroke-linecap: square"/>
     </g>
     <g id="line2d_4">
      <g>
       <use xlink:href="#me1788775a0" x="216.045957" y="183.6" style="stroke: #000000; stroke-width: 0.8"/>
      </g>
     </g>
     <g id="text_2">
      <text style="font: 8px 'Arial', 'DejaVu Sans', sans-serif; text-anchor: middle" x="216.045957" y="196.67875" transform="rotate(-0 216.045957 196.67875)">10</text>
     </g>
    </g>
    <g id="xtick_3">
     <g id="line2d_5">
      <path d="M 263.611915 183.6 
L 263.611915 25.92 
" clip-path="url(#pbbac173122)" style="fill: none; stroke: #b0b0b0; stroke-width: 0.1; stroke-linecap: square"/>
     </g>
     <g id="line2d_6">
      <g>
       <use xlink:href="#me1788775a0" x="263.611915" y="183.6" style="stroke: #000000; stroke-width: 0.8"/>
      </g>
     </g>
     <g id="text_3">
      <text style="font: 8px 'Arial', 'DejaVu Sans', sans-serif; text-anchor: middle" x="263.611915" y="196.67875" transform="rotate(-0 263.611915 196.67875)">20</text>
     </g>
    </g>
    <g id="xtick_4">
     <g id="line2d_7">
      <path d="M 311.177872 183.6 
L 311.177872 25.92 
" clip-path="url(#pbbac173122)" style="fill: none; stroke: #b0b0b0; stroke-width: 0.1; stroke-linecap: square"/>
     </g>
     <g id="line2d_8">
      <g>
       <use xlink:href="#me1788775a0" x="311.177872" y="183.6" style="stroke: #000000; stroke-width: 0.8"/>
      </g>
     </g>
     <g id="text_4">
      <text style="font: 8px 'Arial', 'DejaVu Sans', sans-serif; text-anchor: middle" x="311.177872" y="196.67875" transform="rotate(-0 311.177872 196.67875)">30</text>
     </g>
    </g>
    <g id="xtick_5">
     <g id="line2d_9">
      <path d="M 358.74383 183.6 
L 358.74383 25.92 
" clip-path="url(#pbbac173122)" style="fill: none; stroke: #b0b0b0; stroke-width: 0.1; stroke-linecap: square"/>
     </g>
     <g id="line2d_10">
      <g>
       <use xlink:href="#me1788775a0" x="358.74383" y="183.6" style="stroke: #000000; stroke-width: 0.8"/>
      </g>
     </g>
     <g id="text_5">
      <text style="font: 8px 'Arial', 'DejaVu Sans', sans-serif; text-anchor: middle" x="358.74383" y="196.67875" transform="rotate(-0 358.74383 196.67875)">40</text>
     </g>
    </g>
    <g id="xtick_6">
     <g id="line2d_11">
      <path d="M 406.309787 183.6 
L 406.309787 25.92 
" clip-path="url(#pbbac173122)" style="fill: none; stroke: #b0b0b0; stroke-width: 0.1; stroke-linecap: square"/>
     </g>
     <g id="line2d_12">
      <g>
       <use xlink:href="#me1788775a0" x="406.309787" y="183.6" style="stroke: #000000; stroke-width: 0.8"/>
      </g>
     </g>
     <g id="text_6">
      <text style="font: 8px 'Arial', 'DejaVu Sans', sans-serif; text-anchor: middle" x="406.309787" y="196.67875" transform="rotate(-0 406.309787 196.67875)">50</text>
     </g>
    </g>
    <g id="xtick_7">
     <g id="line2d_13">
      <path d="M 453.875745 183.6 
L 453.875745 25.92 
" clip-path="url(#pbbac173122)" style="fill: none; stroke: #b0b0b0; stroke-width: 0.1; stroke-linecap: square"/>
     </g>
     <g id="line2d_14">
      <g>
       <use xlink:href="#me1788775a0" x="453.875745" y="183.6" style="stroke: #000000; stroke-width: 0.8"/>
      </g>
     </g>
     <g id="text_7">
      <text style="font: 8px 'Arial', 'DejaVu Sans', sans-serif; text-anchor: middle" x="453.875745" y="196.67875" transform="rotate(-0 453.875745 196.67875)">60</text>
     </g>
    </g>
    <g id="xtick_8">
     <g id="line2d_15">
      <path d="M 501.441702 183.6 
L 501.441702 25.92 
" clip-path="url(#pbbac173122)" style="fill: none; stroke: #b0b0b0; stroke-width: 0.1; stroke-linecap: square"/>
     </g>
     <g id="line2d_16">
      <g>
       <use xlink:href="#me1788775a0" x="501.441702" y="183.6" style="stroke: #000000; stroke-width: 0.8"/>
      </g>
     </g>
     <g id="text_8">
      <text style="font: 8px 'Arial', 'DejaVu Sans', sans-serif; text-anchor: middle" x="501.441702" y="196.67875" transform="rotate(-0 501.441702 196.67875)">70</text>
     </g>
    </g>
    <g id="xtick_9">
     <g id="line2d_17">
      <path d="M 549.00766 183.6 
L 549.00766 25.92 
" clip-path="url(#pbbac173122)" style="fill: none; stroke: #b0b0b0; stroke-width: 0.1; stroke-linecap: square"/>
     </g>
     <g id="line2d_18">
      <g>
       <use xlink:href="#me1788775a0" x="549.00766" y="183.6" style="stroke: #000000; stroke-width: 0.8"/>
      </g>
     </g>
     <g id="text_9">
      <text style="font: 8px 'Arial', 'DejaVu Sans', sans-serif; text-anchor: middle" x="549.00766" y="196.67875" transform="rotate(-0 549.00766 196.67875)">80</text>
     </g>
    </g>
    <g id="xtick_10">
     <g id="line2d_19">
      <path d="M 596.573617 183.6 
L 596.573617 25.92 
" clip-path="url(#pbbac173122)" style="fill: none; stroke: #b0b0b0; stroke-width: 0.1; stroke-linecap: square"/>
     </g>
     <g id="line2d_20">
      <g>
       <use xlink:href="#me1788775a0" x="596.573617" y="183.6" style="stroke: #000000; stroke-width: 0.8"/>
      </g>
     </g>
     <g id="text_10">
      <text style="font: 8px 'Arial', 'DejaVu Sans', sans-serif; text-anchor: middle" x="596.573617" y="196.67875" transform="rotate(-0 596.573617 196.67875)">90</text>
     </g>
    </g>
    <g id="xtick_11">
     <g id="line2d_21">
      <defs>
       <path id="m8134a2bb4c" d="M 0 0 
L 0 2 
" style="stroke: #000000; stroke-width: 0.6"/>
      </defs>
      <g>
       <use xlink:href="#m8134a2bb4c" x="192.262979" y="183.6" style="stroke: #000000; stroke-width: 0.6"/>
      </g>
     </g>
    </g>
    <g id="xtick_12">
     <g id="line2d_22">
      <g>
       <use xlink:href="#m8134a2bb4c" x="239.828936" y="183.6" style="stroke: #000000; stroke-width: 0.6"/>
      </g>
     </g>
    </g>
    <g id="xtick_13">
     <g id="line2d_23">
      <g>
       <use xlink:href="#m8134a2bb4c" x="287.394894" y="183.6" style="stroke: #000000; stroke-width: 0.6"/>
      </g>
     </g>
    </g>
    <g id="xtick_14">
     <g id="line2d_24">
      <g>
       <use xlink:href="#m8134a2bb4c" x="334.960851" y="183.6" style="stroke: #000000; stroke-width: 0.6"/>
      </g>
     </g>
    </g>
    <g id="xtick_15">
     <g id="line2d_25">
      <g>
       <use xlink:href="#m8134a2bb4c" x="382.526809" y="183.6" style="stroke: #000000; stroke-width: 0.6"/>
      </g>
     </g>
    </g>
    <g id="xtick_16">
     <g id="line2d_26">
      <g>
       <use xlink:href="#m8134a2bb4c" x="430.092766" y="183.6" style="stroke: #000000; stroke-width: 0.6"/>
      </g>
     </g>
    </g>
    <g id="xtick_17">
     <g id="line2d_27">
      <g>
       <use xlink:href="#m8134a2bb4c" x="477.658723" y="183.6" style="stroke: #000000; stroke-width: 0.6"/>
      </g>
     </g>
    </g>
    <g id="xtick_18">
     <g id="line2d_28">
      <g>
       <use xlink:href="#m8134a2bb4c" x="525.224681" y="183.6" style="stroke: #000000; stroke-width: 0.6"/>
      </g>
     </g>
    </g>
    <g id="xtick_19">
     <g id="line2d_29">
      <g>
       <use xlink:href="#m8134a2bb4c" x="572.790638" y="183.6" style="stroke: #000000; stroke-width: 0.6"/>
      </g>
     </g>
    </g>
    <g id="text_11">
     <text style="font: 8px 'Arial', 'DejaVu Sans', sans-serif; text-anchor: middle" x="392.04" y="208.42125" transform="rotate(-0 392.04 208.42125)">microseconds</text>
    </g>
   </g>
   <g id="matplotlib.axis_2">
    <g id="ytick_1">
     <g id="line2d_30">
      <path d="M 168.48 141.552 
L 615.6 141.552 
" clip-path="url(#pbbac173122)" style="fill: none; stroke: #b0b0b0; stroke-width: 0.1; stroke-linecap: square"/>
     </g>
     <g id="line2d_31">
      <defs>
       <path id="m37923b90f0" d="M 0 0 
L -3.5 0 
" style="stroke: #000000; stroke-width: 0.8"/>
      </defs>
      <g>
       <use xlink:href="#m37923b90f0" x="168.48" y="141.552" style="stroke: #000000; stroke-width: 0.8"/>
      </g>
     </g>
     <g id="text_12">
      <text style="font: 8px 'Arial', 'DejaVu Sans', sans-serif; text-anchor: end" x="161.48" y="144.591375" transform="rotate(-0 161.48 144.591375)">X25519MLKEM768, X25519</text>
     </g>
    </g>
    <g id="ytick_2">
     <g id="line2d_32">
      <path d="M 168.48 99.504 
L 615.6 99.504 
" clip-path="url(#pbbac173122)" style="fill: none; stroke: #b0b0b0; stroke-width: 0.1; stroke-linecap: square"/>
     </g>
     <g id="line2d_33">
      <g>
       <use xlink:href="#m37923b90f0" x="168.48" y="99.504" style="stroke: #000000; stroke-width: 0.8"/>
      </g>
     </g>
     <g id="text_13">
      <text style="font: 8px 'Arial', 'DejaVu Sans', sans-serif; text-anchor: end" x="161.48" y="102.543375" transform="rotate(-0 161.48 102.543375)">X25519MLKEM768, X25519 optimized</text>
     </g>
    </g>
    <g id="ytick_3">
     <g id="line2d_34">
      <path d="M 168.48 57.456 
L 615.6 57.456 
" clip-path="url(#pbbac173122)" style="fill: none; stroke: #b0b0b0; stroke-width: 0.1; stroke-linecap: square"/>
     </g>
     <g id="line2d_35">
      <g>
       <use xlink:href="#m37923b90f0" x="168.48" y="57.456" style="stroke: #000000; stroke-width: 0.8"/>
      </g>
     </g>
     <g id="text_14">
      <text style="font: 8px 'Arial', 'DejaVu Sans', sans-serif; text-anchor: end" x="161.48" y="60.495375" transform="rotate(-0 161.48 60.495375)">X25519 alone</text>
     </g>
    </g>
   </g>
   <g id="LineCollection_1">
    <path d="M 542.829167 152.064 
L 542.829167 131.04 
" clip-path="url(#pbbac173122)" style="fill: none; stroke: #1f77b4; stroke-width: 1.5"/>
    <path d="M 498.419633 110.016 
L 498.419633 88.992 
" clip-path="url(#pbbac173122)" style="fill: none; stroke: #1f77b4; stroke-width: 1.5"/>
    <path d="M 244.809621 67.968 
L 244.809621 46.944 
" clip-path="url(#pbbac173122)" style="fill: none; stroke: #1f77b4; stroke-width: 1.5"/>
   </g>
   <g id="patch_3">
    <path d="M 168.48 183.6 
L 168.48 25.92 
" style="fill: none; stroke: #000000; stroke-width: 0.8; stroke-linejoin: miter; stroke-linecap: square"/>
   </g>
   <g id="patch_4">
    <path d="M 615.6 183.6 
L 615.6 25.92 
" style="fill: none; stroke: #000000; stroke-width: 0.8; stroke-linejoin: miter; stroke-linecap: square"/>
   </g>
   <g id="patch_5">
    <path d="M 168.48 183.6 
L 615.6 183.6 
" style="fill: none; stroke: #000000; stroke-width: 0.8; stroke-linejoin: miter; stroke-linecap: square"/>
   </g>
   <g id="patch_6">
    <path d="M 168.48 25.92 
L 615.6 25.92 
" style="fill: none; stroke: #000000; stroke-width: 0.8; stroke-linejoin: miter; stroke-linecap: square"/>
   </g>
  </g>
  <g id="text_15">
   <text style="font: 9.6px 'Arial', 'DejaVu Sans', sans-serif; text-anchor: middle" x="324" y="11.6145" transform="rotate(-0 324 11.6145)">Micro benchmark of ClientHello production (amd64)</text>
  </g>
 </g>
 <defs>
  <clipPath id="pbbac173122">
   <rect x="168.48" y="25.92" width="447.12" height="157.68"/>
  </clipPath>
 </defs>
</svg>
