<?xml version="1.0" encoding="utf-8" standalone="no"?>
<!DOCTYPE svg PUBLIC "-//W3C//DTD SVG 1.1//EN"
  "http://www.w3.org/Graphics/SVG/1.1/DTD/svg11.dtd">
<svg xmlns:xlink="http://www.w3.org/1999/xlink" width="648pt" height="216pt" viewBox="0 0 648 216" xmlns="http://www.w3.org/2000/svg" version="1.1">
 <metadata>
  <rdf:RDF xmlns:dc="http://purl.org/dc/elements/1.1/" xmlns:cc="http://creativecommons.org/ns#" xmlns:rdf="http://www.w3.org/1999/02/22-rdf-syntax-ns#">
   <cc:Work>
    <dc:type rdf:resource="http://purl.org/dc/dcmitype/StillImage"/>
    <dc:date>2024-12-13T14:59:04.533253</dc:date>
    <dc:format>image/svg+xml</dc:format>
    <dc:creator>
     <cc:Agent>
      <dc:title>Matplotlib v3.6.3, https://matplotlib.org/</dc:title>
     </cc:Agent>
    </dc:creator>
   </cc:Work>
  </rdf:RDF>
 </metadata>
 <defs>
  <style type="text/css">*{stroke-linejoin: round; stroke-linecap: butt}</style>
 </defs>
 <g id="figure_1">
  <g id="patch_1">
   <path d="M 0 216 
L 648 216 
L 648 0 
L 0 0 
z
" style="fill: #ffffff"/>
  </g>
  <g id="axes_1">
   <g id="patch_2">
    <path d="M 168.48 183.6 
L 615.6 183.6 
L 615.6 25.92 
L 168.48 25.92 
z
" style="fill: #ffffff"/>
   </g>
   <g id="PolyCollection_1">
    <path d="M 574.407788 141.188722 
L 574.407788 141.915278 
L 574.430195 141.634249 
L 574.452602 142.883766 
L 574.47501 142.908838 
L 574.497417 143.326431 
L 574.519824 141.949016 
L 574.542231 146.235755 
L 574.564638 151.382234 
L 574.587046 150.796731 
L 574.609453 162.576 
L 574.63186 156.700365 
L 574.654267 157.797595 
L 574.676675 151.322454 
L 574.699082 160.206712 
L 574.721489 149.841928 
L 574.743896 147.932574 
L 574.766304 143.315345 
L 574.788711 143.449073 
L 574.811118 142.602106 
L 574.833525 141.554514 
L 574.855932 141.552 
L 574.87834 141.552 
L 574.900747 141.552 
L 574.923154 141.552 
L 574.945561 141.552 
L 574.967969 141.552 
L 574.990376 141.552 
L 575.012783 141.552 
L 575.03519 141.552 
L 575.057597 141.552 
L 575.080005 141.552 
L 575.102412 141.552 
L 575.124819 141.552 
L 575.147226 141.552 
L 575.169634 141.552 
L 575.192041 141.552 
L 575.214448 141.552 
L 575.236855 141.552 
L 575.259263 141.552 
L 575.28167 141.552 
L 575.304077 141.552 
L 575.326484 141.552 
L 575.348891 141.552 
L 575.371299 141.552 
L 575.393706 141.552 
L 575.416113 141.552 
L 575.43852 141.552 
L 575.460928 141.552 
L 575.483335 141.552 
L 575.505742 141.552 
L 575.528149 141.552 
L 575.550556 141.552 
L 575.572964 141.552 
L 575.595371 141.552 
L 575.617778 141.552 
L 575.640185 141.552 
L 575.662593 141.552 
L 575.685 141.552 
L 575.707407 141.552 
L 575.729814 141.552 
L 575.752221 141.552 
L 575.774629 141.552 
L 575.797036 141.552 
L 575.819443 141.552 
L 575.84185 141.552 
L 575.864258 141.552 
L 575.886665 141.552 
L 575.909072 141.552 
L 575.931479 141.552523 
L 575.953887 141.623512 
L 575.976294 141.579174 
L 575.998701 141.552029 
L 576.021108 141.552 
L 576.043515 141.552 
L 576.065923 141.552 
L 576.08833 141.552 
L 576.110737 141.552 
L 576.133144 141.552 
L 576.155552 141.552 
L 576.177959 141.552 
L 576.200366 141.552 
L 576.222773 141.552 
L 576.24518 141.552 
L 576.267588 141.552 
L 576.289995 141.552 
L 576.312402 141.552 
L 576.334809 141.552 
L 576.357217 141.552 
L 576.379624 141.552 
L 576.402031 141.552 
L 576.424438 141.552 
L 576.446846 141.552 
L 576.469253 141.552 
L 576.49166 141.552 
L 576.514067 141.552 
L 576.536474 141.552 
L 576.558882 141.552 
L 576.581289 141.552 
L 576.603696 141.553313 
L 576.626103 141.576904 
L 576.626103 141.527096 
L 576.626103 141.527096 
L 576.603696 141.550687 
L 576.581289 141.552 
L 576.558882 141.552 
L 576.536474 141.552 
L 576.514067 141.552 
L 576.49166 141.552 
L 576.469253 141.552 
L 576.446846 141.552 
L 576.424438 141.552 
L 576.402031 141.552 
L 576.379624 141.552 
L 576.357217 141.552 
L 576.334809 141.552 
L 576.312402 141.552 
L 576.289995 141.552 
L 576.267588 141.552 
L 576.24518 141.552 
L 576.222773 141.552 
L 576.200366 141.552 
L 576.177959 141.552 
L 576.155552 141.552 
L 576.133144 141.552 
L 576.110737 141.552 
L 576.08833 141.552 
L 576.065923 141.552 
L 576.043515 141.552 
L 576.021108 141.552 
L 575.998701 141.551971 
L 575.976294 141.524826 
L 575.953887 141.480488 
L 575.931479 141.551477 
L 575.909072 141.552 
L 575.886665 141.552 
L 575.864258 141.552 
L 575.84185 141.552 
L 575.819443 141.552 
L 575.797036 141.552 
L 575.774629 141.552 
L 575.752221 141.552 
L 575.729814 141.552 
L 575.707407 141.552 
L 575.685 141.552 
L 575.662593 141.552 
L 575.640185 141.552 
L 575.617778 141.552 
L 575.595371 141.552 
L 575.572964 141.552 
L 575.550556 141.552 
L 575.528149 141.552 
L 575.505742 141.552 
L 575.483335 141.552 
L 575.460928 141.552 
L 575.43852 141.552 
L 575.416113 141.552 
L 575.393706 141.552 
L 575.371299 141.552 
L 575.348891 141.552 
L 575.326484 141.552 
L 575.304077 141.552 
L 575.28167 141.552 
L 575.259263 141.552 
L 575.236855 141.552 
L 575.214448 141.552 
L 575.192041 141.552 
L 575.169634 141.552 
L 575.147226 141.552 
L 575.124819 141.552 
L 575.102412 141.552 
L 575.080005 141.552 
L 575.057597 141.552 
L 575.03519 141.552 
L 575.012783 141.552 
L 574.990376 141.552 
L 574.967969 141.552 
L 574.945561 141.552 
L 574.923154 141.552 
L 574.900747 141.552 
L 574.87834 141.552 
L 574.855932 141.552 
L 574.833525 141.549486 
L 574.811118 140.501894 
L 574.788711 139.654927 
L 574.766304 139.788655 
L 574.743896 135.171426 
L 574.721489 133.262072 
L 574.699082 122.897288 
L 574.676675 131.781546 
L 574.654267 125.306405 
L 574.63186 126.403635 
L 574.609453 120.528 
L 574.587046 132.307269 
L 574.564638 131.721766 
L 574.542231 136.868245 
L 574.519824 141.154984 
L 574.497417 139.777569 
L 574.47501 140.195162 
L 574.452602 140.220234 
L 574.430195 141.469751 
L 574.407788 141.188722 
z
" clip-path="url(#p2bdfc89c5a)" style="fill: #1f77b4; fill-opacity: 0.3"/>
   </g>
   <g id="PolyCollection_2">
    <path d="M 502.32513 99.277285 
L 502.32513 99.730715 
L 502.335152 99.59931 
L 502.345174 99.548009 
L 502.355195 99.941609 
L 502.365217 101.18712 
L 502.375239 102.586874 
L 502.38526 108.995664 
L 502.395282 115.926616 
L 502.405303 117.467623 
L 502.415325 112.926165 
L 502.425347 109.194183 
L 502.435368 111.559908 
L 502.44539 117.993098 
L 502.455412 120.528 
L 502.465433 116.556991 
L 502.475455 112.460862 
L 502.485476 115.641306 
L 502.495498 118.492693 
L 502.50552 119.994022 
L 502.515541 111.748885 
L 502.525563 105.234721 
L 502.535585 111.19663 
L 502.545606 117.800288 
L 502.555628 115.45259 
L 502.565649 107.542402 
L 502.575671 104.740354 
L 502.585693 104.592636 
L 502.595714 102.306483 
L 502.605736 100.43394 
L 502.615758 100.412293 
L 502.625779 101.423753 
L 502.635801 103.73911 
L 502.645822 101.720635 
L 502.655844 100.161134 
L 502.665866 100.208517 
L 502.675887 100.18212 
L 502.685909 99.698234 
L 502.695931 99.514289 
L 502.705952 99.505638 
L 502.715974 99.560515 
L 502.725995 100.000921 
L 502.736017 100.640614 
L 502.746039 100.086288 
L 502.75606 99.561076 
L 502.766082 99.505 
L 502.776104 99.504003 
L 502.786125 99.504 
L 502.796147 99.504 
L 502.806168 99.504 
L 502.81619 99.504 
L 502.826212 99.504 
L 502.836233 99.504 
L 502.846255 99.504 
L 502.856277 99.504 
L 502.866298 99.504 
L 502.87632 99.504 
L 502.886341 99.504 
L 502.896363 99.504 
L 502.906385 99.504 
L 502.916406 99.504 
L 502.926428 99.504 
L 502.93645 99.504 
L 502.946471 99.504 
L 502.956493 99.504 
L 502.966514 99.504 
L 502.976536 99.504 
L 502.986558 99.504 
L 502.996579 99.504 
L 503.006601 99.504 
L 503.016623 99.504001 
L 503.026644 99.504128 
L 503.036666 99.509695 
L 503.046687 99.547892 
L 503.056709 99.562781 
L 503.066731 99.517679 
L 503.076752 99.504553 
L 503.086774 99.504004 
L 503.096796 99.504 
L 503.106817 99.504 
L 503.116839 99.504 
L 503.12686 99.504 
L 503.136882 99.504 
L 503.146904 99.504 
L 503.156925 99.504 
L 503.166947 99.504 
L 503.176969 99.504 
L 503.18699 99.504 
L 503.197012 99.504 
L 503.207033 99.504 
L 503.217055 99.504 
L 503.227077 99.504 
L 503.237098 99.504 
L 503.24712 99.504 
L 503.257142 99.504 
L 503.267163 99.504 
L 503.277185 99.504 
L 503.287206 99.504012 
L 503.297228 99.504978 
L 503.30725 99.517501 
L 503.317271 99.536387 
L 503.317271 99.471613 
L 503.317271 99.471613 
L 503.30725 99.490499 
L 503.297228 99.503022 
L 503.287206 99.503988 
L 503.277185 99.504 
L 503.267163 99.504 
L 503.257142 99.504 
L 503.24712 99.504 
L 503.237098 99.504 
L 503.227077 99.504 
L 503.217055 99.504 
L 503.207033 99.504 
L 503.197012 99.504 
L 503.18699 99.504 
L 503.176969 99.504 
L 503.166947 99.504 
L 503.156925 99.504 
L 503.146904 99.504 
L 503.136882 99.504 
L 503.12686 99.504 
L 503.116839 99.504 
L 503.106817 99.504 
L 503.096796 99.504 
L 503.086774 99.503996 
L 503.076752 99.503447 
L 503.066731 99.490321 
L 503.056709 99.445219 
L 503.046687 99.460108 
L 503.036666 99.498305 
L 503.026644 99.503872 
L 503.016623 99.503999 
L 503.006601 99.504 
L 502.996579 99.504 
L 502.986558 99.504 
L 502.976536 99.504 
L 502.966514 99.504 
L 502.956493 99.504 
L 502.946471 99.504 
L 502.93645 99.504 
L 502.926428 99.504 
L 502.916406 99.504 
L 502.906385 99.504 
L 502.896363 99.504 
L 502.886341 99.504 
L 502.87632 99.504 
L 502.866298 99.504 
L 502.856277 99.504 
L 502.846255 99.504 
L 502.836233 99.504 
L 502.826212 99.504 
L 502.81619 99.504 
L 502.806168 99.504 
L 502.796147 99.504 
L 502.786125 99.504 
L 502.776104 99.503997 
L 502.766082 99.503 
L 502.75606 99.446924 
L 502.746039 98.921712 
L 502.736017 98.367386 
L 502.725995 99.007079 
L 502.715974 99.447485 
L 502.705952 99.502362 
L 502.695931 99.493711 
L 502.685909 99.309766 
L 502.675887 98.82588 
L 502.665866 98.799483 
L 502.655844 98.846866 
L 502.645822 97.287365 
L 502.635801 95.26889 
L 502.625779 97.584247 
L 502.615758 98.595707 
L 502.605736 98.57406 
L 502.595714 96.701517 
L 502.585693 94.415364 
L 502.575671 94.267646 
L 502.565649 91.465598 
L 502.555628 83.55541 
L 502.545606 81.207712 
L 502.535585 87.81137 
L 502.525563 93.773279 
L 502.515541 87.259115 
L 502.50552 79.013978 
L 502.495498 80.515307 
L 502.485476 83.366694 
L 502.475455 86.547138 
L 502.465433 82.451009 
L 502.455412 78.48 
L 502.44539 81.014902 
L 502.435368 87.448092 
L 502.425347 89.813817 
L 502.415325 86.081835 
L 502.405303 81.540377 
L 502.395282 83.081384 
L 502.38526 90.012336 
L 502.375239 96.421126 
L 502.365217 97.82088 
L 502.355195 99.066391 
L 502.345174 99.459991 
L 502.335152 99.40869 
L 502.32513 99.277285 
z
" clip-path="url(#p2bdfc89c5a)" style="fill: #1f77b4; fill-opacity: 0.3"/>
   </g>
   <g id="PolyCollection_3">
    <path d="M 255.676666 55.645275 
L 255.676666 59.266725 
L 255.678393 58.92755 
L 255.680119 58.406524 
L 255.681846 58.577971 
L 255.683572 59.776714 
L 255.685299 61.603097 
L 255.687025 63.307203 
L 255.688751 64.331985 
L 255.690478 64.523582 
L 255.692204 64.398193 
L 255.693931 64.797068 
L 255.695657 65.321932 
L 255.697383 64.892373 
L 255.69911 64.520458 
L 255.700836 65.874713 
L 255.702563 67.759931 
L 255.704289 68.078894 
L 255.706015 67.312029 
L 255.707742 66.921242 
L 255.709468 66.558461 
L 255.711195 65.408011 
L 255.712921 64.224592 
L 255.714647 64.528968 
L 255.716374 67.365533 
L 255.7181 71.761678 
L 255.719827 74.395039 
L 255.721553 73.012043 
L 255.723279 68.713282 
L 255.725006 64.15996 
L 255.726732 61.294583 
L 255.728459 60.529154 
L 255.730185 60.826623 
L 255.731912 61.167239 
L 255.733638 62.234854 
L 255.735364 65.067337 
L 255.737091 68.89236 
L 255.738817 72.273507 
L 255.740544 74.944334 
L 255.74227 77.247405 
L 255.743996 78.48 
L 255.745723 76.780808 
L 255.747449 72.009425 
L 255.749176 67.136358 
L 255.750902 64.795164 
L 255.752628 64.414234 
L 255.754355 64.423694 
L 255.756081 64.538961 
L 255.757808 64.432827 
L 255.759534 63.364446 
L 255.76126 61.599908 
L 255.762987 60.08668 
L 255.764713 59.397513 
L 255.76644 59.416319 
L 255.768166 59.67215 
L 255.769892 60.22424 
L 255.771619 61.277831 
L 255.773345 62.125799 
L 255.775072 62.018677 
L 255.776798 61.375924 
L 255.778524 61.132213 
L 255.780251 61.411046 
L 255.781977 61.451817 
L 255.783704 60.800376 
L 255.78543 59.783111 
L 255.787157 58.898411 
L 255.788883 58.368922 
L 255.790609 58.125281 
L 255.792336 58.103004 
L 255.794062 58.294476 
L 255.795789 58.439487 
L 255.797515 58.264833 
L 255.799241 57.985318 
L 255.800968 58.08301 
L 255.802694 58.719268 
L 255.804421 59.38731 
L 255.806147 59.341643 
L 255.807873 58.627735 
L 255.8096 57.951022 
L 255.811326 57.639926 
L 255.813053 57.5416 
L 255.814779 57.502133 
L 255.816505 57.487136 
L 255.818232 57.484843 
L 255.819958 57.47916 
L 255.821685 57.468419 
L 255.823411 57.46021 
L 255.825137 57.456899 
L 255.826864 57.456225 
L 255.82859 57.457641 
L 255.830317 57.471705 
L 255.832043 57.550629 
L 255.833769 57.812787 
L 255.835496 58.297768 
L 255.837222 58.699167 
L 255.838949 58.608224 
L 255.840675 58.139778 
L 255.842402 57.759998 
L 255.844128 57.655651 
L 255.845854 57.700467 
L 255.847581 57.723193 
L 255.847581 57.188807 
L 255.847581 57.188807 
L 255.845854 57.211533 
L 255.844128 57.256349 
L 255.842402 57.152002 
L 255.840675 56.772222 
L 255.838949 56.303776 
L 255.837222 56.212833 
L 255.835496 56.614232 
L 255.833769 57.099213 
L 255.832043 57.361371 
L 255.830317 57.440295 
L 255.82859 57.454359 
L 255.826864 57.455775 
L 255.825137 57.455101 
L 255.823411 57.45179 
L 255.821685 57.443581 
L 255.819958 57.43284 
L 255.818232 57.427157 
L 255.816505 57.424864 
L 255.814779 57.409867 
L 255.813053 57.3704 
L 255.811326 57.272074 
L 255.8096 56.960978 
L 255.807873 56.284265 
L 255.806147 55.570357 
L 255.804421 55.52469 
L 255.802694 56.192732 
L 255.800968 56.82899 
L 255.799241 56.926682 
L 255.797515 56.647167 
L 255.795789 56.472513 
L 255.794062 56.617524 
L 255.792336 56.808996 
L 255.790609 56.786719 
L 255.788883 56.543078 
L 255.787157 56.013589 
L 255.78543 55.128889 
L 255.783704 54.111624 
L 255.781977 53.460183 
L 255.780251 53.500954 
L 255.778524 53.779787 
L 255.776798 53.536076 
L 255.775072 52.893323 
L 255.773345 52.786201 
L 255.771619 53.634169 
L 255.769892 54.68776 
L 255.768166 55.23985 
L 255.76644 55.495681 
L 255.764713 55.514487 
L 255.762987 54.82532 
L 255.76126 53.312092 
L 255.759534 51.547554 
L 255.757808 50.479173 
L 255.756081 50.373039 
L 255.754355 50.488306 
L 255.752628 50.497766 
L 255.750902 50.116836 
L 255.749176 47.775642 
L 255.747449 42.902575 
L 255.745723 38.131192 
L 255.743996 36.432 
L 255.74227 37.664595 
L 255.740544 39.967666 
L 255.738817 42.638493 
L 255.737091 46.01964 
L 255.735364 49.844663 
L 255.733638 52.677146 
L 255.731912 53.744761 
L 255.730185 54.085377 
L 255.728459 54.382846 
L 255.726732 53.617417 
L 255.725006 50.75204 
L 255.723279 46.198718 
L 255.721553 41.899957 
L 255.719827 40.516961 
L 255.7181 43.150322 
L 255.716374 47.546467 
L 255.714647 50.383032 
L 255.712921 50.687408 
L 255.711195 49.503989 
L 255.709468 48.353539 
L 255.707742 47.990758 
L 255.706015 47.599971 
L 255.704289 46.833106 
L 255.702563 47.152069 
L 255.700836 49.037287 
L 255.69911 50.391542 
L 255.697383 50.019627 
L 255.695657 49.590068 
L 255.693931 50.114932 
L 255.692204 50.513807 
L 255.690478 50.388418 
L 255.688751 50.580015 
L 255.687025 51.604797 
L 255.685299 53.308903 
L 255.683572 55.135286 
L 255.681846 56.334029 
L 255.680119 56.505476 
L 255.678393 55.98445 
L 255.676666 55.645275 
z
" clip-path="url(#p2bdfc89c5a)" style="fill: #1f77b4; fill-opacity: 0.3"/>
   </g>
   <g id="matplotlib.axis_1">
    <g id="xtick_1">
     <g id="line2d_1">
      <path d="M 168.48 183.6 
L 168.48 25.92 
" clip-path="url(#p2bdfc89c5a)" style="fill: none; stroke: #b0b0b0; stroke-width: 0.1; stroke-linecap: square"/>
     </g>
     <g id="line2d_2">
      <defs>
       <path id="m659b511062" d="M 0 0 
L 0 3.5 
" style="stroke: #000000; stroke-width: 0.8"/>
      </defs>
      <g>
       <use xlink:href="#m659b511062" x="168.48" y="183.6" style="stroke: #000000; stroke-width: 0.8"/>
      </g>
     </g>
     <g id="text_1">
      <text style="font: 8px 'Arial', 'DejaVu Sans', sans-serif; text-anchor: middle" x="168.48" y="196.67875" transform="rotate(-0 168.48 196.67875)">0</text>
     </g>
    </g>
    <g id="xtick_2">
     <g id="line2d_3">
      <path d="M 210.266916 183.6 
L 210.266916 25.92 
" clip-path="url(#p2bdfc89c5a)" style="fill: none; stroke: #b0b0b0; stroke-width: 0.1; stroke-linecap: square"/>
     </g>
     <g id="line2d_4">
      <g>
       <use xlink:href="#m659b511062" x="210.266916" y="183.6" style="stroke: #000000; stroke-width: 0.8"/>
      </g>
     </g>
     <g id="text_2">
      <text style="font: 8px 'Arial', 'DejaVu Sans', sans-serif; text-anchor: middle" x="210.266916" y="196.67875" transform="rotate(-0 210.266916 196.67875)">10</text>
     </g>
    </g>
    <g id="xtick_3">
     <g id="line2d_5">
      <path d="M 252.053832 183.6 
L 252.053832 25.92 
" clip-path="url(#p2bdfc89c5a)" style="fill: none; stroke: #b0b0b0; stroke-width: 0.1; stroke-linecap: square"/>
     </g>
     <g id="line2d_6">
      <g>
       <use xlink:href="#m659b511062" x="252.053832" y="183.6" style="stroke: #000000; stroke-width: 0.8"/>
      </g>
     </g>
     <g id="text_3">
      <text style="font: 8px 'Arial', 'DejaVu Sans', sans-serif; text-anchor: middle" x="252.053832" y="196.67875" transform="rotate(-0 252.053832 196.67875)">20</text>
     </g>
    </g>
    <g id="xtick_4">
     <g id="line2d_7">
      <path d="M 293.840748 183.6 
L 293.840748 25.92 
" clip-path="url(#p2bdfc89c5a)" style="fill: none; stroke: #b0b0b0; stroke-width: 0.1; stroke-linecap: square"/>
     </g>
     <g id="line2d_8">
      <g>
       <use xlink:href="#m659b511062" x="293.840748" y="183.6" style="stroke: #000000; stroke-width: 0.8"/>
      </g>
     </g>
     <g id="text_4">
      <text style="font: 8px 'Arial', 'DejaVu Sans', sans-serif; text-anchor: middle" x="293.840748" y="196.67875" transform="rotate(-0 293.840748 196.67875)">30</text>
     </g>
    </g>
    <g id="xtick_5">
     <g id="line2d_9">
      <path d="M 335.627664 183.6 
L 335.627664 25.92 
" clip-path="url(#p2bdfc89c5a)" style="fill: none; stroke: #b0b0b0; stroke-width: 0.1; stroke-linecap: square"/>
     </g>
     <g id="line2d_10">
      <g>
       <use xlink:href="#m659b511062" x="335.627664" y="183.6" style="stroke: #000000; stroke-width: 0.8"/>
      </g>
     </g>
     <g id="text_5">
      <text style="font: 8px 'Arial', 'DejaVu Sans', sans-serif; text-anchor: middle" x="335.627664" y="196.67875" transform="rotate(-0 335.627664 196.67875)">40</text>
     </g>
    </g>
    <g id="xtick_6">
     <g id="line2d_11">
      <path d="M 377.414579 183.6 
L 377.414579 25.92 
" clip-path="url(#p2bdfc89c5a)" style="fill: none; stroke: #b0b0b0; stroke-width: 0.1; stroke-linecap: square"/>
     </g>
     <g id="line2d_12">
      <g>
       <use xlink:href="#m659b511062" x="377.414579" y="183.6" style="stroke: #000000; stroke-width: 0.8"/>
      </g>
     </g>
     <g id="text_6">
      <text style="font: 8px 'Arial', 'DejaVu Sans', sans-serif; text-anchor: middle" x="377.414579" y="196.67875" transform="rotate(-0 377.414579 196.67875)">50</text>
     </g>
    </g>
    <g id="xtick_7">
     <g id="line2d_13">
      <path d="M 419.201495 183.6 
L 419.201495 25.92 
" clip-path="url(#p2bdfc89c5a)" style="fill: none; stroke: #b0b0b0; stroke-width: 0.1; stroke-linecap: square"/>
     </g>
     <g id="line2d_14">
      <g>
       <use xlink:href="#m659b511062" x="419.201495" y="183.6" style="stroke: #000000; stroke-width: 0.8"/>
      </g>
     </g>
     <g id="text_7">
      <text style="font: 8px 'Arial', 'DejaVu Sans', sans-serif; text-anchor: middle" x="419.201495" y="196.67875" transform="rotate(-0 419.201495 196.67875)">60</text>
     </g>
    </g>
    <g id="xtick_8">
     <g id="line2d_15">
      <path d="M 460.988411 183.6 
L 460.988411 25.92 
" clip-path="url(#p2bdfc89c5a)" style="fill: none; stroke: #b0b0b0; stroke-width: 0.1; stroke-linecap: square"/>
     </g>
     <g id="line2d_16">
      <g>
       <use xlink:href="#m659b511062" x="460.988411" y="183.6" style="stroke: #000000; stroke-width: 0.8"/>
      </g>
     </g>
     <g id="text_8">
      <text style="font: 8px 'Arial', 'DejaVu Sans', sans-serif; text-anchor: middle" x="460.988411" y="196.67875" transform="rotate(-0 460.988411 196.67875)">70</text>
     </g>
    </g>
    <g id="xtick_9">
     <g id="line2d_17">
      <path d="M 502.775327 183.6 
L 502.775327 25.92 
" clip-path="url(#p2bdfc89c5a)" style="fill: none; stroke: #b0b0b0; stroke-width: 0.1; stroke-linecap: square"/>
     </g>
     <g id="line2d_18">
      <g>
       <use xlink:href="#m659b511062" x="502.775327" y="183.6" style="stroke: #000000; stroke-width: 0.8"/>
      </g>
     </g>
     <g id="text_9">
      <text style="font: 8px 'Arial', 'DejaVu Sans', sans-serif; text-anchor: middle" x="502.775327" y="196.67875" transform="rotate(-0 502.775327 196.67875)">80</text>
     </g>
    </g>
    <g id="xtick_10">
     <g id="line2d_19">
      <path d="M 544.562243 183.6 
L 544.562243 25.92 
" clip-path="url(#p2bdfc89c5a)" style="fill: none; stroke: #b0b0b0; stroke-width: 0.1; stroke-linecap: square"/>
     </g>
     <g id="line2d_20">
      <g>
       <use xlink:href="#m659b511062" x="544.562243" y="183.6" style="stroke: #000000; stroke-width: 0.8"/>
      </g>
     </g>
     <g id="text_10">
      <text style="font: 8px 'Arial', 'DejaVu Sans', sans-serif; text-anchor: middle" x="544.562243" y="196.67875" transform="rotate(-0 544.562243 196.67875)">90</text>
     </g>
    </g>
    <g id="xtick_11">
     <g id="line2d_21">
      <path d="M 586.349159 183.6 
L 586.349159 25.92 
" clip-path="url(#p2bdfc89c5a)" style="fill: none; stroke: #b0b0b0; stroke-width: 0.1; stroke-linecap: square"/>
     </g>
     <g id="line2d_22">
      <g>
       <use xlink:href="#m659b511062" x="586.349159" y="183.6" style="stroke: #000000; stroke-width: 0.8"/>
      </g>
     </g>
     <g id="text_11">
      <text style="font: 8px 'Arial', 'DejaVu Sans', sans-serif; text-anchor: middle" x="586.349159" y="196.67875" transform="rotate(-0 586.349159 196.67875)">100</text>
     </g>
    </g>
    <g id="xtick_12">
     <g id="line2d_23">
      <defs>
       <path id="ma3e6d7efd7" d="M 0 0 
L 0 2 
" style="stroke: #000000; stroke-width: 0.6"/>
      </defs>
      <g>
       <use xlink:href="#ma3e6d7efd7" x="189.373458" y="183.6" style="stroke: #000000; stroke-width: 0.6"/>
      </g>
     </g>
    </g>
    <g id="xtick_13">
     <g id="line2d_24">
      <g>
       <use xlink:href="#ma3e6d7efd7" x="231.160374" y="183.6" style="stroke: #000000; stroke-width: 0.6"/>
      </g>
     </g>
    </g>
    <g id="xtick_14">
     <g id="line2d_25">
      <g>
       <use xlink:href="#ma3e6d7efd7" x="272.94729" y="183.6" style="stroke: #000000; stroke-width: 0.6"/>
      </g>
     </g>
    </g>
    <g id="xtick_15">
     <g id="line2d_26">
      <g>
       <use xlink:href="#ma3e6d7efd7" x="314.734206" y="183.6" style="stroke: #000000; stroke-width: 0.6"/>
      </g>
     </g>
    </g>
    <g id="xtick_16">
     <g id="line2d_27">
      <g>
       <use xlink:href="#ma3e6d7efd7" x="356.521121" y="183.6" style="stroke: #000000; stroke-width: 0.6"/>
      </g>
     </g>
    </g>
    <g id="xtick_17">
     <g id="line2d_28">
      <g>
       <use xlink:href="#ma3e6d7efd7" x="398.308037" y="183.6" style="stroke: #000000; stroke-width: 0.6"/>
      </g>
     </g>
    </g>
    <g id="xtick_18">
     <g id="line2d_29">
      <g>
       <use xlink:href="#ma3e6d7efd7" x="440.094953" y="183.6" style="stroke: #000000; stroke-width: 0.6"/>
      </g>
     </g>
    </g>
    <g id="xtick_19">
     <g id="line2d_30">
      <g>
       <use xlink:href="#ma3e6d7efd7" x="481.881869" y="183.6" style="stroke: #000000; stroke-width: 0.6"/>
      </g>
     </g>
    </g>
    <g id="xtick_20">
     <g id="line2d_31">
      <g>
       <use xlink:href="#ma3e6d7efd7" x="523.668785" y="183.6" style="stroke: #000000; stroke-width: 0.6"/>
      </g>
     </g>
    </g>
    <g id="xtick_21">
     <g id="line2d_32">
      <g>
       <use xlink:href="#ma3e6d7efd7" x="565.455701" y="183.6" style="stroke: #000000; stroke-width: 0.6"/>
      </g>
     </g>
    </g>
    <g id="xtick_22">
     <g id="line2d_33">
      <g>
       <use xlink:href="#ma3e6d7efd7" x="607.242617" y="183.6" style="stroke: #000000; stroke-width: 0.6"/>
      </g>
     </g>
    </g>
    <g id="text_12">
     <text style="font: 8px 'Arial', 'DejaVu Sans', sans-serif; text-anchor: middle" x="392.04" y="208.42125" transform="rotate(-0 392.04 208.42125)">microseconds</text>
    </g>
   </g>
   <g id="matplotlib.axis_2">
    <g id="ytick_1">
     <g id="line2d_34">
      <path d="M 168.48 141.552 
L 615.6 141.552 
" clip-path="url(#p2bdfc89c5a)" style="fill: none; stroke: #b0b0b0; stroke-width: 0.1; stroke-linecap: square"/>
     </g>
     <g id="line2d_35">
      <defs>
       <path id="m8fbef3e460" d="M 0 0 
L -3.5 0 
" style="stroke: #000000; stroke-width: 0.8"/>
      </defs>
      <g>
       <use xlink:href="#m8fbef3e460" x="168.48" y="141.552" style="stroke: #000000; stroke-width: 0.8"/>
      </g>
     </g>
     <g id="text_13">
      <text style="font: 8px 'Arial', 'DejaVu Sans', sans-serif; text-anchor: end" x="161.48" y="144.591375" transform="rotate(-0 161.48 144.591375)">X25519MLKEM768, X25519</text>
     </g>
    </g>
    <g id="ytick_2">
     <g id="line2d_36">
      <path d="M 168.48 99.504 
L 615.6 99.504 
" clip-path="url(#p2bdfc89c5a)" style="fill: none; stroke: #b0b0b0; stroke-width: 0.1; stroke-linecap: square"/>
     </g>
     <g id="line2d_37">
      <g>
       <use xlink:href="#m8fbef3e460" x="168.48" y="99.504" style="stroke: #000000; stroke-width: 0.8"/>
      </g>
     </g>
     <g id="text_14">
      <text style="font: 8px 'Arial', 'DejaVu Sans', sans-serif; text-anchor: end" x="161.48" y="102.543375" transform="rotate(-0 161.48 102.543375)">X25519MLKEM768, X25519 optimized</text>
     </g>
    </g>
    <g id="ytick_3">
     <g id="line2d_38">
      <path d="M 168.48 57.456 
L 615.6 57.456 
" clip-path="url(#p2bdfc89c5a)" style="fill: none; stroke: #b0b0b0; stroke-width: 0.1; stroke-linecap: square"/>
     </g>
     <g id="line2d_39">
      <g>
       <use xlink:href="#m8fbef3e460" x="168.48" y="57.456" style="stroke: #000000; stroke-width: 0.8"/>
      </g>
     </g>
     <g id="text_15">
      <text style="font: 8px 'Arial', 'DejaVu Sans', sans-serif; text-anchor: end" x="161.48" y="60.495375" transform="rotate(-0 161.48 60.495375)">X25519 alone</text>
     </g>
    </g>
   </g>
   <g id="LineCollection_1">
    <path d="M 574.642372 152.064 
L 574.642372 131.04 
" clip-path="url(#p2bdfc89c5a)" style="fill: none; stroke: #1f77b4; stroke-width: 1.5"/>
    <path d="M 502.480359 110.016 
L 502.480359 88.992 
" clip-path="url(#p2bdfc89c5a)" style="fill: none; stroke: #1f77b4; stroke-width: 1.5"/>
    <path d="M 255.736893 67.968 
L 255.736893 46.944 
" clip-path="url(#p2bdfc89c5a)" style="fill: none; stroke: #1f77b4; stroke-width: 1.5"/>
   </g>
   <g id="patch_3">
    <path d="M 168.48 183.6 
L 168.48 25.92 
" style="fill: none; stroke: #000000; stroke-width: 0.8; stroke-linejoin: miter; stroke-linecap: square"/>
   </g>
   <g id="patch_4">
    <path d="M 615.6 183.6 
L 615.6 25.92 
" style="fill: none; stroke: #000000; stroke-width: 0.8; stroke-linejoin: miter; stroke-linecap: square"/>
   </g>
   <g id="patch_5">
    <path d="M 168.48 183.6 
L 615.6 183.6 
" style="fill: none; stroke: #000000; stroke-width: 0.8; stroke-linejoin: miter; stroke-linecap: square"/>
   </g>
   <g id="patch_6">
    <path d="M 168.48 25.92 
L 615.6 25.92 
" style="fill: none; stroke: #000000; stroke-width: 0.8; stroke-linejoin: miter; stroke-linecap: square"/>
   </g>
  </g>
  <g id="text_16">
   <text style="font: 9.6px 'Arial', 'DejaVu Sans', sans-serif; text-anchor: middle" x="324" y="11.6145" transform="rotate(-0 324 11.6145)">Micro benchmark of ClientHello production (arm64)</text>
  </g>
 </g>
 <defs>
  <clipPath id="p2bdfc89c5a">
   <rect x="168.48" y="25.92" width="447.12" height="157.68"/>
  </clipPath>
 </defs>
</svg>
