<?xml version="1.0" encoding="utf-8" standalone="no"?>
<!DOCTYPE svg PUBLIC "-//W3C//DTD SVG 1.1//EN"
  "http://www.w3.org/Graphics/SVG/1.1/DTD/svg11.dtd">
<svg xmlns:xlink="http://www.w3.org/1999/xlink" width="648pt" height="216pt" viewBox="0 0 648 216" xmlns="http://www.w3.org/2000/svg" version="1.1">
 <metadata>
  <rdf:RDF xmlns:dc="http://purl.org/dc/elements/1.1/" xmlns:cc="http://creativecommons.org/ns#" xmlns:rdf="http://www.w3.org/1999/02/22-rdf-syntax-ns#">
   <cc:Work>
    <dc:type rdf:resource="http://purl.org/dc/dcmitype/StillImage"/>
    <dc:date>2024-12-13T14:59:04.316052</dc:date>
    <dc:format>image/svg+xml</dc:format>
    <dc:creator>
     <cc:Agent>
      <dc:title>Matplotlib v3.6.3, https://matplotlib.org/</dc:title>
     </cc:Agent>
    </dc:creator>
   </cc:Work>
  </rdf:RDF>
 </metadata>
 <defs>
  <style type="text/css">*{stroke-linejoin: round; stroke-linecap: butt}</style>
 </defs>
 <g id="figure_1">
  <g id="patch_1">
   <path d="M 0 216 
L 648 216 
L 648 0 
L 0 0 
z
" style="fill: #ffffff"/>
  </g>
  <g id="axes_1">
   <g id="patch_2">
    <path d="M 168.48 183.6 
L 615.6 183.6 
L 615.6 25.92 
L 168.48 25.92 
z
" style="fill: #ffffff"/>
   </g>
   <g id="PolyCollection_1">
    <path d="M 563.651117 140.526141 
L 563.651117 142.577859 
L 563.712614 143.09677 
L 563.774111 144.151747 
L 563.835608 145.857999 
L 563.897105 147.80111 
L 563.958601 149.458943 
L 564.020098 150.80115 
L 564.081595 152.204981 
L 564.143092 154.00894 
L 564.204589 156.390918 
L 564.266086 159.220441 
L 564.327583 161.684641 
L 564.389079 162.576 
L 564.450576 161.315721 
L 564.512073 158.490567 
L 564.57357 155.385117 
L 564.635067 153.040217 
L 564.696564 151.557976 
L 564.75806 150.292914 
L 564.819557 148.752151 
L 564.881054 147.034061 
L 564.942551 145.395112 
L 565.004048 143.93623 
L 565.065545 142.772962 
L 565.127042 142.037922 
L 565.188538 141.696971 
L 565.250035 141.58385 
L 565.311532 141.557182 
L 565.373029 141.553299 
L 565.434526 141.556902 
L 565.496023 141.576329 
L 565.557519 141.641301 
L 565.619016 141.795435 
L 565.680513 142.058831 
L 565.74201 142.39904 
L 565.803507 142.771057 
L 565.865004 143.173264 
L 565.926501 143.653798 
L 565.987997 144.324487 
L 566.049494 145.320972 
L 566.110991 146.590423 
L 566.172488 147.746032 
L 566.233985 148.289278 
L 566.295482 148.008392 
L 566.356978 147.113477 
L 566.418475 146.022095 
L 566.479972 145.095592 
L 566.541469 144.499184 
L 566.602966 144.14479 
L 566.664463 143.808622 
L 566.72596 143.399404 
L 566.787456 143.005094 
L 566.848953 142.671726 
L 566.91045 142.343987 
L 566.971947 142.019823 
L 567.033444 141.775631 
L 567.094941 141.65025 
L 567.156437 141.617566 
L 567.217934 141.656215 
L 567.279431 141.778486 
L 567.340928 141.970027 
L 567.402425 142.128808 
L 567.463922 142.131243 
L 567.525419 141.97304 
L 567.586915 141.773617 
L 567.648412 141.638392 
L 567.709909 141.584651 
L 567.771406 141.584276 
L 567.832903 141.610418 
L 567.8944 141.639098 
L 567.955896 141.646769 
L 568.017393 141.626569 
L 568.07889 141.594405 
L 568.140387 141.569427 
L 568.201884 141.557176 
L 568.263381 141.553111 
L 568.324878 141.552172 
L 568.386374 141.552021 
L 568.447871 141.552015 
L 568.509368 141.552093 
L 568.570865 141.552477 
L 568.632362 141.553775 
L 568.693859 141.556773 
L 568.755355 141.561273 
L 568.816852 141.56502 
L 568.878349 141.565211 
L 568.939846 141.561687 
L 569.001343 141.557133 
L 569.06284 141.553966 
L 569.124337 141.552544 
L 569.185833 141.55211 
L 569.24733 141.552035 
L 569.308827 141.552217 
L 569.370324 141.553777 
L 569.431821 141.562606 
L 569.493318 141.597742 
L 569.554814 141.694562 
L 569.616311 141.873099 
L 569.677808 142.074661 
L 569.739305 142.166819 
L 569.739305 140.937181 
L 569.739305 140.937181 
L 569.677808 141.029339 
L 569.616311 141.230901 
L 569.554814 141.409438 
L 569.493318 141.506258 
L 569.431821 141.541394 
L 569.370324 141.550223 
L 569.308827 141.551783 
L 569.24733 141.551965 
L 569.185833 141.55189 
L 569.124337 141.551456 
L 569.06284 141.550034 
L 569.001343 141.546867 
L 568.939846 141.542313 
L 568.878349 141.538789 
L 568.816852 141.53898 
L 568.755355 141.542727 
L 568.693859 141.547227 
L 568.632362 141.550225 
L 568.570865 141.551523 
L 568.509368 141.551907 
L 568.447871 141.551985 
L 568.386374 141.551979 
L 568.324878 141.551828 
L 568.263381 141.550889 
L 568.201884 141.546824 
L 568.140387 141.534573 
L 568.07889 141.509595 
L 568.017393 141.477431 
L 567.955896 141.457231 
L 567.8944 141.464902 
L 567.832903 141.493582 
L 567.771406 141.519724 
L 567.709909 141.519349 
L 567.648412 141.465608 
L 567.586915 141.330383 
L 567.525419 141.13096 
L 567.463922 140.972757 
L 567.402425 140.975192 
L 567.340928 141.133973 
L 567.279431 141.325514 
L 567.217934 141.447785 
L 567.156437 141.486434 
L 567.094941 141.45375 
L 567.033444 141.328369 
L 566.971947 141.084177 
L 566.91045 140.760013 
L 566.848953 140.432274 
L 566.787456 140.098906 
L 566.72596 139.704596 
L 566.664463 139.295378 
L 566.602966 138.95921 
L 566.541469 138.604816 
L 566.479972 138.008408 
L 566.418475 137.081905 
L 566.356978 135.990523 
L 566.295482 135.095608 
L 566.233985 134.814722 
L 566.172488 135.357968 
L 566.110991 136.513577 
L 566.049494 137.783028 
L 565.987997 138.779513 
L 565.926501 139.450202 
L 565.865004 139.930736 
L 565.803507 140.332943 
L 565.74201 140.70496 
L 565.680513 141.045169 
L 565.619016 141.308565 
L 565.557519 141.462699 
L 565.496023 141.527671 
L 565.434526 141.547098 
L 565.373029 141.550701 
L 565.311532 141.546818 
L 565.250035 141.52015 
L 565.188538 141.407029 
L 565.127042 141.066078 
L 565.065545 140.331038 
L 565.004048 139.16777 
L 564.942551 137.708888 
L 564.881054 136.069939 
L 564.819557 134.351849 
L 564.75806 132.811086 
L 564.696564 131.546024 
L 564.635067 130.063783 
L 564.57357 127.718883 
L 564.512073 124.613433 
L 564.450576 121.788279 
L 564.389079 120.528 
L 564.327583 121.419359 
L 564.266086 123.883559 
L 564.204589 126.713082 
L 564.143092 129.09506 
L 564.081595 130.899019 
L 564.020098 132.30285 
L 563.958601 133.645057 
L 563.897105 135.30289 
L 563.835608 137.246001 
L 563.774111 138.952253 
L 563.712614 140.00723 
L 563.651117 140.526141 
z
" clip-path="url(#pa40b0de09b)" style="fill: #1f77b4; fill-opacity: 0.3"/>
   </g>
   <g id="PolyCollection_2">
    <path d="M 517.384816 99.42425 
L 517.384816 99.58375 
L 517.484253 99.610559 
L 517.583689 99.691451 
L 517.683125 99.936692 
L 517.782561 100.533026 
L 517.881997 101.850059 
L 517.981433 104.304479 
L 518.080869 107.920256 
L 518.180305 112.384712 
L 518.279742 117.212797 
L 518.379178 120.528 
L 518.478614 119.555043 
L 518.57805 114.904812 
L 518.677486 110.275131 
L 518.776922 107.169558 
L 518.876358 104.682907 
L 518.975794 102.794665 
L 519.075231 101.919393 
L 519.174667 101.554762 
L 519.274103 101.265875 
L 519.373539 101.066514 
L 519.472975 100.852495 
L 519.572411 100.45286 
L 519.671847 99.964255 
L 519.771283 99.645825 
L 519.87072 99.533491 
L 519.970156 99.509233 
L 520.069592 99.505071 
L 520.169028 99.506764 
L 520.268464 99.523482 
L 520.3679 99.583491 
L 520.467336 99.684744 
L 520.566772 99.732929 
L 520.666209 99.665521 
L 520.765645 99.567482 
L 520.865081 99.517898 
L 520.964517 99.505695 
L 521.063953 99.504115 
L 521.163389 99.504004 
L 521.262825 99.504 
L 521.362261 99.504 
L 521.461697 99.504 
L 521.561134 99.504 
L 521.66057 99.504 
L 521.760006 99.504 
L 521.859442 99.504 
L 521.958878 99.504 
L 522.058314 99.504 
L 522.15775 99.504 
L 522.257186 99.504 
L 522.356623 99.504 
L 522.456059 99.504 
L 522.555495 99.504 
L 522.654931 99.504 
L 522.754367 99.504 
L 522.853803 99.504001 
L 522.953239 99.50404 
L 523.052675 99.504711 
L 523.152112 99.51102 
L 523.251548 99.542593 
L 523.350984 99.62218 
L 523.45042 99.705591 
L 523.549856 99.695554 
L 523.649292 99.605391 
L 523.748728 99.533895 
L 523.848164 99.50891 
L 523.947601 99.504449 
L 524.047037 99.504023 
L 524.146473 99.504001 
L 524.245909 99.504 
L 524.345345 99.504 
L 524.444781 99.504 
L 524.544217 99.504 
L 524.643653 99.504 
L 524.74309 99.504 
L 524.842526 99.504 
L 524.941962 99.504 
L 525.041398 99.504 
L 525.140834 99.504 
L 525.24027 99.504 
L 525.339706 99.504 
L 525.439142 99.504 
L 525.538579 99.504 
L 525.638015 99.504 
L 525.737451 99.504 
L 525.836887 99.504 
L 525.936323 99.504 
L 526.035759 99.504 
L 526.135195 99.504 
L 526.234631 99.504 
L 526.334068 99.504 
L 526.433504 99.504 
L 526.53294 99.504 
L 526.632376 99.50402 
L 526.731812 99.504506 
L 526.831248 99.511039 
L 526.930684 99.558564 
L 527.03012 99.739603 
L 527.129557 100.070689 
L 527.228993 100.263276 
L 527.228993 98.744724 
L 527.228993 98.744724 
L 527.129557 98.937311 
L 527.03012 99.268397 
L 526.930684 99.449436 
L 526.831248 99.496961 
L 526.731812 99.503494 
L 526.632376 99.50398 
L 526.53294 99.504 
L 526.433504 99.504 
L 526.334068 99.504 
L 526.234631 99.504 
L 526.135195 99.504 
L 526.035759 99.504 
L 525.936323 99.504 
L 525.836887 99.504 
L 525.737451 99.504 
L 525.638015 99.504 
L 525.538579 99.504 
L 525.439142 99.504 
L 525.339706 99.504 
L 525.24027 99.504 
L 525.140834 99.504 
L 525.041398 99.504 
L 524.941962 99.504 
L 524.842526 99.504 
L 524.74309 99.504 
L 524.643653 99.504 
L 524.544217 99.504 
L 524.444781 99.504 
L 524.345345 99.504 
L 524.245909 99.504 
L 524.146473 99.503999 
L 524.047037 99.503977 
L 523.947601 99.503551 
L 523.848164 99.49909 
L 523.748728 99.474105 
L 523.649292 99.402609 
L 523.549856 99.312446 
L 523.45042 99.302409 
L 523.350984 99.38582 
L 523.251548 99.465407 
L 523.152112 99.49698 
L 523.052675 99.503289 
L 522.953239 99.50396 
L 522.853803 99.503999 
L 522.754367 99.504 
L 522.654931 99.504 
L 522.555495 99.504 
L 522.456059 99.504 
L 522.356623 99.504 
L 522.257186 99.504 
L 522.15775 99.504 
L 522.058314 99.504 
L 521.958878 99.504 
L 521.859442 99.504 
L 521.760006 99.504 
L 521.66057 99.504 
L 521.561134 99.504 
L 521.461697 99.504 
L 521.362261 99.504 
L 521.262825 99.504 
L 521.163389 99.503996 
L 521.063953 99.503885 
L 520.964517 99.502305 
L 520.865081 99.490102 
L 520.765645 99.440518 
L 520.666209 99.342479 
L 520.566772 99.275071 
L 520.467336 99.323256 
L 520.3679 99.424509 
L 520.268464 99.484518 
L 520.169028 99.501236 
L 520.069592 99.502929 
L 519.970156 99.498767 
L 519.87072 99.474509 
L 519.771283 99.362175 
L 519.671847 99.043745 
L 519.572411 98.55514 
L 519.472975 98.155505 
L 519.373539 97.941486 
L 519.274103 97.742125 
L 519.174667 97.453238 
L 519.075231 97.088607 
L 518.975794 96.213335 
L 518.876358 94.325093 
L 518.776922 91.838442 
L 518.677486 88.732869 
L 518.57805 84.103188 
L 518.478614 79.452957 
L 518.379178 78.48 
L 518.279742 81.795203 
L 518.180305 86.623288 
L 518.080869 91.087744 
L 517.981433 94.703521 
L 517.881997 97.157941 
L 517.782561 98.474974 
L 517.683125 99.071308 
L 517.583689 99.316549 
L 517.484253 99.397441 
L 517.384816 99.42425 
z
" clip-path="url(#pa40b0de09b)" style="fill: #1f77b4; fill-opacity: 0.3"/>
   </g>
   <g id="PolyCollection_3">
    <path d="M 248.134064 53.957158 
L 248.134064 60.954842 
L 248.139073 61.467118 
L 248.144083 61.953475 
L 248.149093 63.186056 
L 248.154102 64.661048 
L 248.159112 65.373572 
L 248.164121 64.679967 
L 248.169131 62.475475 
L 248.17414 59.893763 
L 248.17915 58.311018 
L 248.18416 57.904348 
L 248.189169 58.220959 
L 248.194179 58.740896 
L 248.199188 58.89005 
L 248.204198 58.718034 
L 248.209207 59.061864 
L 248.214217 60.329687 
L 248.219227 61.852151 
L 248.224236 62.846666 
L 248.229246 63.046096 
L 248.234255 62.483598 
L 248.239265 61.76173 
L 248.244274 61.563707 
L 248.249284 61.860389 
L 248.254294 62.987076 
L 248.259303 65.705857 
L 248.264313 69.373736 
L 248.269322 72.535151 
L 248.274332 74.847891 
L 248.279341 76.922363 
L 248.284351 78.48 
L 248.289361 78.374387 
L 248.29437 77.192571 
L 248.29938 76.516077 
L 248.304389 76.336222 
L 248.309399 76.3187 
L 248.314408 75.447006 
L 248.319418 72.1217 
L 248.324428 67.762243 
L 248.329437 65.7523 
L 248.334447 67.293876 
L 248.339456 70.323458 
L 248.344466 71.757033 
L 248.349475 70.746575 
L 248.354485 69.596902 
L 248.359495 70.209124 
L 248.364504 71.043863 
L 248.369514 70.18572 
L 248.374523 68.487256 
L 248.379533 67.147263 
L 248.384543 66.010224 
L 248.389552 65.441658 
L 248.394562 65.915941 
L 248.399571 66.337536 
L 248.404581 65.538135 
L 248.40959 64.414449 
L 248.4146 64.407579 
L 248.41961 64.946192 
L 248.424619 64.431423 
L 248.429629 62.882329 
L 248.434638 61.883152 
L 248.439648 61.977782 
L 248.444657 61.908685 
L 248.449667 60.825091 
L 248.454677 59.578542 
L 248.459686 59.359722 
L 248.464696 60.039213 
L 248.469705 60.498005 
L 248.474715 60.49817 
L 248.479724 60.932346 
L 248.484734 61.825428 
L 248.489744 62.032545 
L 248.494753 61.114098 
L 248.499763 59.82285 
L 248.504772 58.78796 
L 248.509782 58.085909 
L 248.514791 57.75794 
L 248.519801 57.853272 
L 248.524811 58.225069 
L 248.52982 58.460318 
L 248.53483 58.26133 
L 248.539839 57.850076 
L 248.544849 57.573864 
L 248.549858 57.480848 
L 248.554868 57.487978 
L 248.559878 57.611825 
L 248.564887 57.955352 
L 248.569897 58.433067 
L 248.574906 58.622163 
L 248.579916 58.304995 
L 248.584926 57.833018 
L 248.589935 57.558125 
L 248.594945 57.472881 
L 248.599954 57.457879 
L 248.604964 57.45881 
L 248.609973 57.481031 
L 248.614983 57.597197 
L 248.619993 57.941899 
L 248.625002 58.475951 
L 248.630012 58.761941 
L 248.630012 56.150059 
L 248.630012 56.150059 
L 248.625002 56.436049 
L 248.619993 56.970101 
L 248.614983 57.314803 
L 248.609973 57.430969 
L 248.604964 57.45319 
L 248.599954 57.454121 
L 248.594945 57.439119 
L 248.589935 57.353875 
L 248.584926 57.078982 
L 248.579916 56.607005 
L 248.574906 56.289837 
L 248.569897 56.478933 
L 248.564887 56.956648 
L 248.559878 57.300175 
L 248.554868 57.424022 
L 248.549858 57.431152 
L 248.544849 57.338136 
L 248.539839 57.061924 
L 248.53483 56.65067 
L 248.52982 56.451682 
L 248.524811 56.686931 
L 248.519801 57.058728 
L 248.514791 57.15406 
L 248.509782 56.826091 
L 248.504772 56.12404 
L 248.499763 55.08915 
L 248.494753 53.797902 
L 248.489744 52.879455 
L 248.484734 53.086572 
L 248.479724 53.979654 
L 248.474715 54.41383 
L 248.469705 54.413995 
L 248.464696 54.872787 
L 248.459686 55.552278 
L 248.454677 55.333458 
L 248.449667 54.086909 
L 248.444657 53.003315 
L 248.439648 52.934218 
L 248.434638 53.028848 
L 248.429629 52.029671 
L 248.424619 50.480577 
L 248.41961 49.965808 
L 248.4146 50.504421 
L 248.40959 50.497551 
L 248.404581 49.373865 
L 248.399571 48.574464 
L 248.394562 48.996059 
L 248.389552 49.470342 
L 248.384543 48.901776 
L 248.379533 47.764737 
L 248.374523 46.424744 
L 248.369514 44.72628 
L 248.364504 43.868137 
L 248.359495 44.702876 
L 248.354485 45.315098 
L 248.349475 44.165425 
L 248.344466 43.154967 
L 248.339456 44.588542 
L 248.334447 47.618124 
L 248.329437 49.1597 
L 248.324428 47.149757 
L 248.319418 42.7903 
L 248.314408 39.464994 
L 248.309399 38.5933 
L 248.304389 38.575778 
L 248.29938 38.395923 
L 248.29437 37.719429 
L 248.289361 36.537613 
L 248.284351 36.432 
L 248.279341 37.989637 
L 248.274332 40.064109 
L 248.269322 42.376849 
L 248.264313 45.538264 
L 248.259303 49.206143 
L 248.254294 51.924924 
L 248.249284 53.051611 
L 248.244274 53.348293 
L 248.239265 53.15027 
L 248.234255 52.428402 
L 248.229246 51.865904 
L 248.224236 52.065334 
L 248.219227 53.059849 
L 248.214217 54.582313 
L 248.209207 55.850136 
L 248.204198 56.193966 
L 248.199188 56.02195 
L 248.194179 56.171104 
L 248.189169 56.691041 
L 248.18416 57.007652 
L 248.17915 56.600982 
L 248.17414 55.018237 
L 248.169131 52.436525 
L 248.164121 50.232033 
L 248.159112 49.538428 
L 248.154102 50.250952 
L 248.149093 51.725944 
L 248.144083 52.958525 
L 248.139073 53.444882 
L 248.134064 53.957158 
z
" clip-path="url(#pa40b0de09b)" style="fill: #1f77b4; fill-opacity: 0.3"/>
   </g>
   <g id="matplotlib.axis_1">
    <g id="xtick_1">
     <g id="line2d_1">
      <path d="M 168.48 183.6 
L 168.48 25.92 
" clip-path="url(#pa40b0de09b)" style="fill: none; stroke: #b0b0b0; stroke-width: 0.1; stroke-linecap: square"/>
     </g>
     <g id="line2d_2">
      <defs>
       <path id="ma79cdb64d1" d="M 0 0 
L 0 3.5 
" style="stroke: #000000; stroke-width: 0.8"/>
      </defs>
      <g>
       <use xlink:href="#ma79cdb64d1" x="168.48" y="183.6" style="stroke: #000000; stroke-width: 0.8"/>
      </g>
     </g>
     <g id="text_1">
      <text style="font: 8px 'Arial', 'DejaVu Sans', sans-serif; text-anchor: middle" x="168.48" y="196.67875" transform="rotate(-0 168.48 196.67875)">0</text>
     </g>
    </g>
    <g id="xtick_2">
     <g id="line2d_3">
      <path d="M 218.16 183.6 
L 218.16 25.92 
" clip-path="url(#pa40b0de09b)" style="fill: none; stroke: #b0b0b0; stroke-width: 0.1; stroke-linecap: square"/>
     </g>
     <g id="line2d_4">
      <g>
       <use xlink:href="#ma79cdb64d1" x="218.16" y="183.6" style="stroke: #000000; stroke-width: 0.8"/>
      </g>
     </g>
     <g id="text_2">
      <text style="font: 8px 'Arial', 'DejaVu Sans', sans-serif; text-anchor: middle" x="218.16" y="196.67875" transform="rotate(-0 218.16 196.67875)">10</text>
     </g>
    </g>
    <g id="xtick_3">
     <g id="line2d_5">
      <path d="M 267.84 183.6 
L 267.84 25.92 
" clip-path="url(#pa40b0de09b)" style="fill: none; stroke: #b0b0b0; stroke-width: 0.1; stroke-linecap: square"/>
     </g>
     <g id="line2d_6">
      <g>
       <use xlink:href="#ma79cdb64d1" x="267.84" y="183.6" style="stroke: #000000; stroke-width: 0.8"/>
      </g>
     </g>
     <g id="text_3">
      <text style="font: 8px 'Arial', 'DejaVu Sans', sans-serif; text-anchor: middle" x="267.84" y="196.67875" transform="rotate(-0 267.84 196.67875)">20</text>
     </g>
    </g>
    <g id="xtick_4">
     <g id="line2d_7">
      <path d="M 317.52 183.6 
L 317.52 25.92 
" clip-path="url(#pa40b0de09b)" style="fill: none; stroke: #b0b0b0; stroke-width: 0.1; stroke-linecap: square"/>
     </g>
     <g id="line2d_8">
      <g>
       <use xlink:href="#ma79cdb64d1" x="317.52" y="183.6" style="stroke: #000000; stroke-width: 0.8"/>
      </g>
     </g>
     <g id="text_4">
      <text style="font: 8px 'Arial', 'DejaVu Sans', sans-serif; text-anchor: middle" x="317.52" y="196.67875" transform="rotate(-0 317.52 196.67875)">30</text>
     </g>
    </g>
    <g id="xtick_5">
     <g id="line2d_9">
      <path d="M 367.2 183.6 
L 367.2 25.92 
" clip-path="url(#pa40b0de09b)" style="fill: none; stroke: #b0b0b0; stroke-width: 0.1; stroke-linecap: square"/>
     </g>
     <g id="line2d_10">
      <g>
       <use xlink:href="#ma79cdb64d1" x="367.2" y="183.6" style="stroke: #000000; stroke-width: 0.8"/>
      </g>
     </g>
     <g id="text_5">
      <text style="font: 8px 'Arial', 'DejaVu Sans', sans-serif; text-anchor: middle" x="367.2" y="196.67875" transform="rotate(-0 367.2 196.67875)">40</text>
     </g>
    </g>
    <g id="xtick_6">
     <g id="line2d_11">
      <path d="M 416.88 183.6 
L 416.88 25.92 
" clip-path="url(#pa40b0de09b)" style="fill: none; stroke: #b0b0b0; stroke-width: 0.1; stroke-linecap: square"/>
     </g>
     <g id="line2d_12">
      <g>
       <use xlink:href="#ma79cdb64d1" x="416.88" y="183.6" style="stroke: #000000; stroke-width: 0.8"/>
      </g>
     </g>
     <g id="text_6">
      <text style="font: 8px 'Arial', 'DejaVu Sans', sans-serif; text-anchor: middle" x="416.88" y="196.67875" transform="rotate(-0 416.88 196.67875)">50</text>
     </g>
    </g>
    <g id="xtick_7">
     <g id="line2d_13">
      <path d="M 466.56 183.6 
L 466.56 25.92 
" clip-path="url(#pa40b0de09b)" style="fill: none; stroke: #b0b0b0; stroke-width: 0.1; stroke-linecap: square"/>
     </g>
     <g id="line2d_14">
      <g>
       <use xlink:href="#ma79cdb64d1" x="466.56" y="183.6" style="stroke: #000000; stroke-width: 0.8"/>
      </g>
     </g>
     <g id="text_7">
      <text style="font: 8px 'Arial', 'DejaVu Sans', sans-serif; text-anchor: middle" x="466.56" y="196.67875" transform="rotate(-0 466.56 196.67875)">60</text>
     </g>
    </g>
    <g id="xtick_8">
     <g id="line2d_15">
      <path d="M 516.24 183.6 
L 516.24 25.92 
" clip-path="url(#pa40b0de09b)" style="fill: none; stroke: #b0b0b0; stroke-width: 0.1; stroke-linecap: square"/>
     </g>
     <g id="line2d_16">
      <g>
       <use xlink:href="#ma79cdb64d1" x="516.24" y="183.6" style="stroke: #000000; stroke-width: 0.8"/>
      </g>
     </g>
     <g id="text_8">
      <text style="font: 8px 'Arial', 'DejaVu Sans', sans-serif; text-anchor: middle" x="516.24" y="196.67875" transform="rotate(-0 516.24 196.67875)">70</text>
     </g>
    </g>
    <g id="xtick_9">
     <g id="line2d_17">
      <path d="M 565.92 183.6 
L 565.92 25.92 
" clip-path="url(#pa40b0de09b)" style="fill: none; stroke: #b0b0b0; stroke-width: 0.1; stroke-linecap: square"/>
     </g>
     <g id="line2d_18">
      <g>
       <use xlink:href="#ma79cdb64d1" x="565.92" y="183.6" style="stroke: #000000; stroke-width: 0.8"/>
      </g>
     </g>
     <g id="text_9">
      <text style="font: 8px 'Arial', 'DejaVu Sans', sans-serif; text-anchor: middle" x="565.92" y="196.67875" transform="rotate(-0 565.92 196.67875)">80</text>
     </g>
    </g>
    <g id="xtick_10">
     <g id="line2d_19">
      <defs>
       <path id="m2e2d79d894" d="M 0 0 
L 0 2 
" style="stroke: #000000; stroke-width: 0.6"/>
      </defs>
      <g>
       <use xlink:href="#m2e2d79d894" x="193.32" y="183.6" style="stroke: #000000; stroke-width: 0.6"/>
      </g>
     </g>
    </g>
    <g id="xtick_11">
     <g id="line2d_20">
      <g>
       <use xlink:href="#m2e2d79d894" x="243" y="183.6" style="stroke: #000000; stroke-width: 0.6"/>
      </g>
     </g>
    </g>
    <g id="xtick_12">
     <g id="line2d_21">
      <g>
       <use xlink:href="#m2e2d79d894" x="292.68" y="183.6" style="stroke: #000000; stroke-width: 0.6"/>
      </g>
     </g>
    </g>
    <g id="xtick_13">
     <g id="line2d_22">
      <g>
       <use xlink:href="#m2e2d79d894" x="342.36" y="183.6" style="stroke: #000000; stroke-width: 0.6"/>
      </g>
     </g>
    </g>
    <g id="xtick_14">
     <g id="line2d_23">
      <g>
       <use xlink:href="#m2e2d79d894" x="392.04" y="183.6" style="stroke: #000000; stroke-width: 0.6"/>
      </g>
     </g>
    </g>
    <g id="xtick_15">
     <g id="line2d_24">
      <g>
       <use xlink:href="#m2e2d79d894" x="441.72" y="183.6" style="stroke: #000000; stroke-width: 0.6"/>
      </g>
     </g>
    </g>
    <g id="xtick_16">
     <g id="line2d_25">
      <g>
       <use xlink:href="#m2e2d79d894" x="491.4" y="183.6" style="stroke: #000000; stroke-width: 0.6"/>
      </g>
     </g>
    </g>
    <g id="xtick_17">
     <g id="line2d_26">
      <g>
       <use xlink:href="#m2e2d79d894" x="541.08" y="183.6" style="stroke: #000000; stroke-width: 0.6"/>
      </g>
     </g>
    </g>
    <g id="xtick_18">
     <g id="line2d_27">
      <g>
       <use xlink:href="#m2e2d79d894" x="590.76" y="183.6" style="stroke: #000000; stroke-width: 0.6"/>
      </g>
     </g>
    </g>
    <g id="text_10">
     <text style="font: 8px 'Arial', 'DejaVu Sans', sans-serif; text-anchor: middle" x="392.04" y="208.42125" transform="rotate(-0 392.04 208.42125)">microseconds</text>
    </g>
   </g>
   <g id="matplotlib.axis_2">
    <g id="ytick_1">
     <g id="line2d_28">
      <path d="M 168.48 141.552 
L 615.6 141.552 
" clip-path="url(#pa40b0de09b)" style="fill: none; stroke: #b0b0b0; stroke-width: 0.1; stroke-linecap: square"/>
     </g>
     <g id="line2d_29">
      <defs>
       <path id="m5baff577e5" d="M 0 0 
L -3.5 0 
" style="stroke: #000000; stroke-width: 0.8"/>
      </defs>
      <g>
       <use xlink:href="#m5baff577e5" x="168.48" y="141.552" style="stroke: #000000; stroke-width: 0.8"/>
      </g>
     </g>
     <g id="text_11">
      <text style="font: 8px 'Arial', 'DejaVu Sans', sans-serif; text-anchor: end" x="161.48" y="144.591375" transform="rotate(-0 161.48 144.591375)">X25519MLKEM768, X25519</text>
     </g>
    </g>
    <g id="ytick_2">
     <g id="line2d_30">
      <path d="M 168.48 99.504 
L 615.6 99.504 
" clip-path="url(#pa40b0de09b)" style="fill: none; stroke: #b0b0b0; stroke-width: 0.1; stroke-linecap: square"/>
     </g>
     <g id="line2d_31">
      <g>
       <use xlink:href="#m5baff577e5" x="168.48" y="99.504" style="stroke: #000000; stroke-width: 0.8"/>
      </g>
     </g>
     <g id="text_12">
      <text style="font: 8px 'Arial', 'DejaVu Sans', sans-serif; text-anchor: end" x="161.48" y="102.543375" transform="rotate(-0 161.48 102.543375)">X25519MLKEM768, X25519 optimized</text>
     </g>
    </g>
    <g id="ytick_3">
     <g id="line2d_32">
      <path d="M 168.48 57.456 
L 615.6 57.456 
" clip-path="url(#pa40b0de09b)" style="fill: none; stroke: #b0b0b0; stroke-width: 0.1; stroke-linecap: square"/>
     </g>
     <g id="line2d_33">
      <g>
       <use xlink:href="#m5baff577e5" x="168.48" y="57.456" style="stroke: #000000; stroke-width: 0.8"/>
      </g>
     </g>
     <g id="text_13">
      <text style="font: 8px 'Arial', 'DejaVu Sans', sans-serif; text-anchor: end" x="161.48" y="60.495375" transform="rotate(-0 161.48 60.495375)">X25519 alone</text>
     </g>
    </g>
   </g>
   <g id="LineCollection_1">
    <path d="M 564.468962 152.064 
L 564.468962 131.04 
" clip-path="url(#pa40b0de09b)" style="fill: none; stroke: #1f77b4; stroke-width: 1.5"/>
    <path d="M 518.426502 110.016 
L 518.426502 88.992 
" clip-path="url(#pa40b0de09b)" style="fill: none; stroke: #1f77b4; stroke-width: 1.5"/>
    <path d="M 248.314288 67.968 
L 248.314288 46.944 
" clip-path="url(#pa40b0de09b)" style="fill: none; stroke: #1f77b4; stroke-width: 1.5"/>
   </g>
   <g id="patch_3">
    <path d="M 168.48 183.6 
L 168.48 25.92 
" style="fill: none; stroke: #000000; stroke-width: 0.8; stroke-linejoin: miter; stroke-linecap: square"/>
   </g>
   <g id="patch_4">
    <path d="M 615.6 183.6 
L 615.6 25.92 
" style="fill: none; stroke: #000000; stroke-width: 0.8; stroke-linejoin: miter; stroke-linecap: square"/>
   </g>
   <g id="patch_5">
    <path d="M 168.48 183.6 
L 615.6 183.6 
" style="fill: none; stroke: #000000; stroke-width: 0.8; stroke-linejoin: miter; stroke-linecap: square"/>
   </g>
   <g id="patch_6">
    <path d="M 168.48 25.92 
L 615.6 25.92 
" style="fill: none; stroke: #000000; stroke-width: 0.8; stroke-linejoin: miter; stroke-linecap: square"/>
   </g>
  </g>
  <g id="text_14">
   <text style="font: 9.6px 'Arial', 'DejaVu Sans', sans-serif; text-anchor: middle" x="324" y="11.6145" transform="rotate(-0 324 11.6145)">Micro benchmark of ClientHello production (amd64)</text>
  </g>
 </g>
 <defs>
  <clipPath id="pa40b0de09b">
   <rect x="168.48" y="25.92" width="447.12" height="157.68"/>
  </clipPath>
 </defs>
</svg>
