<?xml version="1.0" encoding="utf-8" standalone="no"?>
<!DOCTYPE svg PUBLIC "-//W3C//DTD SVG 1.1//EN"
  "http://www.w3.org/Graphics/SVG/1.1/DTD/svg11.dtd">
<svg xmlns:xlink="http://www.w3.org/1999/xlink" width="648pt" height="432pt" viewBox="0 0 648 432" xmlns="http://www.w3.org/2000/svg" version="1.1">
 <metadata>
  <rdf:RDF xmlns:dc="http://purl.org/dc/elements/1.1/" xmlns:cc="http://creativecommons.org/ns#" xmlns:rdf="http://www.w3.org/1999/02/22-rdf-syntax-ns#">
   <cc:Work>
    <dc:type rdf:resource="http://purl.org/dc/dcmitype/StillImage"/>
    <dc:date>2025-08-04T08:51:49.926885</dc:date>
    <dc:format>image/svg+xml</dc:format>
    <dc:creator>
     <cc:Agent>
      <dc:title>Matplotlib v3.6.3, https://matplotlib.org/</dc:title>
     </cc:Agent>
    </dc:creator>
   </cc:Work>
  </rdf:RDF>
 </metadata>
 <defs>
  <style type="text/css">*{stroke-linejoin: round; stroke-linecap: butt}</style>
 </defs>
 <g id="figure_1">
  <g id="patch_1">
   <path d="M 0 432 
L 648 432 
L 648 0 
L 0 0 
z
" style="fill: #ffffff"/>
  </g>
  <g id="axes_1">
   <g id="patch_2">
    <path d="M 149.04 388.8 
L 615.6 388.8 
L 615.6 51.84 
L 149.04 51.84 
z
" style="fill: #ffffff"/>
   </g>
   <g id="patch_3">
    <path d="M 149.04 67.156364 
L 324.41285 67.156364 
L 324.41285 75.154465 
L 149.04 75.154465 
z
" clip-path="url(#pc5cfa2f5cf)" style="fill: #1f77b4"/>
   </g>
   <g id="patch_4">
    <path d="M 149.04 107.146869 
L 196.262242 107.146869 
L 196.262242 115.14497 
L 149.04 115.14497 
z
" clip-path="url(#pc5cfa2f5cf)" style="fill: #1f77b4"/>
   </g>
   <g id="patch_5">
    <path d="M 149.04 147.137375 
L 261.763189 147.137375 
L 261.763189 155.135476 
L 149.04 155.135476 
z
" clip-path="url(#pc5cfa2f5cf)" style="fill: #1f77b4"/>
   </g>
   <g id="patch_6">
    <path d="M 149.04 187.12788 
L 445.830846 187.12788 
L 445.830846 195.125981 
L 149.04 195.125981 
z
" clip-path="url(#pc5cfa2f5cf)" style="fill: #1f77b4"/>
   </g>
   <g id="patch_7">
    <path d="M 149.04 227.118386 
L 251.011567 227.118386 
L 251.011567 235.116487 
L 149.04 235.116487 
z
" clip-path="url(#pc5cfa2f5cf)" style="fill: #1f77b4"/>
   </g>
   <g id="patch_8">
    <path d="M 149.04 267.108892 
L 190.99459 267.108892 
L 190.99459 275.106993 
L 149.04 275.106993 
z
" clip-path="url(#pc5cfa2f5cf)" style="fill: #1f77b4"/>
   </g>
   <g id="patch_9">
    <path d="M 149.04 307.099397 
L 225.542819 307.099397 
L 225.542819 315.097498 
L 149.04 315.097498 
z
" clip-path="url(#pc5cfa2f5cf)" style="fill: #1f77b4"/>
   </g>
   <g id="patch_10">
    <path d="M 149.04 347.089903 
L 315.889661 347.089903 
L 315.889661 355.088004 
L 149.04 355.088004 
z
" clip-path="url(#pc5cfa2f5cf)" style="fill: #1f77b4"/>
   </g>
   <g id="patch_11">
    <path d="M 149.04 76.35418 
L 255.12846 76.35418 
L 255.12846 84.352281 
L 149.04 84.352281 
z
" clip-path="url(#pc5cfa2f5cf)" style="fill: #ff7f0e"/>
   </g>
   <g id="patch_12">
    <path d="M 149.04 116.344685 
L 219.808272 116.344685 
L 219.808272 124.342787 
L 149.04 124.342787 
z
" clip-path="url(#pc5cfa2f5cf)" style="fill: #ff7f0e"/>
   </g>
   <g id="patch_13">
    <path d="M 149.04 156.335191 
L 220.674523 156.335191 
L 220.674523 164.333292 
L 149.04 164.333292 
z
" clip-path="url(#pc5cfa2f5cf)" style="fill: #ff7f0e"/>
   </g>
   <g id="patch_14">
    <path d="M 149.04 196.325697 
L 317.983997 196.325697 
L 317.983997 204.323798 
L 149.04 204.323798 
z
" clip-path="url(#pc5cfa2f5cf)" style="fill: #ff7f0e"/>
   </g>
   <g id="patch_15">
    <path d="M 149.04 236.316202 
L 221.544363 236.316202 
L 221.544363 244.314303 
L 149.04 244.314303 
z
" clip-path="url(#pc5cfa2f5cf)" style="fill: #ff7f0e"/>
   </g>
   <g id="patch_16">
    <path d="M 149.04 276.306708 
L 204.970753 276.306708 
L 204.970753 284.304809 
L 149.04 284.304809 
z
" clip-path="url(#pc5cfa2f5cf)" style="fill: #ff7f0e"/>
   </g>
   <g id="patch_17">
    <path d="M 149.04 316.297213 
L 202.893057 316.297213 
L 202.893057 324.295315 
L 149.04 324.295315 
z
" clip-path="url(#pc5cfa2f5cf)" style="fill: #ff7f0e"/>
   </g>
   <g id="patch_18">
    <path d="M 149.04 356.287719 
L 252.900678 356.287719 
L 252.900678 364.28582 
L 149.04 364.28582 
z
" clip-path="url(#pc5cfa2f5cf)" style="fill: #ff7f0e"/>
   </g>
   <g id="patch_19">
    <path d="M 149.04 85.551996 
L 416.7891 85.551996 
L 416.7891 93.550097 
L 149.04 93.550097 
z
" clip-path="url(#pc5cfa2f5cf)" style="fill: #2ca02c"/>
   </g>
   <g id="patch_20">
    <path d="M 149.04 125.542502 
L 242.282175 125.542502 
L 242.282175 133.540603 
L 149.04 133.540603 
z
" clip-path="url(#pc5cfa2f5cf)" style="fill: #2ca02c"/>
   </g>
   <g id="patch_21">
    <path d="M 149.04 165.533007 
L 290.806566 165.533007 
L 290.806566 173.531108 
L 149.04 173.531108 
z
" clip-path="url(#pc5cfa2f5cf)" style="fill: #2ca02c"/>
   </g>
   <g id="patch_22">
    <path d="M 149.04 205.523513 
L 593.382857 205.523513 
L 593.382857 213.521614 
L 149.04 213.521614 
z
" clip-path="url(#pc5cfa2f5cf)" style="fill: #2ca02c"/>
   </g>
   <g id="patch_23">
    <path d="M 149.04 245.514019 
L 285.658982 245.514019 
L 285.658982 253.51212 
L 149.04 253.51212 
z
" clip-path="url(#pc5cfa2f5cf)" style="fill: #2ca02c"/>
   </g>
   <g id="patch_24">
    <path d="M 149.04 285.504524 
L 223.205737 285.504524 
L 223.205737 293.502625 
L 149.04 293.502625 
z
" clip-path="url(#pc5cfa2f5cf)" style="fill: #2ca02c"/>
   </g>
   <g id="patch_25">
    <path d="M 149.04 325.49503 
L 243.16376 325.49503 
L 243.16376 333.493131 
L 149.04 333.493131 
z
" clip-path="url(#pc5cfa2f5cf)" style="fill: #2ca02c"/>
   </g>
   <g id="patch_26">
    <path d="M 149.04 365.485535 
L 352.297637 365.485535 
L 352.297637 373.483636 
L 149.04 373.483636 
z
" clip-path="url(#pc5cfa2f5cf)" style="fill: #2ca02c"/>
   </g>
   <g id="matplotlib.axis_1">
    <g id="xtick_1">
     <g id="line2d_1">
      <path d="M 149.04 388.8 
L 149.04 51.84 
" clip-path="url(#pc5cfa2f5cf)" style="fill: none; stroke: #b0b0b0; stroke-width: 0.1; stroke-linecap: square"/>
     </g>
     <g id="line2d_2">
      <defs>
       <path id="m883205961d" d="M 0 0 
L 0 3.5 
" style="stroke: #000000; stroke-width: 0.8"/>
      </defs>
      <g>
       <use xlink:href="#m883205961d" x="149.04" y="388.8" style="stroke: #000000; stroke-width: 0.8"/>
      </g>
     </g>
     <g id="text_1">
      <text style="font: 8px 'Arial', 'DejaVu Sans', sans-serif; text-anchor: middle" x="149.04" y="401.87875" transform="rotate(-0 149.04 401.87875)">0</text>
     </g>
    </g>
    <g id="xtick_2">
     <g id="line2d_3">
      <path d="M 214.294285 388.8 
L 214.294285 51.84 
" clip-path="url(#pc5cfa2f5cf)" style="fill: none; stroke: #b0b0b0; stroke-width: 0.1; stroke-linecap: square"/>
     </g>
     <g id="line2d_4">
      <g>
       <use xlink:href="#m883205961d" x="214.294285" y="388.8" style="stroke: #000000; stroke-width: 0.8"/>
      </g>
     </g>
     <g id="text_2">
      <text style="font: 8px 'Arial', 'DejaVu Sans', sans-serif; text-anchor: middle" x="214.294285" y="401.87875" transform="rotate(-0 214.294285 401.87875)">2000</text>
     </g>
    </g>
    <g id="xtick_3">
     <g id="line2d_5">
      <path d="M 279.548571 388.8 
L 279.548571 51.84 
" clip-path="url(#pc5cfa2f5cf)" style="fill: none; stroke: #b0b0b0; stroke-width: 0.1; stroke-linecap: square"/>
     </g>
     <g id="line2d_6">
      <g>
       <use xlink:href="#m883205961d" x="279.548571" y="388.8" style="stroke: #000000; stroke-width: 0.8"/>
      </g>
     </g>
     <g id="text_3">
      <text style="font: 8px 'Arial', 'DejaVu Sans', sans-serif; text-anchor: middle" x="279.548571" y="401.87875" transform="rotate(-0 279.548571 401.87875)">4000</text>
     </g>
    </g>
    <g id="xtick_4">
     <g id="line2d_7">
      <path d="M 344.802856 388.8 
L 344.802856 51.84 
" clip-path="url(#pc5cfa2f5cf)" style="fill: none; stroke: #b0b0b0; stroke-width: 0.1; stroke-linecap: square"/>
     </g>
     <g id="line2d_8">
      <g>
       <use xlink:href="#m883205961d" x="344.802856" y="388.8" style="stroke: #000000; stroke-width: 0.8"/>
      </g>
     </g>
     <g id="text_4">
      <text style="font: 8px 'Arial', 'DejaVu Sans', sans-serif; text-anchor: middle" x="344.802856" y="401.87875" transform="rotate(-0 344.802856 401.87875)">6000</text>
     </g>
    </g>
    <g id="xtick_5">
     <g id="line2d_9">
      <path d="M 410.057142 388.8 
L 410.057142 51.84 
" clip-path="url(#pc5cfa2f5cf)" style="fill: none; stroke: #b0b0b0; stroke-width: 0.1; stroke-linecap: square"/>
     </g>
     <g id="line2d_10">
      <g>
       <use xlink:href="#m883205961d" x="410.057142" y="388.8" style="stroke: #000000; stroke-width: 0.8"/>
      </g>
     </g>
     <g id="text_5">
      <text style="font: 8px 'Arial', 'DejaVu Sans', sans-serif; text-anchor: middle" x="410.057142" y="401.87875" transform="rotate(-0 410.057142 401.87875)">8000</text>
     </g>
    </g>
    <g id="xtick_6">
     <g id="line2d_11">
      <path d="M 475.311427 388.8 
L 475.311427 51.84 
" clip-path="url(#pc5cfa2f5cf)" style="fill: none; stroke: #b0b0b0; stroke-width: 0.1; stroke-linecap: square"/>
     </g>
     <g id="line2d_12">
      <g>
       <use xlink:href="#m883205961d" x="475.311427" y="388.8" style="stroke: #000000; stroke-width: 0.8"/>
      </g>
     </g>
     <g id="text_6">
      <text style="font: 8px 'Arial', 'DejaVu Sans', sans-serif; text-anchor: middle" x="475.311427" y="401.87875" transform="rotate(-0 475.311427 401.87875)">10000</text>
     </g>
    </g>
    <g id="xtick_7">
     <g id="line2d_13">
      <path d="M 540.565712 388.8 
L 540.565712 51.84 
" clip-path="url(#pc5cfa2f5cf)" style="fill: none; stroke: #b0b0b0; stroke-width: 0.1; stroke-linecap: square"/>
     </g>
     <g id="line2d_14">
      <g>
       <use xlink:href="#m883205961d" x="540.565712" y="388.8" style="stroke: #000000; stroke-width: 0.8"/>
      </g>
     </g>
     <g id="text_7">
      <text style="font: 8px 'Arial', 'DejaVu Sans', sans-serif; text-anchor: middle" x="540.565712" y="401.87875" transform="rotate(-0 540.565712 401.87875)">12000</text>
     </g>
    </g>
    <g id="xtick_8">
     <g id="line2d_15">
      <path d="M 605.819998 388.8 
L 605.819998 51.84 
" clip-path="url(#pc5cfa2f5cf)" style="fill: none; stroke: #b0b0b0; stroke-width: 0.1; stroke-linecap: square"/>
     </g>
     <g id="line2d_16">
      <g>
       <use xlink:href="#m883205961d" x="605.819998" y="388.8" style="stroke: #000000; stroke-width: 0.8"/>
      </g>
     </g>
     <g id="text_8">
      <text style="font: 8px 'Arial', 'DejaVu Sans', sans-serif; text-anchor: middle" x="605.819998" y="401.87875" transform="rotate(-0 605.819998 401.87875)">14000</text>
     </g>
    </g>
    <g id="text_9">
     <text style="font: 8px 'Arial', 'DejaVu Sans', sans-serif; text-anchor: middle" x="382.32" y="413.62125" transform="rotate(-0 382.32 413.62125)">full handshakes per second (single core)</text>
    </g>
   </g>
   <g id="matplotlib.axis_2">
    <g id="ytick_1">
     <g id="line2d_17">
      <defs>
       <path id="m18a1d30054" d="M 0 0 
L -3.5 0 
" style="stroke: #000000; stroke-width: 0.8"/>
      </defs>
      <g>
       <use xlink:href="#m18a1d30054" x="149.04" y="79.153515" style="stroke: #000000; stroke-width: 0.8"/>
      </g>
     </g>
     <g id="text_10">
      <text style="font: 8px 'Arial', 'DejaVu Sans', sans-serif; text-anchor: end" x="142.04" y="82.19289" transform="rotate(-0 142.04 82.19289)">full handshakes, 1.2, rsa, client</text>
     </g>
    </g>
    <g id="ytick_2">
     <g id="line2d_18">
      <g>
       <use xlink:href="#m18a1d30054" x="149.04" y="119.144021" style="stroke: #000000; stroke-width: 0.8"/>
      </g>
     </g>
     <g id="text_11">
      <text style="font: 8px 'Arial', 'DejaVu Sans', sans-serif; text-anchor: end" x="142.04" y="122.183396" transform="rotate(-0 142.04 122.183396)">full handshakes, 1.2, rsa, server</text>
     </g>
    </g>
    <g id="ytick_3">
     <g id="line2d_19">
      <g>
       <use xlink:href="#m18a1d30054" x="149.04" y="159.134526" style="stroke: #000000; stroke-width: 0.8"/>
      </g>
     </g>
     <g id="text_12">
      <text style="font: 8px 'Arial', 'DejaVu Sans', sans-serif; text-anchor: end" x="142.04" y="162.173901" transform="rotate(-0 142.04 162.173901)">full handshakes, 1.2, ecdsa, client</text>
     </g>
    </g>
    <g id="ytick_4">
     <g id="line2d_20">
      <g>
       <use xlink:href="#m18a1d30054" x="149.04" y="199.125032" style="stroke: #000000; stroke-width: 0.8"/>
      </g>
     </g>
     <g id="text_13">
      <text style="font: 8px 'Arial', 'DejaVu Sans', sans-serif; text-anchor: end" x="142.04" y="202.164407" transform="rotate(-0 142.04 202.164407)">full handshakes, 1.2, ecdsa, server</text>
     </g>
    </g>
    <g id="ytick_5">
     <g id="line2d_21">
      <g>
       <use xlink:href="#m18a1d30054" x="149.04" y="239.115538" style="stroke: #000000; stroke-width: 0.8"/>
      </g>
     </g>
     <g id="text_14">
      <text style="font: 8px 'Arial', 'DejaVu Sans', sans-serif; text-anchor: end" x="142.04" y="242.154913" transform="rotate(-0 142.04 242.154913)">full handshakes, 1.3, rsa, client</text>
     </g>
    </g>
    <g id="ytick_6">
     <g id="line2d_22">
      <g>
       <use xlink:href="#m18a1d30054" x="149.04" y="279.106043" style="stroke: #000000; stroke-width: 0.8"/>
      </g>
     </g>
     <g id="text_15">
      <text style="font: 8px 'Arial', 'DejaVu Sans', sans-serif; text-anchor: end" x="142.04" y="282.145418" transform="rotate(-0 142.04 282.145418)">full handshakes, 1.3, rsa, server</text>
     </g>
    </g>
    <g id="ytick_7">
     <g id="line2d_23">
      <g>
       <use xlink:href="#m18a1d30054" x="149.04" y="319.096549" style="stroke: #000000; stroke-width: 0.8"/>
      </g>
     </g>
     <g id="text_16">
      <text style="font: 8px 'Arial', 'DejaVu Sans', sans-serif; text-anchor: end" x="142.04" y="322.135924" transform="rotate(-0 142.04 322.135924)">full handshakes, 1.3, ecdsa, client</text>
     </g>
    </g>
    <g id="ytick_8">
     <g id="line2d_24">
      <g>
       <use xlink:href="#m18a1d30054" x="149.04" y="359.087054" style="stroke: #000000; stroke-width: 0.8"/>
      </g>
     </g>
     <g id="text_17">
      <text style="font: 8px 'Arial', 'DejaVu Sans', sans-serif; text-anchor: end" x="142.04" y="362.126429" transform="rotate(-0 142.04 362.126429)">full handshakes, 1.3, ecdsa, server</text>
     </g>
    </g>
   </g>
   <g id="patch_27">
    <path d="M 149.04 388.8 
L 149.04 51.84 
" style="fill: none; stroke: #000000; stroke-width: 0.8; stroke-linejoin: miter; stroke-linecap: square"/>
   </g>
   <g id="patch_28">
    <path d="M 615.6 388.8 
L 615.6 51.84 
" style="fill: none; stroke: #000000; stroke-width: 0.8; stroke-linejoin: miter; stroke-linecap: square"/>
   </g>
   <g id="patch_29">
    <path d="M 149.04 388.8 
L 615.6 388.8 
" style="fill: none; stroke: #000000; stroke-width: 0.8; stroke-linejoin: miter; stroke-linecap: square"/>
   </g>
   <g id="patch_30">
    <path d="M 149.04 51.84 
L 615.6 51.84 
" style="fill: none; stroke: #000000; stroke-width: 0.8; stroke-linejoin: miter; stroke-linecap: square"/>
   </g>
   <g id="text_18">
    <text style="font: 8px 'Arial', 'DejaVu Sans', sans-serif; text-anchor: start" x="327.41285" y="73.362914" transform="rotate(-0 327.41285 73.362914)">5375</text>
   </g>
   <g id="text_19">
    <text style="font: 8px 'Arial', 'DejaVu Sans', sans-serif; text-anchor: start" x="199.262242" y="113.35342" transform="rotate(-0 199.262242 113.35342)">1447</text>
   </g>
   <g id="text_20">
    <text style="font: 8px 'Arial', 'DejaVu Sans', sans-serif; text-anchor: start" x="264.763189" y="153.343925" transform="rotate(-0 264.763189 153.343925)">3454</text>
   </g>
   <g id="text_21">
    <text style="font: 8px 'Arial', 'DejaVu Sans', sans-serif; text-anchor: start" x="448.830846" y="193.334431" transform="rotate(-0 448.830846 193.334431)">9096</text>
   </g>
   <g id="text_22">
    <text style="font: 8px 'Arial', 'DejaVu Sans', sans-serif; text-anchor: start" x="254.011567" y="233.324937" transform="rotate(-0 254.011567 233.324937)">3125</text>
   </g>
   <g id="text_23">
    <text style="font: 8px 'Arial', 'DejaVu Sans', sans-serif; text-anchor: start" x="193.99459" y="273.315442" transform="rotate(-0 193.99459 273.315442)">1285</text>
   </g>
   <g id="text_24">
    <text style="font: 8px 'Arial', 'DejaVu Sans', sans-serif; text-anchor: start" x="228.542819" y="313.305948" transform="rotate(-0 228.542819 313.305948)">2344</text>
   </g>
   <g id="text_25">
    <text style="font: 8px 'Arial', 'DejaVu Sans', sans-serif; text-anchor: start" x="318.889661" y="353.296453" transform="rotate(-0 318.889661 353.296453)">5113</text>
   </g>
   <g id="text_26">
    <text style="font: 8px 'Arial', 'DejaVu Sans', sans-serif; text-anchor: start" x="258.12846" y="82.56073" transform="rotate(-0 258.12846 82.56073)">3251</text>
   </g>
   <g id="text_27">
    <text style="font: 8px 'Arial', 'DejaVu Sans', sans-serif; text-anchor: start" x="222.808272" y="122.551236" transform="rotate(-0 222.808272 122.551236)">2169</text>
   </g>
   <g id="text_28">
    <text style="font: 8px 'Arial', 'DejaVu Sans', sans-serif; text-anchor: start" x="223.674523" y="162.541742" transform="rotate(-0 223.674523 162.541742)">2195</text>
   </g>
   <g id="text_29">
    <text style="font: 8px 'Arial', 'DejaVu Sans', sans-serif; text-anchor: start" x="320.983997" y="202.532247" transform="rotate(-0 320.983997 202.532247)">5178</text>
   </g>
   <g id="text_30">
    <text style="font: 8px 'Arial', 'DejaVu Sans', sans-serif; text-anchor: start" x="224.544363" y="242.522753" transform="rotate(-0 224.544363 242.522753)">2222</text>
   </g>
   <g id="text_31">
    <text style="font: 8px 'Arial', 'DejaVu Sans', sans-serif; text-anchor: start" x="207.970753" y="282.513258" transform="rotate(-0 207.970753 282.513258)">1714</text>
   </g>
   <g id="text_32">
    <text style="font: 8px 'Arial', 'DejaVu Sans', sans-serif; text-anchor: start" x="205.893057" y="322.503764" transform="rotate(-0 205.893057 322.503764)">1650</text>
   </g>
   <g id="text_33">
    <text style="font: 8px 'Arial', 'DejaVu Sans', sans-serif; text-anchor: start" x="255.900678" y="362.49427" transform="rotate(-0 255.900678 362.49427)">3183</text>
   </g>
   <g id="text_34">
    <text style="font: 8px 'Arial', 'DejaVu Sans', sans-serif; text-anchor: start" x="419.7891" y="91.758547" transform="rotate(-0 419.7891 91.758547)">8206</text>
   </g>
   <g id="text_35">
    <text style="font: 8px 'Arial', 'DejaVu Sans', sans-serif; text-anchor: start" x="245.282175" y="131.749052" transform="rotate(-0 245.282175 131.749052)">2857</text>
   </g>
   <g id="text_36">
    <text style="font: 8px 'Arial', 'DejaVu Sans', sans-serif; text-anchor: start" x="293.806566" y="171.739558" transform="rotate(-0 293.806566 171.739558)">4345</text>
   </g>
   <g id="text_37">
    <text style="font: 8px 'Arial', 'DejaVu Sans', sans-serif; text-anchor: start" x="596.382857" y="211.730063" transform="rotate(-0 596.382857 211.730063)">13618</text>
   </g>
   <g id="text_38">
    <text style="font: 8px 'Arial', 'DejaVu Sans', sans-serif; text-anchor: start" x="288.658982" y="251.720569" transform="rotate(-0 288.658982 251.720569)">4187</text>
   </g>
   <g id="text_39">
    <text style="font: 8px 'Arial', 'DejaVu Sans', sans-serif; text-anchor: start" x="226.205737" y="291.711075" transform="rotate(-0 226.205737 291.711075)">2273</text>
   </g>
   <g id="text_40">
    <text style="font: 8px 'Arial', 'DejaVu Sans', sans-serif; text-anchor: start" x="246.16376" y="331.70158" transform="rotate(-0 246.16376 331.70158)">2884</text>
   </g>
   <g id="text_41">
    <text style="font: 8px 'Arial', 'DejaVu Sans', sans-serif; text-anchor: start" x="355.297637" y="371.692086" transform="rotate(-0 355.297637 371.692086)">6229</text>
   </g>
   <g id="legend_1">
    <g id="patch_31">
     <path d="M 224.52125 36.2865 
L 540.11875 36.2865 
Q 541.71875 36.2865 541.71875 34.6865 
L 541.71875 23.744 
Q 541.71875 22.144 540.11875 22.144 
L 224.52125 22.144 
Q 222.92125 22.144 222.92125 23.744 
L 222.92125 34.6865 
Q 222.92125 36.2865 224.52125 36.2865 
z
" style="fill: #ffffff; opacity: 0.8; stroke: #cccccc; stroke-linejoin: miter"/>
    </g>
    <g id="patch_32">
     <path d="M 226.12125 31.42275 
L 242.12125 31.42275 
L 242.12125 25.82275 
L 226.12125 25.82275 
z
" style="fill: #1f77b4"/>
    </g>
    <g id="text_42">
     <text style="font: 8px 'Arial', 'DejaVu Sans', sans-serif; text-anchor: start" x="248.52125" y="31.42275" transform="rotate(-0 248.52125 31.42275)">BoringSSL 0.20250701.0</text>
    </g>
    <g id="patch_33">
     <path d="M 363.7075 31.42275 
L 379.7075 31.42275 
L 379.7075 25.82275 
L 363.7075 25.82275 
z
" style="fill: #ff7f0e"/>
    </g>
    <g id="text_43">
     <text style="font: 8px 'Arial', 'DejaVu Sans', sans-serif; text-anchor: start" x="386.1075" y="31.42275" transform="rotate(-0 386.1075 31.42275)">OpenSSL 3.5.1</text>
    </g>
    <g id="patch_34">
     <path d="M 460.98875 31.42275 
L 476.98875 31.42275 
L 476.98875 25.82275 
L 460.98875 25.82275 
z
" style="fill: #2ca02c"/>
    </g>
    <g id="text_44">
     <text style="font: 8px 'Arial', 'DejaVu Sans', sans-serif; text-anchor: start" x="483.38875" y="31.42275" transform="rotate(-0 483.38875 31.42275)">rustls 0.23.31</text>
    </g>
   </g>
  </g>
  <g id="text_45">
   <text style="font: 9.6px 'Arial', 'DejaVu Sans', sans-serif; text-anchor: middle" x="324" y="15.9345" transform="rotate(-0 324 15.9345)">Full handshake speed comparison (handshakes per second)</text>
  </g>
 </g>
 <defs>
  <clipPath id="pc5cfa2f5cf">
   <rect x="149.04" y="51.84" width="466.56" height="336.96"/>
  </clipPath>
 </defs>
</svg>
