<?xml version="1.0" encoding="utf-8" standalone="no"?>
<!DOCTYPE svg PUBLIC "-//W3C//DTD SVG 1.1//EN"
  "http://www.w3.org/Graphics/SVG/1.1/DTD/svg11.dtd">
<svg xmlns:xlink="http://www.w3.org/1999/xlink" width="648pt" height="432pt" viewBox="0 0 648 432" xmlns="http://www.w3.org/2000/svg" version="1.1">
 <metadata>
  <rdf:RDF xmlns:dc="http://purl.org/dc/elements/1.1/" xmlns:cc="http://creativecommons.org/ns#" xmlns:rdf="http://www.w3.org/1999/02/22-rdf-syntax-ns#">
   <cc:Work>
    <dc:type rdf:resource="http://purl.org/dc/dcmitype/StillImage"/>
    <dc:date>2026-03-07T16:27:41.843071</dc:date>
    <dc:format>image/svg+xml</dc:format>
    <dc:creator>
     <cc:Agent>
      <dc:title>Matplotlib v3.6.3, https://matplotlib.org/</dc:title>
     </cc:Agent>
    </dc:creator>
   </cc:Work>
  </rdf:RDF>
 </metadata>
 <defs>
  <style type="text/css">*{stroke-linejoin: round; stroke-linecap: butt}</style>
 </defs>
 <g id="figure_1">
  <g id="patch_1">
   <path d="M 0 432 
L 648 432 
L 648 0 
L 0 0 
z
" style="fill: #ffffff"/>
  </g>
  <g id="axes_1">
   <g id="patch_2">
    <path d="M 149.04 388.8 
L 615.6 388.8 
L 615.6 51.84 
L 149.04 51.84 
z
" style="fill: #ffffff"/>
   </g>
   <g id="patch_3">
    <path d="M 149.04 67.156364 
L 593.382857 67.156364 
L 593.382857 82.905838 
L 149.04 82.905838 
z
" clip-path="url(#p9edea5e781)" style="fill: #1f77b4"/>
   </g>
   <g id="patch_4">
    <path d="M 149.04 145.903735 
L 509.269648 145.903735 
L 509.269648 161.653209 
L 149.04 161.653209 
z
" clip-path="url(#p9edea5e781)" style="fill: #1f77b4"/>
   </g>
   <g id="patch_5">
    <path d="M 149.04 224.651105 
L 554.414505 224.651105 
L 554.414505 240.40058 
L 149.04 240.40058 
z
" clip-path="url(#p9edea5e781)" style="fill: #1f77b4"/>
   </g>
   <g id="patch_6">
    <path d="M 149.04 303.398476 
L 482.230426 303.398476 
L 482.230426 319.14795 
L 149.04 319.14795 
z
" clip-path="url(#p9edea5e781)" style="fill: #1f77b4"/>
   </g>
   <g id="patch_7">
    <path d="M 149.04 85.268259 
L 503.264087 85.268259 
L 503.264087 101.017733 
L 149.04 101.017733 
z
" clip-path="url(#p9edea5e781)" style="fill: #ff7f0e"/>
   </g>
   <g id="patch_8">
    <path d="M 149.04 164.01563 
L 531.088903 164.01563 
L 531.088903 179.765104 
L 149.04 179.765104 
z
" clip-path="url(#p9edea5e781)" style="fill: #ff7f0e"/>
   </g>
   <g id="patch_9">
    <path d="M 149.04 242.763001 
L 462.224575 242.763001 
L 462.224575 258.512475 
L 149.04 258.512475 
z
" clip-path="url(#p9edea5e781)" style="fill: #ff7f0e"/>
   </g>
   <g id="patch_10">
    <path d="M 149.04 321.510372 
L 483.293604 321.510372 
L 483.293604 337.259846 
L 149.04 337.259846 
z
" clip-path="url(#p9edea5e781)" style="fill: #ff7f0e"/>
   </g>
   <g id="patch_11">
    <path d="M 149.04 103.380154 
L 584.91334 103.380154 
L 584.91334 119.129628 
L 149.04 119.129628 
z
" clip-path="url(#p9edea5e781)" style="fill: #2ca02c"/>
   </g>
   <g id="patch_12">
    <path d="M 149.04 182.127525 
L 574.898357 182.127525 
L 574.898357 197.876999 
L 149.04 197.876999 
z
" clip-path="url(#p9edea5e781)" style="fill: #2ca02c"/>
   </g>
   <g id="patch_13">
    <path d="M 149.04 260.874896 
L 546.714505 260.874896 
L 546.714505 276.62437 
L 149.04 276.62437 
z
" clip-path="url(#p9edea5e781)" style="fill: #2ca02c"/>
   </g>
   <g id="patch_14">
    <path d="M 149.04 339.622267 
L 541.992904 339.622267 
L 541.992904 355.371741 
L 149.04 355.371741 
z
" clip-path="url(#p9edea5e781)" style="fill: #2ca02c"/>
   </g>
   <g id="patch_15">
    <path d="M 149.04 121.49205 
L 533.0695 121.49205 
L 533.0695 137.241524 
L 149.04 137.241524 
z
" clip-path="url(#p9edea5e781)" style="fill: #d62728"/>
   </g>
   <g id="patch_16">
    <path d="M 149.04 200.23942 
L 565.995317 200.23942 
L 565.995317 215.988895 
L 149.04 215.988895 
z
" clip-path="url(#p9edea5e781)" style="fill: #d62728"/>
   </g>
   <g id="patch_17">
    <path d="M 149.04 278.986791 
L 550.548697 278.986791 
L 550.548697 294.736265 
L 149.04 294.736265 
z
" clip-path="url(#p9edea5e781)" style="fill: #d62728"/>
   </g>
   <g id="patch_18">
    <path d="M 149.04 357.734162 
L 533.493913 357.734162 
L 533.493913 373.483636 
L 149.04 373.483636 
z
" clip-path="url(#p9edea5e781)" style="fill: #d62728"/>
   </g>
   <g id="matplotlib.axis_1">
    <g id="xtick_1">
     <g id="line2d_1">
      <path d="M 149.04 388.8 
L 149.04 51.84 
" clip-path="url(#p9edea5e781)" style="fill: none; stroke: #b0b0b0; stroke-width: 0.1; stroke-linecap: square"/>
     </g>
     <g id="line2d_2">
      <defs>
       <path id="m9bf82878f9" d="M 0 0 
L 0 3.5 
" style="stroke: #000000; stroke-width: 0.8"/>
      </defs>
      <g>
       <use xlink:href="#m9bf82878f9" x="149.04" y="388.8" style="stroke: #000000; stroke-width: 0.8"/>
      </g>
     </g>
     <g id="text_1">
      <text style="font: 8px 'Arial', 'DejaVu Sans', sans-serif; text-anchor: middle" x="149.04" y="401.87875" transform="rotate(-0 149.04 401.87875)">0</text>
     </g>
    </g>
    <g id="xtick_2">
     <g id="line2d_3">
      <path d="M 202.62758 388.8 
L 202.62758 51.84 
" clip-path="url(#p9edea5e781)" style="fill: none; stroke: #b0b0b0; stroke-width: 0.1; stroke-linecap: square"/>
     </g>
     <g id="line2d_4">
      <g>
       <use xlink:href="#m9bf82878f9" x="202.62758" y="388.8" style="stroke: #000000; stroke-width: 0.8"/>
      </g>
     </g>
     <g id="text_2">
      <text style="font: 8px 'Arial', 'DejaVu Sans', sans-serif; text-anchor: middle" x="202.62758" y="401.87875" transform="rotate(-0 202.62758 401.87875)">1000</text>
     </g>
    </g>
    <g id="xtick_3">
     <g id="line2d_5">
      <path d="M 256.215161 388.8 
L 256.215161 51.84 
" clip-path="url(#p9edea5e781)" style="fill: none; stroke: #b0b0b0; stroke-width: 0.1; stroke-linecap: square"/>
     </g>
     <g id="line2d_6">
      <g>
       <use xlink:href="#m9bf82878f9" x="256.215161" y="388.8" style="stroke: #000000; stroke-width: 0.8"/>
      </g>
     </g>
     <g id="text_3">
      <text style="font: 8px 'Arial', 'DejaVu Sans', sans-serif; text-anchor: middle" x="256.215161" y="401.87875" transform="rotate(-0 256.215161 401.87875)">2000</text>
     </g>
    </g>
    <g id="xtick_4">
     <g id="line2d_7">
      <path d="M 309.802741 388.8 
L 309.802741 51.84 
" clip-path="url(#p9edea5e781)" style="fill: none; stroke: #b0b0b0; stroke-width: 0.1; stroke-linecap: square"/>
     </g>
     <g id="line2d_8">
      <g>
       <use xlink:href="#m9bf82878f9" x="309.802741" y="388.8" style="stroke: #000000; stroke-width: 0.8"/>
      </g>
     </g>
     <g id="text_4">
      <text style="font: 8px 'Arial', 'DejaVu Sans', sans-serif; text-anchor: middle" x="309.802741" y="401.87875" transform="rotate(-0 309.802741 401.87875)">3000</text>
     </g>
    </g>
    <g id="xtick_5">
     <g id="line2d_9">
      <path d="M 363.390321 388.8 
L 363.390321 51.84 
" clip-path="url(#p9edea5e781)" style="fill: none; stroke: #b0b0b0; stroke-width: 0.1; stroke-linecap: square"/>
     </g>
     <g id="line2d_10">
      <g>
       <use xlink:href="#m9bf82878f9" x="363.390321" y="388.8" style="stroke: #000000; stroke-width: 0.8"/>
      </g>
     </g>
     <g id="text_5">
      <text style="font: 8px 'Arial', 'DejaVu Sans', sans-serif; text-anchor: middle" x="363.390321" y="401.87875" transform="rotate(-0 363.390321 401.87875)">4000</text>
     </g>
    </g>
    <g id="xtick_6">
     <g id="line2d_11">
      <path d="M 416.977902 388.8 
L 416.977902 51.84 
" clip-path="url(#p9edea5e781)" style="fill: none; stroke: #b0b0b0; stroke-width: 0.1; stroke-linecap: square"/>
     </g>
     <g id="line2d_12">
      <g>
       <use xlink:href="#m9bf82878f9" x="416.977902" y="388.8" style="stroke: #000000; stroke-width: 0.8"/>
      </g>
     </g>
     <g id="text_6">
      <text style="font: 8px 'Arial', 'DejaVu Sans', sans-serif; text-anchor: middle" x="416.977902" y="401.87875" transform="rotate(-0 416.977902 401.87875)">5000</text>
     </g>
    </g>
    <g id="xtick_7">
     <g id="line2d_13">
      <path d="M 470.565482 388.8 
L 470.565482 51.84 
" clip-path="url(#p9edea5e781)" style="fill: none; stroke: #b0b0b0; stroke-width: 0.1; stroke-linecap: square"/>
     </g>
     <g id="line2d_14">
      <g>
       <use xlink:href="#m9bf82878f9" x="470.565482" y="388.8" style="stroke: #000000; stroke-width: 0.8"/>
      </g>
     </g>
     <g id="text_7">
      <text style="font: 8px 'Arial', 'DejaVu Sans', sans-serif; text-anchor: middle" x="470.565482" y="401.87875" transform="rotate(-0 470.565482 401.87875)">6000</text>
     </g>
    </g>
    <g id="xtick_8">
     <g id="line2d_15">
      <path d="M 524.153062 388.8 
L 524.153062 51.84 
" clip-path="url(#p9edea5e781)" style="fill: none; stroke: #b0b0b0; stroke-width: 0.1; stroke-linecap: square"/>
     </g>
     <g id="line2d_16">
      <g>
       <use xlink:href="#m9bf82878f9" x="524.153062" y="388.8" style="stroke: #000000; stroke-width: 0.8"/>
      </g>
     </g>
     <g id="text_8">
      <text style="font: 8px 'Arial', 'DejaVu Sans', sans-serif; text-anchor: middle" x="524.153062" y="401.87875" transform="rotate(-0 524.153062 401.87875)">7000</text>
     </g>
    </g>
    <g id="xtick_9">
     <g id="line2d_17">
      <path d="M 577.740642 388.8 
L 577.740642 51.84 
" clip-path="url(#p9edea5e781)" style="fill: none; stroke: #b0b0b0; stroke-width: 0.1; stroke-linecap: square"/>
     </g>
     <g id="line2d_18">
      <g>
       <use xlink:href="#m9bf82878f9" x="577.740642" y="388.8" style="stroke: #000000; stroke-width: 0.8"/>
      </g>
     </g>
     <g id="text_9">
      <text style="font: 8px 'Arial', 'DejaVu Sans', sans-serif; text-anchor: middle" x="577.740642" y="401.87875" transform="rotate(-0 577.740642 401.87875)">8000</text>
     </g>
    </g>
    <g id="text_10">
     <text style="font: 8px 'Arial', 'DejaVu Sans', sans-serif; text-anchor: middle" x="382.32" y="413.62125" transform="rotate(-0 382.32 413.62125)">megabytes per second (single core)</text>
    </g>
   </g>
   <g id="matplotlib.axis_2">
    <g id="ytick_1">
     <g id="line2d_19">
      <defs>
       <path id="m17fcbdf700" d="M 0 0 
L -3.5 0 
" style="stroke: #000000; stroke-width: 0.8"/>
      </defs>
      <g>
       <use xlink:href="#m17fcbdf700" x="149.04" y="90.780575" style="stroke: #000000; stroke-width: 0.8"/>
      </g>
     </g>
     <g id="text_11">
      <text style="font: 8px 'Arial', 'DejaVu Sans', sans-serif; text-anchor: end" x="142.04" y="93.81995" transform="rotate(-0 142.04 93.81995)">transfer, 1.2, aes-128-gcm, sending</text>
     </g>
    </g>
    <g id="ytick_2">
     <g id="line2d_20">
      <g>
       <use xlink:href="#m17fcbdf700" x="149.04" y="169.527946" style="stroke: #000000; stroke-width: 0.8"/>
      </g>
     </g>
     <g id="text_12">
      <text style="font: 8px 'Arial', 'DejaVu Sans', sans-serif; text-anchor: end" x="142.04" y="172.567321" transform="rotate(-0 142.04 172.567321)">transfer, 1.2, aes-128-gcm, receiving</text>
     </g>
    </g>
    <g id="ytick_3">
     <g id="line2d_21">
      <g>
       <use xlink:href="#m17fcbdf700" x="149.04" y="248.275317" style="stroke: #000000; stroke-width: 0.8"/>
      </g>
     </g>
     <g id="text_13">
      <text style="font: 8px 'Arial', 'DejaVu Sans', sans-serif; text-anchor: end" x="142.04" y="251.314692" transform="rotate(-0 142.04 251.314692)">transfer, 1.3, aes-256-gcm, sending</text>
     </g>
    </g>
    <g id="ytick_4">
     <g id="line2d_22">
      <g>
       <use xlink:href="#m17fcbdf700" x="149.04" y="327.022688" style="stroke: #000000; stroke-width: 0.8"/>
      </g>
     </g>
     <g id="text_14">
      <text style="font: 8px 'Arial', 'DejaVu Sans', sans-serif; text-anchor: end" x="142.04" y="330.062063" transform="rotate(-0 142.04 330.062063)">transfer, 1.3, aes-256-gcm, receiving</text>
     </g>
    </g>
   </g>
   <g id="patch_19">
    <path d="M 149.04 388.8 
L 149.04 51.84 
" style="fill: none; stroke: #000000; stroke-width: 0.8; stroke-linejoin: miter; stroke-linecap: square"/>
   </g>
   <g id="patch_20">
    <path d="M 615.6 388.8 
L 615.6 51.84 
" style="fill: none; stroke: #000000; stroke-width: 0.8; stroke-linejoin: miter; stroke-linecap: square"/>
   </g>
   <g id="patch_21">
    <path d="M 149.04 388.8 
L 615.6 388.8 
" style="fill: none; stroke: #000000; stroke-width: 0.8; stroke-linejoin: miter; stroke-linecap: square"/>
   </g>
   <g id="patch_22">
    <path d="M 149.04 51.84 
L 615.6 51.84 
" style="fill: none; stroke: #000000; stroke-width: 0.8; stroke-linejoin: miter; stroke-linecap: square"/>
   </g>
   <g id="text_15">
    <text style="font: 8px 'Arial', 'DejaVu Sans', sans-serif; text-anchor: start" x="596.382857" y="77.238601" transform="rotate(-0 596.382857 77.238601)">8291</text>
   </g>
   <g id="text_16">
    <text style="font: 8px 'Arial', 'DejaVu Sans', sans-serif; text-anchor: start" x="512.269648" y="155.985972" transform="rotate(-0 512.269648 155.985972)">6722</text>
   </g>
   <g id="text_17">
    <text style="font: 8px 'Arial', 'DejaVu Sans', sans-serif; text-anchor: start" x="557.414505" y="234.733342" transform="rotate(-0 557.414505 234.733342)">7564</text>
   </g>
   <g id="text_18">
    <text style="font: 8px 'Arial', 'DejaVu Sans', sans-serif; text-anchor: start" x="485.230426" y="313.480713" transform="rotate(-0 485.230426 313.480713)">6217</text>
   </g>
   <g id="text_19">
    <text style="font: 8px 'Arial', 'DejaVu Sans', sans-serif; text-anchor: start" x="506.264087" y="95.350496" transform="rotate(-0 506.264087 95.350496)">6610</text>
   </g>
   <g id="text_20">
    <text style="font: 8px 'Arial', 'DejaVu Sans', sans-serif; text-anchor: start" x="534.088903" y="174.097867" transform="rotate(-0 534.088903 174.097867)">7129</text>
   </g>
   <g id="text_21">
    <text style="font: 8px 'Arial', 'DejaVu Sans', sans-serif; text-anchor: start" x="465.224575" y="252.845238" transform="rotate(-0 465.224575 252.845238)">5844</text>
   </g>
   <g id="text_22">
    <text style="font: 8px 'Arial', 'DejaVu Sans', sans-serif; text-anchor: start" x="486.293604" y="331.592609" transform="rotate(-0 486.293604 331.592609)">6237</text>
   </g>
   <g id="text_23">
    <text style="font: 8px 'Arial', 'DejaVu Sans', sans-serif; text-anchor: start" x="587.91334" y="113.462391" transform="rotate(-0 587.91334 113.462391)">8133</text>
   </g>
   <g id="text_24">
    <text style="font: 8px 'Arial', 'DejaVu Sans', sans-serif; text-anchor: start" x="577.898357" y="192.209762" transform="rotate(-0 577.898357 192.209762)">7946</text>
   </g>
   <g id="text_25">
    <text style="font: 8px 'Arial', 'DejaVu Sans', sans-serif; text-anchor: start" x="549.714505" y="270.957133" transform="rotate(-0 549.714505 270.957133)">7421</text>
   </g>
   <g id="text_26">
    <text style="font: 8px 'Arial', 'DejaVu Sans', sans-serif; text-anchor: start" x="544.992904" y="349.704504" transform="rotate(-0 544.992904 349.704504)">7332</text>
   </g>
   <g id="text_27">
    <text style="font: 8px 'Arial', 'DejaVu Sans', sans-serif; text-anchor: start" x="536.0695" y="131.574287" transform="rotate(-0 536.0695 131.574287)">7166</text>
   </g>
   <g id="text_28">
    <text style="font: 8px 'Arial', 'DejaVu Sans', sans-serif; text-anchor: start" x="568.995317" y="210.321658" transform="rotate(-0 568.995317 210.321658)">7780</text>
   </g>
   <g id="text_29">
    <text style="font: 8px 'Arial', 'DejaVu Sans', sans-serif; text-anchor: start" x="553.548697" y="289.069028" transform="rotate(-0 553.548697 289.069028)">7492</text>
   </g>
   <g id="text_30">
    <text style="font: 8px 'Arial', 'DejaVu Sans', sans-serif; text-anchor: start" x="536.493913" y="367.816399" transform="rotate(-0 536.493913 367.816399)">7174</text>
   </g>
   <g id="legend_1">
    <g id="patch_23">
     <path d="M 183.38125 36.2865 
L 581.25875 36.2865 
Q 582.85875 36.2865 582.85875 34.6865 
L 582.85875 23.744 
Q 582.85875 22.144 581.25875 22.144 
L 183.38125 22.144 
Q 181.78125 22.144 181.78125 23.744 
L 181.78125 34.6865 
Q 181.78125 36.2865 183.38125 36.2865 
z
" style="fill: #ffffff; opacity: 0.8; stroke: #cccccc; stroke-linejoin: miter"/>
    </g>
    <g id="patch_24">
     <path d="M 184.98125 31.42275 
L 200.98125 31.42275 
L 200.98125 25.82275 
L 184.98125 25.82275 
z
" style="fill: #1f77b4"/>
    </g>
    <g id="text_31">
     <text style="font: 8px 'Arial', 'DejaVu Sans', sans-serif; text-anchor: start" x="207.38125" y="31.42275" transform="rotate(-0 207.38125 31.42275)">BoringSSL 30cd935</text>
    </g>
    <g id="patch_25">
     <path d="M 301.51 31.42275 
L 317.51 31.42275 
L 317.51 25.82275 
L 301.51 25.82275 
z
" style="fill: #ff7f0e"/>
    </g>
    <g id="text_32">
     <text style="font: 8px 'Arial', 'DejaVu Sans', sans-serif; text-anchor: start" x="323.91" y="31.42275" transform="rotate(-0 323.91 31.42275)">OpenSSL 3.6.1</text>
    </g>
    <g id="patch_26">
     <path d="M 398.79125 31.42275 
L 414.79125 31.42275 
L 414.79125 25.82275 
L 398.79125 25.82275 
z
" style="fill: #2ca02c"/>
    </g>
    <g id="text_33">
     <text style="font: 8px 'Arial', 'DejaVu Sans', sans-serif; text-anchor: start" x="421.19125" y="31.42275" transform="rotate(-0 421.19125 31.42275)">rustls 0.23.37</text>
    </g>
    <g id="patch_27">
     <path d="M 492.32125 31.42275 
L 508.32125 31.42275 
L 508.32125 25.82275 
L 492.32125 25.82275 
z
" style="fill: #d62728"/>
    </g>
    <g id="text_34">
     <text style="font: 8px 'Arial', 'DejaVu Sans', sans-serif; text-anchor: start" x="514.72125" y="31.42275" transform="rotate(-0 514.72125 31.42275)">rustls 0.24 main</text>
    </g>
   </g>
  </g>
  <g id="text_35">
   <text style="font: 9.6px 'Arial', 'DejaVu Sans', sans-serif; text-anchor: middle" x="324" y="15.9345" transform="rotate(-0 324 15.9345)">Bulk throughput speed comparison (megabytes per second)</text>
  </g>
 </g>
 <defs>
  <clipPath id="p9edea5e781">
   <rect x="149.04" y="51.84" width="466.56" height="336.96"/>
  </clipPath>
 </defs>
</svg>
