<?xml version="1.0" encoding="utf-8" standalone="no"?>
<!DOCTYPE svg PUBLIC "-//W3C//DTD SVG 1.1//EN"
  "http://www.w3.org/Graphics/SVG/1.1/DTD/svg11.dtd">
<svg xmlns:xlink="http://www.w3.org/1999/xlink" width="648pt" height="432pt" viewBox="0 0 648 432" xmlns="http://www.w3.org/2000/svg" version="1.1">
 <metadata>
  <rdf:RDF xmlns:dc="http://purl.org/dc/elements/1.1/" xmlns:cc="http://creativecommons.org/ns#" xmlns:rdf="http://www.w3.org/1999/02/22-rdf-syntax-ns#">
   <cc:Work>
    <dc:type rdf:resource="http://purl.org/dc/dcmitype/StillImage"/>
    <dc:date>2026-03-07T13:50:57.576300</dc:date>
    <dc:format>image/svg+xml</dc:format>
    <dc:creator>
     <cc:Agent>
      <dc:title>Matplotlib v3.6.3, https://matplotlib.org/</dc:title>
     </cc:Agent>
    </dc:creator>
   </cc:Work>
  </rdf:RDF>
 </metadata>
 <defs>
  <style type="text/css">*{stroke-linejoin: round; stroke-linecap: butt}</style>
 </defs>
 <g id="figure_1">
  <g id="patch_1">
   <path d="M 0 432 
L 648 432 
L 648 0 
L 0 0 
z
" style="fill: #ffffff"/>
  </g>
  <g id="axes_1">
   <g id="patch_2">
    <path d="M 149.04 388.8 
L 615.6 388.8 
L 615.6 51.84 
L 149.04 51.84 
z
" style="fill: #ffffff"/>
   </g>
   <g id="patch_3">
    <path d="M 149.04 67.156364 
L 427.305879 67.156364 
L 427.305879 83.895559 
L 149.04 83.895559 
z
" clip-path="url(#pe3cb3cd95a)" style="fill: #1f77b4"/>
   </g>
   <g id="patch_4">
    <path d="M 149.04 150.85234 
L 421.412615 150.85234 
L 421.412615 167.591535 
L 149.04 167.591535 
z
" clip-path="url(#pe3cb3cd95a)" style="fill: #1f77b4"/>
   </g>
   <g id="patch_5">
    <path d="M 149.04 234.548316 
L 177.537144 234.548316 
L 177.537144 251.287511 
L 149.04 251.287511 
z
" clip-path="url(#pe3cb3cd95a)" style="fill: #1f77b4"/>
   </g>
   <g id="patch_6">
    <path d="M 149.04 318.244292 
L 183.906196 318.244292 
L 183.906196 334.983487 
L 149.04 334.983487 
z
" clip-path="url(#pe3cb3cd95a)" style="fill: #1f77b4"/>
   </g>
   <g id="patch_7">
    <path d="M 149.04 86.406438 
L 278.620066 86.406438 
L 278.620066 103.145633 
L 149.04 103.145633 
z
" clip-path="url(#pe3cb3cd95a)" style="fill: #ff7f0e"/>
   </g>
   <g id="patch_8">
    <path d="M 149.04 170.102414 
L 287.878368 170.102414 
L 287.878368 186.84161 
L 149.04 186.84161 
z
" clip-path="url(#pe3cb3cd95a)" style="fill: #ff7f0e"/>
   </g>
   <g id="patch_9">
    <path d="M 149.04 253.79839 
L 171.078463 253.79839 
L 171.078463 270.537586 
L 149.04 270.537586 
z
" clip-path="url(#pe3cb3cd95a)" style="fill: #ff7f0e"/>
   </g>
   <g id="patch_10">
    <path d="M 149.04 337.494367 
L 172.213344 337.494367 
L 172.213344 354.233562 
L 149.04 354.233562 
z
" clip-path="url(#pe3cb3cd95a)" style="fill: #ff7f0e"/>
   </g>
   <g id="patch_11">
    <path d="M 149.04 105.656513 
L 540.598026 105.656513 
L 540.598026 122.395708 
L 149.04 122.395708 
z
" clip-path="url(#pe3cb3cd95a)" style="fill: #2ca02c"/>
   </g>
   <g id="patch_12">
    <path d="M 149.04 189.352489 
L 593.382857 189.352489 
L 593.382857 206.091684 
L 149.04 206.091684 
z
" clip-path="url(#pe3cb3cd95a)" style="fill: #2ca02c"/>
   </g>
   <g id="patch_13">
    <path d="M 149.04 273.048465 
L 190.334408 273.048465 
L 190.334408 289.78766 
L 149.04 289.78766 
z
" clip-path="url(#pe3cb3cd95a)" style="fill: #2ca02c"/>
   </g>
   <g id="patch_14">
    <path d="M 149.04 356.744441 
L 193.480588 356.744441 
L 193.480588 373.483636 
L 149.04 373.483636 
z
" clip-path="url(#pe3cb3cd95a)" style="fill: #2ca02c"/>
   </g>
   <g id="matplotlib.axis_1">
    <g id="xtick_1">
     <g id="line2d_1">
      <path d="M 149.04 388.8 
L 149.04 51.84 
" clip-path="url(#pe3cb3cd95a)" style="fill: none; stroke: #b0b0b0; stroke-width: 0.1; stroke-linecap: square"/>
     </g>
     <g id="line2d_2">
      <defs>
       <path id="m8a1427a218" d="M 0 0 
L 0 3.5 
" style="stroke: #000000; stroke-width: 0.8"/>
      </defs>
      <g>
       <use xlink:href="#m8a1427a218" x="149.04" y="388.8" style="stroke: #000000; stroke-width: 0.8"/>
      </g>
     </g>
     <g id="text_1">
      <text style="font: 8px 'Arial', 'DejaVu Sans', sans-serif; text-anchor: middle" x="149.04" y="401.87875" transform="rotate(-0 149.04 401.87875)">0</text>
     </g>
    </g>
    <g id="xtick_2">
     <g id="line2d_3">
      <path d="M 210.345142 388.8 
L 210.345142 51.84 
" clip-path="url(#pe3cb3cd95a)" style="fill: none; stroke: #b0b0b0; stroke-width: 0.1; stroke-linecap: square"/>
     </g>
     <g id="line2d_4">
      <g>
       <use xlink:href="#m8a1427a218" x="210.345142" y="388.8" style="stroke: #000000; stroke-width: 0.8"/>
      </g>
     </g>
     <g id="text_2">
      <text style="font: 8px 'Arial', 'DejaVu Sans', sans-serif; text-anchor: middle" x="210.345142" y="401.87875" transform="rotate(-0 210.345142 401.87875)">10000</text>
     </g>
    </g>
    <g id="xtick_3">
     <g id="line2d_5">
      <path d="M 271.650284 388.8 
L 271.650284 51.84 
" clip-path="url(#pe3cb3cd95a)" style="fill: none; stroke: #b0b0b0; stroke-width: 0.1; stroke-linecap: square"/>
     </g>
     <g id="line2d_6">
      <g>
       <use xlink:href="#m8a1427a218" x="271.650284" y="388.8" style="stroke: #000000; stroke-width: 0.8"/>
      </g>
     </g>
     <g id="text_3">
      <text style="font: 8px 'Arial', 'DejaVu Sans', sans-serif; text-anchor: middle" x="271.650284" y="401.87875" transform="rotate(-0 271.650284 401.87875)">20000</text>
     </g>
    </g>
    <g id="xtick_4">
     <g id="line2d_7">
      <path d="M 332.955426 388.8 
L 332.955426 51.84 
" clip-path="url(#pe3cb3cd95a)" style="fill: none; stroke: #b0b0b0; stroke-width: 0.1; stroke-linecap: square"/>
     </g>
     <g id="line2d_8">
      <g>
       <use xlink:href="#m8a1427a218" x="332.955426" y="388.8" style="stroke: #000000; stroke-width: 0.8"/>
      </g>
     </g>
     <g id="text_4">
      <text style="font: 8px 'Arial', 'DejaVu Sans', sans-serif; text-anchor: middle" x="332.955426" y="401.87875" transform="rotate(-0 332.955426 401.87875)">30000</text>
     </g>
    </g>
    <g id="xtick_5">
     <g id="line2d_9">
      <path d="M 394.260568 388.8 
L 394.260568 51.84 
" clip-path="url(#pe3cb3cd95a)" style="fill: none; stroke: #b0b0b0; stroke-width: 0.1; stroke-linecap: square"/>
     </g>
     <g id="line2d_10">
      <g>
       <use xlink:href="#m8a1427a218" x="394.260568" y="388.8" style="stroke: #000000; stroke-width: 0.8"/>
      </g>
     </g>
     <g id="text_5">
      <text style="font: 8px 'Arial', 'DejaVu Sans', sans-serif; text-anchor: middle" x="394.260568" y="401.87875" transform="rotate(-0 394.260568 401.87875)">40000</text>
     </g>
    </g>
    <g id="xtick_6">
     <g id="line2d_11">
      <path d="M 455.56571 388.8 
L 455.56571 51.84 
" clip-path="url(#pe3cb3cd95a)" style="fill: none; stroke: #b0b0b0; stroke-width: 0.1; stroke-linecap: square"/>
     </g>
     <g id="line2d_12">
      <g>
       <use xlink:href="#m8a1427a218" x="455.56571" y="388.8" style="stroke: #000000; stroke-width: 0.8"/>
      </g>
     </g>
     <g id="text_6">
      <text style="font: 8px 'Arial', 'DejaVu Sans', sans-serif; text-anchor: middle" x="455.56571" y="401.87875" transform="rotate(-0 455.56571 401.87875)">50000</text>
     </g>
    </g>
    <g id="xtick_7">
     <g id="line2d_13">
      <path d="M 516.870852 388.8 
L 516.870852 51.84 
" clip-path="url(#pe3cb3cd95a)" style="fill: none; stroke: #b0b0b0; stroke-width: 0.1; stroke-linecap: square"/>
     </g>
     <g id="line2d_14">
      <g>
       <use xlink:href="#m8a1427a218" x="516.870852" y="388.8" style="stroke: #000000; stroke-width: 0.8"/>
      </g>
     </g>
     <g id="text_7">
      <text style="font: 8px 'Arial', 'DejaVu Sans', sans-serif; text-anchor: middle" x="516.870852" y="401.87875" transform="rotate(-0 516.870852 401.87875)">60000</text>
     </g>
    </g>
    <g id="xtick_8">
     <g id="line2d_15">
      <path d="M 578.175994 388.8 
L 578.175994 51.84 
" clip-path="url(#pe3cb3cd95a)" style="fill: none; stroke: #b0b0b0; stroke-width: 0.1; stroke-linecap: square"/>
     </g>
     <g id="line2d_16">
      <g>
       <use xlink:href="#m8a1427a218" x="578.175994" y="388.8" style="stroke: #000000; stroke-width: 0.8"/>
      </g>
     </g>
     <g id="text_8">
      <text style="font: 8px 'Arial', 'DejaVu Sans', sans-serif; text-anchor: middle" x="578.175994" y="401.87875" transform="rotate(-0 578.175994 401.87875)">70000</text>
     </g>
    </g>
    <g id="text_9">
     <text style="font: 8px 'Arial', 'DejaVu Sans', sans-serif; text-anchor: middle" x="382.32" y="413.62125" transform="rotate(-0 382.32 413.62125)">resumed handshakes per second (single core)</text>
    </g>
   </g>
   <g id="matplotlib.axis_2">
    <g id="ytick_1">
     <g id="line2d_17">
      <defs>
       <path id="m96d45668fb" d="M 0 0 
L -3.5 0 
" style="stroke: #000000; stroke-width: 0.8"/>
      </defs>
      <g>
       <use xlink:href="#m96d45668fb" x="149.04" y="92.265156" style="stroke: #000000; stroke-width: 0.8"/>
      </g>
     </g>
     <g id="text_10">
      <text style="font: 8px 'Arial', 'DejaVu Sans', sans-serif; text-anchor: end" x="142.04" y="95.304531" transform="rotate(-0 142.04 95.304531)">resumed handshakes, 1.2, client</text>
     </g>
    </g>
    <g id="ytick_2">
     <g id="line2d_18">
      <g>
       <use xlink:href="#m96d45668fb" x="149.04" y="175.961133" style="stroke: #000000; stroke-width: 0.8"/>
      </g>
     </g>
     <g id="text_11">
      <text style="font: 8px 'Arial', 'DejaVu Sans', sans-serif; text-anchor: end" x="142.04" y="179.000508" transform="rotate(-0 142.04 179.000508)">resumed handshakes, 1.2, server</text>
     </g>
    </g>
    <g id="ytick_3">
     <g id="line2d_19">
      <g>
       <use xlink:href="#m96d45668fb" x="149.04" y="259.657109" style="stroke: #000000; stroke-width: 0.8"/>
      </g>
     </g>
     <g id="text_12">
      <text style="font: 8px 'Arial', 'DejaVu Sans', sans-serif; text-anchor: end" x="142.04" y="262.696484" transform="rotate(-0 142.04 262.696484)">resumed handshakes, 1.3, client</text>
     </g>
    </g>
    <g id="ytick_4">
     <g id="line2d_20">
      <g>
       <use xlink:href="#m96d45668fb" x="149.04" y="343.353085" style="stroke: #000000; stroke-width: 0.8"/>
      </g>
     </g>
     <g id="text_13">
      <text style="font: 8px 'Arial', 'DejaVu Sans', sans-serif; text-anchor: end" x="142.04" y="346.39246" transform="rotate(-0 142.04 346.39246)">resumed handshakes, 1.3, server</text>
     </g>
    </g>
   </g>
   <g id="patch_15">
    <path d="M 149.04 388.8 
L 149.04 51.84 
" style="fill: none; stroke: #000000; stroke-width: 0.8; stroke-linejoin: miter; stroke-linecap: square"/>
   </g>
   <g id="patch_16">
    <path d="M 615.6 388.8 
L 615.6 51.84 
" style="fill: none; stroke: #000000; stroke-width: 0.8; stroke-linejoin: miter; stroke-linecap: square"/>
   </g>
   <g id="patch_17">
    <path d="M 149.04 388.8 
L 615.6 388.8 
" style="fill: none; stroke: #000000; stroke-width: 0.8; stroke-linejoin: miter; stroke-linecap: square"/>
   </g>
   <g id="patch_18">
    <path d="M 149.04 51.84 
L 615.6 51.84 
" style="fill: none; stroke: #000000; stroke-width: 0.8; stroke-linejoin: miter; stroke-linecap: square"/>
   </g>
   <g id="text_14">
    <text style="font: 8px 'Arial', 'DejaVu Sans', sans-serif; text-anchor: start" x="430.305879" y="77.733461" transform="rotate(-0 430.305879 77.733461)">45390</text>
   </g>
   <g id="text_15">
    <text style="font: 8px 'Arial', 'DejaVu Sans', sans-serif; text-anchor: start" x="424.412615" y="161.429437" transform="rotate(-0 424.412615 161.429437)">44429</text>
   </g>
   <g id="text_16">
    <text style="font: 8px 'Arial', 'DejaVu Sans', sans-serif; text-anchor: start" x="180.537144" y="245.125414" transform="rotate(-0 180.537144 245.125414)">4648</text>
   </g>
   <g id="text_17">
    <text style="font: 8px 'Arial', 'DejaVu Sans', sans-serif; text-anchor: start" x="186.906196" y="328.82139" transform="rotate(-0 186.906196 328.82139)">5687</text>
   </g>
   <g id="text_18">
    <text style="font: 8px 'Arial', 'DejaVu Sans', sans-serif; text-anchor: start" x="281.620066" y="96.983536" transform="rotate(-0 281.620066 96.983536)">21136</text>
   </g>
   <g id="text_19">
    <text style="font: 8px 'Arial', 'DejaVu Sans', sans-serif; text-anchor: start" x="290.878368" y="180.679512" transform="rotate(-0 290.878368 180.679512)">22647</text>
   </g>
   <g id="text_20">
    <text style="font: 8px 'Arial', 'DejaVu Sans', sans-serif; text-anchor: start" x="174.078463" y="264.375488" transform="rotate(-0 174.078463 264.375488)">3594</text>
   </g>
   <g id="text_21">
    <text style="font: 8px 'Arial', 'DejaVu Sans', sans-serif; text-anchor: start" x="175.213344" y="348.071464" transform="rotate(-0 175.213344 348.071464)">3780</text>
   </g>
   <g id="text_22">
    <text style="font: 8px 'Arial', 'DejaVu Sans', sans-serif; text-anchor: start" x="543.598026" y="116.23361" transform="rotate(-0 543.598026 116.23361)">63870</text>
   </g>
   <g id="text_23">
    <text style="font: 8px 'Arial', 'DejaVu Sans', sans-serif; text-anchor: start" x="596.382857" y="199.929586" transform="rotate(-0 596.382857 199.929586)">72480</text>
   </g>
   <g id="text_24">
    <text style="font: 8px 'Arial', 'DejaVu Sans', sans-serif; text-anchor: start" x="193.334408" y="283.625563" transform="rotate(-0 193.334408 283.625563)">6735</text>
   </g>
   <g id="text_25">
    <text style="font: 8px 'Arial', 'DejaVu Sans', sans-serif; text-anchor: start" x="196.480588" y="367.321539" transform="rotate(-0 196.480588 367.321539)">7249</text>
   </g>
   <g id="legend_1">
    <g id="patch_19">
     <path d="M 235.05 36.2865 
L 529.59 36.2865 
Q 531.19 36.2865 531.19 34.6865 
L 531.19 23.744 
Q 531.19 22.144 529.59 22.144 
L 235.05 22.144 
Q 233.45 22.144 233.45 23.744 
L 233.45 34.6865 
Q 233.45 36.2865 235.05 36.2865 
z
" style="fill: #ffffff; opacity: 0.8; stroke: #cccccc; stroke-linejoin: miter"/>
    </g>
    <g id="patch_20">
     <path d="M 236.65 31.42275 
L 252.65 31.42275 
L 252.65 25.82275 
L 236.65 25.82275 
z
" style="fill: #1f77b4"/>
    </g>
    <g id="text_26">
     <text style="font: 8px 'Arial', 'DejaVu Sans', sans-serif; text-anchor: start" x="259.05" y="31.42275" transform="rotate(-0 259.05 31.42275)">BoringSSL 30cd935</text>
    </g>
    <g id="patch_21">
     <path d="M 353.17875 31.42275 
L 369.17875 31.42275 
L 369.17875 25.82275 
L 353.17875 25.82275 
z
" style="fill: #ff7f0e"/>
    </g>
    <g id="text_27">
     <text style="font: 8px 'Arial', 'DejaVu Sans', sans-serif; text-anchor: start" x="375.57875" y="31.42275" transform="rotate(-0 375.57875 31.42275)">OpenSSL 3.6.1</text>
    </g>
    <g id="patch_22">
     <path d="M 450.46 31.42275 
L 466.46 31.42275 
L 466.46 25.82275 
L 450.46 25.82275 
z
" style="fill: #2ca02c"/>
    </g>
    <g id="text_28">
     <text style="font: 8px 'Arial', 'DejaVu Sans', sans-serif; text-anchor: start" x="472.86" y="31.42275" transform="rotate(-0 472.86 31.42275)">rustls 0.23.37</text>
    </g>
   </g>
  </g>
  <g id="text_29">
   <text style="font: 9.6px 'Arial', 'DejaVu Sans', sans-serif; text-anchor: middle" x="324" y="15.9345" transform="rotate(-0 324 15.9345)">Resumed handshake speed comparison (handshakes per second)</text>
  </g>
 </g>
 <defs>
  <clipPath id="pe3cb3cd95a">
   <rect x="149.04" y="51.84" width="466.56" height="336.96"/>
  </clipPath>
 </defs>
</svg>
